<?xml version="1.0" encoding="utf-8"?>
<!-- Generator: Adobe Illustrator 23.0.1, SVG Export Plug-In . SVG Version: 6.00 Build 0)  -->
<svg version="1.1" id="Layer_1" xmlns="http://www.w3.org/2000/svg" xmlns:xlink="http://www.w3.org/1999/xlink" x="0px" y="0px"
	 viewBox="0 0 24 30" style="enable-background:new 0 0 24 30;" xml:space="preserve">
<style type="text/css">
	.st0{fill:#75449B;}
</style>
<g>
	<path class="st0" d="M12.5,26C6.2,26,1,20.8,1,14.5V14h1v0.5C2,20.3,6.7,25,12.5,25S23,20.3,23,14.5S18.3,4,12.5,4H12V3h0.5
		C18.8,3,24,8.2,24,14.5S18.8,26,12.5,26z"/>
	<polygon class="st0" points="9,17.1 8.5,16.3 12,14.2 12,7 13,7 13,14.5 12.8,14.9 	"/>
	<path class="st0" d="M1.2,12.1l0.2-1l1,0.2l-0.2,1C1.2,12.1,2.2,12.4,1.2,12.1z M2.2,9.2l0.5-0.9l0.9,0.5l-0.5,1
		C2.2,9.2,3.1,9.8,2.2,9.2z M4,6.8L4.7,6l0.7,0.7L5,7.1l0,0L4.7,7.5C4,6.8,4.7,7.5,4,6.8z M6.3,4.8l0.4-0.2l0,0l0.4-0.2l0.5,0.9
		L6.8,5.7C6.3,4.8,6.8,5.7,6.3,4.8z M9,3.5l1-0.2l0.3,1L9.8,4.4l0,0L9.3,4.5C9,3.5,9.3,4.5,9,3.5z M12.5,4H12V3h1v1
		C12.5,4,13,4,12.5,4z"/>
</g>
</svg>
