<?xml version="1.0" encoding="utf-8"?>
<!-- Generator: Adobe Illustrator 23.0.1, SVG Export Plug-In . SVG Version: 6.00 Build 0)  -->
<svg version="1.1" id="Layer_1" xmlns="http://www.w3.org/2000/svg" xmlns:xlink="http://www.w3.org/1999/xlink" x="0px" y="0px"
	 viewBox="0 0 512 512" style="enable-background:new 0 0 512 512;" xml:space="preserve">
<style type="text/css">
	.st0{fill:#6A6E7C;}
</style>
<g>
	<path class="st0" d="M256,393.6c-2.8,0-5.5-1.1-7.6-3.2L3,136.3c-4-4.2-3.9-10.9,0.3-14.9s10.9-3.9,14.9,0.3l245.5,254
		c4,4.2,3.9,10.9-0.3,14.9C261.3,392.6,258.6,393.6,256,393.6z"/>
	<path class="st0" d="M256,393.6c-2.6,0-5.3-1-7.3-3c-4.2-4-4.3-10.7-0.3-14.9l245.5-254c4-4.2,10.7-4.3,14.9-0.3
		c4.2,4,4.3,10.7,0.3,14.9l-245.5,254C261.5,392.5,258.8,393.6,256,393.6z"/>
</g>
<g>
	<path class="st0" d="M255.95,393.6c-2.8,0-5.5-1.1-7.6-3.2L2.95,136.3c-4-4.2-3.9-10.9,0.3-14.9s10.9-3.9,14.9,0.3l245.5,254
		c4,4.2,3.9,10.9-0.3,14.9C261.25,392.6,258.55,393.6,255.95,393.6z"/>
	<path class="st0" d="M255.95,393.6c-2.6,0-5.3-1-7.3-3c-4.2-4-4.3-10.7-0.3-14.9l245.5-254c4-4.2,10.7-4.3,14.9-0.3
		c4.2,4,4.3,10.7,0.3,14.9l-245.5,254C261.45,392.5,258.75,393.6,255.95,393.6z"/>
</g>
</svg>
