<?xml version="1.0" encoding="utf-8"?>
<!-- Generator: Adobe Illustrator 23.0.1, SVG Export Plug-In . SVG Version: 6.00 Build 0)  -->
<svg version="1.1" id="Layer_1" xmlns="http://www.w3.org/2000/svg" xmlns:xlink="http://www.w3.org/1999/xlink" x="0px" y="0px"
	 viewBox="0 0 512 512" style="enable-background:new 0 0 512 512;" xml:space="preserve">
<style type="text/css">
	.st0{fill:#6A6E7C;}
</style>
<g>
	<path class="st0" d="M256,118.5c2.8,0,5.5,1.1,7.6,3.2L509,375.8c4,4.2,3.9,10.9-0.3,14.9s-10.9,3.9-14.9-0.3l-245.5-254
		c-4-4.2-3.9-10.9,0.3-14.9C250.8,119.5,253.4,118.5,256,118.5z"/>
	<path class="st0" d="M256,118.5c2.6,0,5.3,1,7.3,3c4.2,4,4.3,10.7,0.3,14.9l-245.5,254c-4,4.2-10.7,4.3-14.9,0.3
		C-1,386.7-1,380,3,375.8l245.5-254C250.5,119.6,253.3,118.5,256,118.5z"/>
</g>
<g>
	<path class="st0" d="M256.1,118.5c2.8,0,5.5,1.1,7.6,3.2l245.4,254.1c4,4.2,3.9,10.9-0.3,14.9s-10.9,3.9-14.9-0.3l-245.5-254
		c-4-4.2-3.9-10.9,0.3-14.9C250.8,119.5,253.5,118.5,256.1,118.5z"/>
	<path class="st0" d="M256.1,118.5c2.6,0,5.3,1,7.3,3c4.2,4,4.3,10.7,0.3,14.9l-245.5,254c-4,4.2-10.7,4.3-14.9,0.3S-1,380,3,375.8
		l245.5-254C250.6,119.6,253.3,118.5,256.1,118.5z"/>
</g>
</svg>
