<?xml version="1.0" encoding="utf-8"?>
<!-- Generator: Adobe Illustrator 23.0.1, SVG Export Plug-In . SVG Version: 6.00 Build 0)  -->
<svg version="1.1" id="Layer_1" xmlns="http://www.w3.org/2000/svg" xmlns:xlink="http://www.w3.org/1999/xlink" x="0px" y="0px"
	 viewBox="0 0 275.1 512" style="enable-background:new 0 0 275.1 512;" xml:space="preserve">
<style type="text/css">
	.st0{fill:#FFFFFF;}
</style>
<g>
	<path class="st0" d="M0,256c0-2.8,1.1-5.5,3.2-7.6L257.3,3c4.2-4,10.9-3.9,14.9,0.3s3.9,10.9-0.3,14.9l-254,245.5
		c-4.2,4-10.9,3.9-14.9-0.3C1,261.2,0,258.6,0,256z"/>
	<path class="st0" d="M0,256c0-2.6,1-5.3,3-7.3c4-4.2,10.7-4.3,14.9-0.3l254,245.5c4.2,4,4.3,10.7,0.3,14.9
		c-4,4.2-10.7,4.2-14.9,0.2L3.3,263.5C1.1,261.5,0,258.7,0,256z"/>
</g>
<g>
	<path class="st0" d="M0,255.9c0-2.8,1.1-5.5,3.2-7.6L257.3,2.9c4.2-4,10.9-3.9,14.9,0.3s3.9,10.9-0.3,14.9l-254,245.5
		c-4.2,4-10.9,3.9-14.9-0.3C1,261.2,0,258.5,0,255.9z"/>
	<path class="st0" d="M0,255.9c0-2.6,1-5.3,3-7.3c4-4.2,10.7-4.3,14.9-0.3l254,245.5c4.2,4,4.3,10.7,0.3,14.9s-10.7,4.3-14.9,0.3
		L3.3,263.5C1.1,261.4,0,258.7,0,255.9z"/>
</g>
</svg>
