<?xml version="1.0" encoding="utf-8"?>
<!-- Generator: Adobe Illustrator 23.0.1, SVG Export Plug-In . SVG Version: 6.00 Build 0)  -->
<svg version="1.1" id="Layer_1" xmlns="http://www.w3.org/2000/svg" xmlns:xlink="http://www.w3.org/1999/xlink" x="0px" y="0px"
	 viewBox="0 0 275.1 512" style="enable-background:new 0 0 275.1 512;" xml:space="preserve">
<style type="text/css">
	.st0{fill:#FFFFFF;}
</style>
<g>
	<path class="st0" d="M275.1,256c0,2.8-1.1,5.5-3.2,7.6L17.8,509c-4.2,4-10.9,3.9-14.9-0.3s-3.9-10.9,0.3-14.9l254-245.5
		c4.2-4,10.9-3.9,14.9,0.3C274.1,250.8,275.1,253.4,275.1,256z"/>
	<path class="st0" d="M275.1,256c0,2.6-1,5.3-3,7.3c-4,4.2-10.7,4.3-14.9,0.3L3.2,18.1C-1,14.1-1.1,7.4,2.9,3.2S13.6-1,17.8,3
		l254,245.5C274,250.5,275.1,253.3,275.1,256z"/>
</g>
<g>
	<path class="st0" d="M275.1,256.1c0,2.8-1.1,5.5-3.2,7.6L17.8,509.1c-4.2,4-10.9,3.9-14.9-0.3c-4-4.2-3.9-10.9,0.3-14.9l254-245.5
		c4.2-4,10.9-3.9,14.9,0.3C274.1,250.8,275.1,253.5,275.1,256.1z"/>
	<path class="st0" d="M275.1,256.1c0,2.6-1,5.3-3,7.3c-4,4.2-10.7,4.3-14.9,0.3L3.2,18.2C-1,14.2-1.1,7.5,2.9,3.3S13.6-1,17.8,3
		l254,245.5C274,250.6,275.1,253.3,275.1,256.1z"/>
</g>
</svg>
