<?xml version="1.0" encoding="utf-8"?>
<!-- Generator: Adobe Illustrator 23.0.3, SVG Export Plug-In . SVG Version: 6.00 Build 0)  -->
<svg version="1.1" id="Layer_1" xmlns="http://www.w3.org/2000/svg" xmlns:xlink="http://www.w3.org/1999/xlink" x="0px" y="0px"
	 viewBox="0 0 308.4 315.02" style="enable-background:new 0 0 308.4 315.02;" xml:space="preserve">
<style type="text/css">
	.st0{fill:#FFFFFF;}
	.st1{fill:#EA4335;}
	.st2{fill:#FBBC05;}
	.st3{fill:#4285F4;}
	.st4{fill:#34A853;}
</style>
<g>
	<path class="st0" d="M105.59,8.45C67.7,21.76,34.93,50.43,16.5,86.27c-6.14,12.29-11.26,25.6-13.31,39.94
		C-3.98,160,1.14,196.86,16.5,227.58c10.24,20.48,24.58,37.89,43.01,52.22c16.38,13.31,35.84,23.55,57.34,28.67
		c26.62,7.17,54.27,7.17,79.87,1.02c23.55-5.12,46.08-16.38,64.51-33.79c19.46-17.41,32.77-39.94,39.94-65.54
		c8.19-26.62,9.22-55.3,4.1-82.94c-49.15,0-98.3,0-147.46,0c0,20.48,0,40.96,0,61.44c28.67,0,57.34,0,84.99,0
		c-3.07,19.46-15.36,37.89-31.74,48.13c-10.24,7.17-22.53,11.26-34.82,13.31c-12.29,2.05-25.6,2.05-37.89,0
		c-12.29-2.05-24.58-8.19-34.82-15.36c-16.38-11.26-29.7-28.67-35.84-48.13c-7.17-19.46-7.17-40.96,0-61.44
		c5.12-13.31,12.29-26.62,22.53-36.86c12.29-13.31,28.67-22.53,47.1-25.6c15.36-3.07,30.72-3.07,46.08,2.05
		c12.29,4.1,24.58,11.26,33.79,19.46c9.22-9.22,19.46-19.46,28.67-28.67c5.12-5.12,10.24-10.24,15.36-15.36
		c-14.34-13.31-31.74-24.58-50.18-31.74C177.27-2.82,139.38-2.82,105.59,8.45z"/>
	<path class="st1" d="M105.59,8.45c33.79-11.26,71.68-11.26,105.47,1.02c18.43,7.17,35.84,17.41,50.18,31.74
		c-5.12,5.12-10.24,10.24-15.36,15.36c-9.22,9.22-19.46,19.46-28.67,28.67c-9.22-9.22-21.5-16.38-33.79-19.46
		c-14.34-4.1-30.72-5.12-46.08-2.05c-17.41,4.1-33.79,13.31-47.1,25.6C79.99,99.58,71.8,112.9,67.7,126.21
		C50.29,112.9,33.91,99.58,16.5,86.27C34.93,50.43,67.7,21.76,105.59,8.45z"/>
	<path class="st2" d="M3.19,126.21c3.07-13.31,7.17-26.62,13.31-39.94c17.41,13.31,33.79,26.62,51.2,39.94
		c-7.17,19.46-7.17,40.96,0,61.44c-17.41,13.31-33.79,26.62-51.2,39.94C1.14,195.84-3.98,160,3.19,126.21z"/>
	<path class="st3" d="M156.79,127.23c49.15,0,98.3,0,147.46,0c5.12,27.65,4.1,56.32-4.1,82.94c-7.17,24.58-20.48,47.1-39.94,65.54
		c-16.38-13.31-32.77-25.6-50.18-38.91c16.38-11.26,27.65-28.67,31.74-48.13c-28.67,0-57.34,0-84.99,0
		C156.79,168.19,156.79,147.71,156.79,127.23z"/>
	<path class="st4" d="M16.5,227.58c17.41-13.31,33.79-26.62,51.2-39.94c6.14,19.46,19.46,36.86,35.84,48.13
		c10.24,7.17,22.53,12.29,34.82,15.36c12.29,2.05,24.58,2.05,37.89,0c12.29-2.05,24.58-7.17,34.82-13.31
		c16.38,13.31,32.77,25.6,50.18,38.91c-18.43,16.38-39.94,27.65-64.51,33.79c-26.62,6.14-54.27,6.14-79.87-1.02
		c-20.48-5.12-39.94-15.36-57.34-28.67C42.1,265.47,26.74,247.04,16.5,227.58z"/>
</g>
</svg>
