<?xml version="1.0" encoding="utf-8"?>
<!-- Generator: Adobe Illustrator 23.0.3, SVG Export Plug-In . SVG Version: 6.00 Build 0)  -->
<svg version="1.1" id="Layer_1" xmlns="http://www.w3.org/2000/svg" xmlns:xlink="http://www.w3.org/1999/xlink" x="0px" y="0px"
	 viewBox="0 0 35.9 24.5" style="enable-background:new 0 0 35.9 24.5;" xml:space="preserve" width="35.9" height="24.5">
<style type="text/css">
	.st0{fill:#383041;}
</style>
<g id="Group_19" transform="translate(-3289 -20120.564)">
	<path id="Fill_2080" class="st0" d="M3324.5,20145.1c0,0-0.1,0-0.1,0l-17.9-5.4l-15.2,4.6c-0.2,0.1-0.3,0.1-0.5,0.1
		c-0.4,0-0.7-0.1-1-0.4c-0.4-0.4-0.7-1-0.6-1.5v-14.4c0-1.2,0.8-2.4,1.9-2.8l15.3-4.7l0.1,0h0.1c0,0,0.1,0,0.1,0h0l11.8,3.6
		c0,0,0.1,0,0.1,0.1h0c0,0,0.1,0.1,0.1,0.1l6.3,9l0,0l0,0.1l-0.1,0.1l0.1,0v0c0,0,0,0.1,0,0.1v11c0,0.1-0.1,0.3-0.2,0.4
		C3324.6,20145,3324.6,20145.1,3324.5,20145.1z M3306.8,20136.8v2l17.2,5.2v-10l-6-1.8c-0.2-0.1-0.3-0.3-0.3-0.5v-3.8l-11-3.3v11.2
		l14.7,4.5v-4.7c0-0.2,0.1-0.4,0.4-0.5c0.2,0,0.4,0.1,0.5,0.4c0,0,0,0.1,0,0.1v5.3c0,0.1-0.1,0.3-0.2,0.4c-0.1,0.1-0.2,0.1-0.3,0.1
		c0,0-0.1,0-0.1,0L3306.8,20136.8z M3306,20129.5l-16.1,4.9v8.1c0,0.3,0.1,0.6,0.3,0.8c0.1,0.1,0.3,0.2,0.5,0.2c0.1,0,0.2,0,0.3,0
		l15-4.6V20129.5z M3306,20125.5l-16.1,4.9v3l16.1-4.9V20125.5z M3318.6,20126v5.4l4.7,1.4L3318.6,20126z M3306,20121.6l-14.8,4.5
		c-0.8,0.3-1.3,1.1-1.3,1.9v1.3l16.1-4.9V20121.6z M3306.8,20121.6v2l11,3.3v-2L3306.8,20121.6z"/>
	<path id="Fill_2088" class="st0" d="M3315.3,20135.5c-0.2,0-0.4,0-0.6-0.1l-0.7-0.2c-0.1,0-0.2-0.1-0.3-0.2
		c-0.1-0.1-0.1-0.2-0.1-0.4v-4.5c0-0.1,0-0.2,0.1-0.3c0,0,0.1-0.1,0.2-0.1c0,0,0.1,0,0.1,0l0.3,0.1l0.3,0.1c0.3,0.1,0.6,0.2,0.8,0.4
		c0.2,0.2,0.4,0.4,0.5,0.6c0.1,0.2,0.2,0.5,0.3,0.7c0.1,0.3,0.1,0.5,0.1,0.8v1.4c0,0.3,0,0.5-0.1,0.7c-0.1,0.2-0.1,0.4-0.3,0.6
		c-0.1,0.2-0.3,0.3-0.5,0.3C3315.5,20135.5,3315.4,20135.5,3315.3,20135.5z M3314.3,20130.7v3.8l0.5,0.1c0.1,0,0.2,0.1,0.3,0.1
		c0,0,0.1,0,0.1,0c0.1,0,0.2-0.1,0.3-0.2c0.1-0.1,0.1-0.2,0.2-0.3c0-0.2,0.1-0.3,0.1-0.5v-1.4c0-0.2,0-0.3-0.1-0.5
		c0-0.2-0.1-0.3-0.2-0.4c-0.1-0.1-0.2-0.2-0.3-0.3c-0.1-0.1-0.3-0.2-0.5-0.2L3314.3,20130.7z M3312.9,20134.9
		C3312.8,20134.9,3312.8,20134.9,3312.9,20134.9l-0.9-0.3l-0.8-0.2c-0.1,0-0.2-0.1-0.3-0.2c-0.1-0.1-0.2-0.3-0.1-0.4v-4.5
		c0-0.1,0-0.2,0.1-0.3c0,0,0.1-0.1,0.2-0.1c0,0,0.1,0,0.1,0l0.7,0.2l0,0l0.6,0.2l0.3,0.1c0.1,0,0.2,0.1,0.2,0.2
		c0.1,0.1,0.1,0.2,0.1,0.3c0,0.1,0,0.2-0.1,0.2c0,0-0.1,0.1-0.1,0.1c0,0-0.1,0-0.1,0l-0.3-0.1l-0.4-0.1l-0.1,0l-0.6-0.2v1.5l0.3,0.1
		l0.9,0.3c0.1,0,0.2,0.1,0.2,0.2c0.1,0.1,0.1,0.2,0.1,0.3c0,0.1,0,0.2-0.1,0.3c0,0-0.1,0.1-0.1,0.1c0,0-0.1,0-0.1,0l-1.2-0.4v1.5
		l1,0.3l0.4,0.1c0.1,0,0.2,0.1,0.2,0.2c0.1,0.1,0.1,0.2,0.1,0.3c0,0.1,0,0.2-0.1,0.3C3313,20134.8,3312.9,20134.9,3312.9,20134.9z
		 M3310,20134.1c0,0-0.1,0-0.1,0c-0.1,0-0.2-0.1-0.2-0.2c-0.1-0.1-0.1-0.2-0.1-0.4l-0.1-0.3l-0.1-0.5l-0.5-0.2l0,0l-0.2-0.1
		l-0.2-0.1l-0.1,0l-0.4-0.1l-0.1,0.2l-0.2,0.6c0,0.1-0.1,0.1-0.1,0.2c0,0-0.1,0-0.1,0c0,0,0,0-0.1,0c-0.1,0-0.2-0.1-0.2-0.2
		c-0.1-0.1-0.1-0.2-0.1-0.3c0,0,0,0,0-0.1c0,0,0,0,0-0.1c0.5-1.7,0.7-2.5,1.2-4.2c0-0.1,0.1-0.2,0.1-0.3c0,0,0.1-0.1,0.2-0.1
		c0,0,0.1,0,0.1,0c0.1,0,0.2,0.1,0.3,0.2c0.1,0.1,0.1,0.2,0.1,0.4c0.1,0.4,0.2,0.7,0.2,1l0.1,0.5v0l0.1,0.4l0.2,0.9l0,0l0.5,2
		c0,0,0,0,0,0.1v0c0,0,0,0,0,0.1c0,0.1,0,0.2-0.1,0.3C3310.1,20134.1,3310,20134.1,3310,20134.1L3310,20134.1z M3308.6,20129.4
		L3308.6,20129.4c0,0.1,0,0.1,0,0.2l0,0.1l0,0.1c-0.1,0.3-0.1,0.6-0.2,0.8l-0.1,0.4l-0.1,0.2l0,0l-0.1,0.5l0.2,0.1l0.1,0l0.1,0h0
		l0.1,0l0.4,0.1c-0.1-0.4-0.2-0.8-0.3-1.2C3308.8,20130.4,3308.7,20130,3308.6,20129.4L3308.6,20129.4L3308.6,20129.4
		L3308.6,20129.4z"/>
</g>
<path id="Fill_2100_1_" class="st0" d="M9.1,18.3C9,18.2,8.9,18,8.8,17.8l-2.1-4.6L4.4,14l2.4,5.1c0.6,1.1,1.6,0.8,2.7,0.4
	c2-0.6,3.4-1,2.9-2.6l-2-4.8l-2.5,0.8l2.2,5c0.1,0.2,0,0.3-0.1,0.4C9.3,18.6,9.1,18.3,9.1,18.3z"/>
</svg>
