<?xml version="1.0" encoding="utf-8"?>
<!-- Generator: Adobe Illustrator 23.0.3, SVG Export Plug-In . SVG Version: 6.00 Build 0)  -->
<svg version="1.1" id="Layer_1" xmlns="http://www.w3.org/2000/svg" xmlns:xlink="http://www.w3.org/1999/xlink" x="0px" y="0px"
	 viewBox="0 0 160 100" style="enable-background:new 0 0 160 100;" xml:space="preserve">
<style type="text/css">
	.st0{fill:#F6F6F6;}
	.st1{fill:#265697;}
	.st2{fill:#D97B16;}
</style>
<g id="Page-1">
	<g id="Visa">
		<rect id="Rectangle-20" y="9" class="st0" width="160" height="80"/>
		<path id="Rectangle-1" class="st1" d="M148,0C140,0,55.3,0,8,0C4,0,0,4,0,8v12h160c0,0,0,18.57,0-8C160,4,156,0,148,0z"/>
		<path id="Rectangle-1_1_" class="st2" d="M0,80c0,0,0,0,0,8c0,8,4,12,12,12c44.62,0,128,0,136,0s12-4,12-12v-8H0z"/>
		<path id="Shape" class="st1" d="M105.22,33.84c-1.79-0.69-4.6-1.42-8.1-1.42c-8.93,0-15.22,4.59-15.27,11.18
			c-0.05,4.87,4.49,7.58,7.92,9.2c3.52,1.66,4.7,2.72,4.68,4.2c-0.02,2.27-2.81,3.31-5.41,3.31c-3.62,0-5.54-0.51-8.51-1.78
			l-1.16-0.54l-1.27,7.58c2.11,0.95,6.01,1.76,10.07,1.81c9.5,0,15.67-4.54,15.74-11.57c0.03-3.85-2.37-6.79-7.59-9.2
			c-3.16-1.57-5.09-2.61-5.07-4.2c0-1.41,1.64-2.91,5.17-2.91c2.96-0.05,5.1,0.61,6.76,1.3l0.81,0.39L105.22,33.84"/>
		<path id="Shape_1_" class="st1" d="M128.39,33.04h-6.98c-2.16,0-3.78,0.6-4.73,2.81l-13.42,31.04h9.49c0,0,1.55-4.17,1.9-5.09
			c1.04,0,10.26,0.01,11.57,0.01c0.27,1.19,1.1,5.08,1.1,5.08h8.38L128.39,33.04L128.39,33.04z M117.25,54.87
			c0.75-1.95,3.6-9.47,3.6-9.47c-0.05,0.09,0.74-1.96,1.2-3.23l0.61,2.92c0,0,1.73,8.09,2.09,9.78L117.25,54.87L117.25,54.87
			L117.25,54.87L117.25,54.87z"/>
		<path id="Shape_2_" class="st1" d="M63.41,66.88L69.06,33h9.04l-5.65,33.88H63.41z"/>
		<path id="Shape_3_" class="st1" d="M55.83,33.03l-8.85,23.1l-0.94-4.69c-1.65-5.41-6.78-11.27-12.51-14.21l8.09,29.63l9.56-0.01
			l14.23-33.81H55.83"/>
		<path id="Shape_4_" class="st2" d="M38.78,33.01H24.21l-0.12,0.7c11.34,2.8,18.84,9.58,21.95,17.72l-3.17-15.57
			C42.33,33.72,40.74,33.08,38.78,33.01"/>
	</g>
</g>
</svg>
