<?xml version="1.0" encoding="utf-8"?>
<!-- Generator: Adobe Illustrator 23.0.3, SVG Export Plug-In . SVG Version: 6.00 Build 0)  -->
<svg version="1.1" id="Layer_1" xmlns="http://www.w3.org/2000/svg" xmlns:xlink="http://www.w3.org/1999/xlink" x="0px" y="0px"
	 viewBox="0 0 88.18 88.18" style="enable-background:new 0 0 88.18 88.18;" xml:space="preserve">
<style type="text/css">
	.st0{fill:#CACACA;}
	.st1{fill:#FFFFFF;}
	.st2{fill:none;stroke:#FFFFFF;stroke-width:3;stroke-miterlimit:10;}
</style>
<g>
	
		<ellipse transform="matrix(0.7071 -0.7071 0.7071 0.7071 -18.2622 44.0887)" class="st0" cx="44.09" cy="44.09" rx="44.09" ry="44.09"/>
	<path class="st1" d="M59.49,47.64C54.04,31.3,44.11,17.87,44.11,17.87s-9.92,14.01-15.37,29.77c-4.74,13.71,6.23,22.76,15.37,22.76
		C53.26,70.41,64.07,61.4,59.49,47.64z M41.36,63.97c-0.34,0.67-1.02,1.06-1.72,1.06c-0.29,0-0.58-0.07-0.86-0.2
		c-6.09-3.05-6.85-8.25-6.88-8.47c-0.14-1.05,0.6-2.02,1.65-2.16c1.04-0.13,2.01,0.59,2.16,1.63c0.03,0.18,0.62,3.47,4.79,5.56
		C41.45,61.87,41.83,63.02,41.36,63.97z"/>
</g>
<g>
	<circle class="st2" cx="44.01" cy="44.08" r="37.68"/>
	<line class="st2" x1="51.42" y1="37.67" x2="71.47" y2="18.87"/>
	<line class="st2" x1="15.98" y1="70.37" x2="30.21" y2="57.3"/>
</g>
</svg>
