<?xml version="1.0" encoding="utf-8"?>
<!-- Generator: Adobe Illustrator 23.0.1, SVG Export Plug-In . SVG Version: 6.00 Build 0)  -->
<svg version="1.1" id="Layer_1" xmlns="http://www.w3.org/2000/svg" xmlns:xlink="http://www.w3.org/1999/xlink" x="0px" y="0px"
	 viewBox="0 0 62.9 87.83" style="enable-background:new 0 0 62.9 87.83;" xml:space="preserve">
<style type="text/css">
	.st0{fill:#6E3996;}
</style>
<g>
	<path class="st0" d="M31.6,87.83L31.6,87.83c-1.6,0-3-0.8-3.8-2.1l-22-36.3C2,44.13,0,37.83,0,31.23c0-17,13.3-30.8,30.3-31.4
		c8.8-0.3,17.1,3,23.4,9.3c6,6,9.2,13.9,9.2,22.3c0,6.4-2,12.6-5.6,17.8l-21.9,36.5C34.6,87.03,33.2,87.83,31.6,87.83z M31.4,2.83
		c-0.3,0-0.7,0-1,0C15,3.43,3,15.83,3,31.23c0,5.9,1.8,11.6,5.3,16.5l0.1,0.1l22,36.3c0.4,0.6,1,0.7,1.2,0.7l0,0
		c0.2,0,0.8-0.1,1.2-0.7l21.8-36.5l0.1-0.1c3.3-4.7,5.1-10.3,5.1-16.1c0-7.6-2.9-14.7-8.3-20.1C46.1,5.83,38.9,2.83,31.4,2.83z
		 M31.4,43.63c-7.1,0-12.8-5.7-12.8-12.8s5.7-12.8,12.8-12.8s12.8,5.8,12.8,12.8C44.2,37.93,38.5,43.63,31.4,43.63z M31.4,21.03
		c-5.4,0-9.8,4.4-9.8,9.8s4.4,9.8,9.8,9.8s9.8-4.4,9.8-9.8S36.8,21.03,31.4,21.03z"/>
</g>
</svg>
