<?xml version="1.0" encoding="utf-8"?>
<!-- Generator: Adobe Illustrator 23.0.3, SVG Export Plug-In . SVG Version: 6.00 Build 0)  -->
<svg version="1.1" id="Layer_1" xmlns="http://www.w3.org/2000/svg" xmlns:xlink="http://www.w3.org/1999/xlink" x="0px" y="0px"
	 viewBox="0 0 88.18 88.18" style="enable-background:new 0 0 88.18 88.18;" xml:space="preserve">
<style type="text/css">
	.st0{fill:#CACACA;}
	.st1{fill:#FFFFFF;}
	.st2{fill:none;stroke:#FFFFFF;stroke-width:3;stroke-miterlimit:10;}
</style>
<g>
	
		<ellipse transform="matrix(0.7071 -0.7071 0.7071 0.7071 -18.2622 44.0887)" class="st0" cx="44.09" cy="44.09" rx="44.09" ry="44.09"/>
	<g>
		<g>
			<polygon class="st1" points="32.18,24.58 32.18,38.4 42.81,43.83 42.81,30.42 			"/>
			<polygon class="st1" points="56.26,24.66 44.95,30.45 44.95,44.19 56.26,38.4 			"/>
			<polygon class="st1" points="54.73,23.05 44.33,17.85 33.78,23.03 43.9,28.59 			"/>
		</g>
		<g>
			<polygon class="st1" points="45.23,46.95 45.23,60.77 55.86,66.2 55.86,52.79 			"/>
			<polygon class="st1" points="69.31,47.02 57.99,52.81 57.99,66.56 69.31,60.77 			"/>
			<polygon class="st1" points="67.78,45.42 57.38,40.22 46.83,45.4 56.95,50.96 			"/>
		</g>
		<g>
			<polygon class="st1" points="18.87,46.95 18.87,60.77 29.5,66.2 29.5,52.79 			"/>
			<polygon class="st1" points="42.95,47.02 31.63,52.81 31.63,66.56 42.95,60.77 			"/>
			<polygon class="st1" points="41.42,45.42 31.02,40.22 20.47,45.4 30.58,50.96 			"/>
		</g>
	</g>
</g>
<g>
	<circle class="st2" cx="44.09" cy="44.09" r="37.68"/>
	<line class="st2" x1="51.51" y1="37.68" x2="71.55" y2="18.87"/>
	<line class="st2" x1="16.06" y1="70.38" x2="27.92" y2="59.49"/>
</g>
</svg>
