<?xml version="1.0" encoding="utf-8"?>
<!-- Generator: Adobe Illustrator 23.0.3, SVG Export Plug-In . SVG Version: 6.00 Build 0)  -->
<svg version="1.1" id="Layer_1" xmlns="http://www.w3.org/2000/svg" xmlns:xlink="http://www.w3.org/1999/xlink" x="0px" y="0px"
	 viewBox="0 0 88.18 88.18" style="enable-background:new 0 0 88.18 88.18;" xml:space="preserve">
<style type="text/css">
	.st0{fill:#CACACA;}
	.st1{fill:#FFFFFF;}
	.st2{fill:none;stroke:#FFFFFF;stroke-width:3;stroke-miterlimit:10;}
</style>
<g>
	
		<ellipse transform="matrix(0.7071 -0.7071 0.7071 0.7071 -18.2622 44.0887)" class="st0" cx="44.09" cy="44.09" rx="44.09" ry="44.09"/>
	<g>
		<path class="st1" d="M43.65,70.89c0,0-8.61,0.84-13.85-3.98c-5.24-4.82-5.13-13.47-5.13-13.47s8.61-0.84,13.85,3.98
			C43.77,62.23,43.65,70.89,43.65,70.89z"/>
		<path class="st1" d="M44.53,70.89c0,0,8.61,0.84,13.85-3.98c5.24-4.82,5.13-13.47,5.13-13.47s-8.61-0.84-13.85,3.98
			C44.41,62.23,44.53,70.89,44.53,70.89z"/>
		<path class="st1" d="M43.79,41.45c0,0-5.9,0.58-9.5-2.73c-3.59-3.3-3.52-9.23-3.52-9.23s5.9-0.57,9.5,2.73
			C43.87,35.52,43.79,41.45,43.79,41.45z"/>
		<path class="st1" d="M44.39,41.45c0,0,5.9,0.58,9.5-2.73c3.59-3.3,3.52-9.23,3.52-9.23s-5.9-0.57-9.5,2.73
			C44.31,35.52,44.39,41.45,44.39,41.45z"/>
		<path class="st1" d="M43.75,54.83c0,0-6.72,0.65-10.81-3.11c-4.09-3.76-4-10.51-4-10.51s6.72-0.65,10.81,3.11
			C43.84,48.08,43.75,54.83,43.75,54.83z"/>
		<path class="st1" d="M44.43,54.83c0,0,6.72,0.65,10.81-3.11c4.09-3.76,4-10.51,4-10.51s-6.72-0.65-10.81,3.11
			C44.34,48.08,44.43,54.83,44.43,54.83z"/>
		<path class="st1" d="M43.58,33.74c0,0,4.41-3.96,4.41-8.84c-0.01-4.88-4.43-8.83-4.43-8.83s-4.41,3.96-4.41,8.84
			C39.16,29.79,43.58,33.74,43.58,33.74z"/>
	</g>
</g>
<circle class="st2" cx="44.19" cy="44.09" r="37.68"/>
<line class="st2" x1="54.51" y1="34.79" x2="71.66" y2="18.87"/>
<line class="st2" x1="16.16" y1="70.38" x2="28.91" y2="58.55"/>
</svg>
