<?xml version="1.0" encoding="utf-8"?>
<!-- Generator: Adobe Illustrator 23.0.3, SVG Export Plug-In . SVG Version: 6.00 Build 0)  -->
<svg version="1.1" id="Layer_1" xmlns="http://www.w3.org/2000/svg" xmlns:xlink="http://www.w3.org/1999/xlink" x="0px" y="0px"
	 viewBox="-351.71 -219.23 356.44 141.39" style="enable-background:new -351.71 -219.23 356.44 141.39;" xml:space="preserve">
<style type="text/css">
	.st0{fill:#5F6368;}
	.st1{fill:#4285F4;}
	.st2{fill:#34A853;}
	.st3{fill:#FABB05;}
	.st4{fill:#E94235;}
</style>
<g id="GPay-Light-themed-buttons">
	<g id="GPAY---SVGs" transform="translate(-185.000000, -400.000000)">
		<g id="GPay-Brand-Mark" transform="translate(185.000000, 400.000000)">
			<g id="GPay" transform="translate(0.261474, 0.261474)">
				<g id="Pay" transform="translate(17.615069, 0.825706)">
					<path id="Fill-1" class="st0" d="M-201.01-199.55v35.73h22.04c5.25,0,9.59-1.76,13.02-5.29c3.53-3.52,5.29-7.72,5.29-12.58
						c0-4.76-1.76-8.91-5.29-12.44c-3.44-3.62-7.78-5.43-13.02-5.43L-201.01-199.55L-201.01-199.55z M-201.01-151.24v41.45h-13.16
						v-102.34h34.91c8.87,0,16.39,2.96,22.6,8.86c6.31,5.9,9.45,13.1,9.45,21.58c0,8.67-3.14,15.92-9.45,21.72
						c-6.1,5.82-13.64,8.72-22.6,8.72L-201.01-151.24L-201.01-151.24z"/>
					<path id="Fill-3" class="st0" d="M-133.91-131.23c0,3.44,1.45,6.29,4.37,8.58c2.91,2.28,6.32,3.43,10.23,3.43
						c5.54,0,10.46-2.05,14.8-6.14c4.34-4.1,6.51-8.91,6.51-14.43c-4.1-3.25-9.83-4.86-17.17-4.86c-5.34,0-9.8,1.29-13.37,3.86
						C-132.11-138.22-133.91-135.04-133.91-131.23 M-116.88-182.11c9.73,0,17.41,2.59,23.04,7.79c5.63,5.2,8.43,12.31,8.43,21.36
						v43.17h-12.59v-9.72h-0.57c-5.44,8-12.68,12-21.74,12c-7.73,0-14.2-2.28-19.39-6.85c-5.2-4.58-7.8-10.29-7.8-17.16
						c0-7.24,2.73-13,8.22-17.28c5.49-4.29,12.81-6.43,21.96-6.43c7.82,0,14.26,1.43,19.31,4.29v-3c0-4.57-1.81-8.45-5.43-11.64
						c-3.63-3.2-7.86-4.79-12.73-4.79c-7.35,0-13.16,3.09-17.45,9.29l-11.6-7.29C-138.81-177.54-129.38-182.11-116.88-182.11"/>
					<g id="Group-7" transform="translate(15.084923, 3.759447)">
						<polygon id="Fill-5" class="st0" points="-28.23,-183.58 -72.17,-82.68 -85.75,-82.68 -69.44,-117.99 -98.34,-183.58 
							-84.03,-183.58 -63.14,-133.27 -62.86,-133.27 -42.55,-183.58 						"/>
					</g>
				</g>
				<g id="G">
					<path id="Fill-8" class="st1" d="M-236.58-159.35c0-4.14-0.35-8.14-1.01-11.96h-55.51v22.65h31.79
						c-1.36,7.38-5.49,13.66-11.75,17.87v14.71h18.98C-242.98-126.32-236.58-141.46-236.58-159.35"/>
					<path id="Fill-10" class="st2" d="M-293.11-101.88c15.89,0,29.26-5.21,39.02-14.2l-18.98-14.71
						c-5.28,3.55-12.08,5.63-20.04,5.63c-15.35,0-28.38-10.34-33.05-24.27h-19.55v15.15C-336.02-115.07-316.1-101.88-293.11-101.88"
						/>
					<path id="Fill-12" class="st3" d="M-326.15-149.43c-1.19-3.55-1.85-7.34-1.85-11.25c0-3.91,0.65-7.7,1.85-11.25v-15.15h-19.55
						c-4,7.94-6.27,16.9-6.27,26.4c0,9.5,2.26,18.47,6.27,26.4L-326.15-149.43z"/>
					<path id="Fill-14" class="st4" d="M-293.11-196.21c8.67,0,16.45,2.98,22.58,8.82v0.01l16.8-16.78
						c-10.2-9.49-23.51-15.32-39.38-15.32c-23,0-42.91,13.19-52.6,32.4l19.55,15.15C-321.49-185.88-308.46-196.21-293.11-196.21"/>
				</g>
			</g>
		</g>
	</g>
</g>
</svg>
