<?xml version="1.0" encoding="utf-8"?>
<!-- Generator: Adobe Illustrator 23.0.3, SVG Export Plug-In . SVG Version: 6.00 Build 0)  -->
<svg version="1.1" id="Layer_1" xmlns="http://www.w3.org/2000/svg" xmlns:xlink="http://www.w3.org/1999/xlink" x="0px" y="0px"
	 viewBox="0 0 326.98 279.79" style="enable-background:new 0 0 326.98 279.79;" xml:space="preserve">
<style type="text/css">
	.st0{fill:#FFFFFF;}
</style>
<text transform="matrix(1 0 0 1 683 384)" style="font-family:'ArialMT'; font-size:12px;">icon-heart--outline.svg</text>
<path class="st0" d="M300.15,26.95C264.24-8.97,205.73-8.98,169.7,26.96l-6.18,6.25l-6.26-6.26C121.32-8.99,62.85-8.98,26.92,26.94
	C9.56,44.21,0,67.38,0,92.17s9.56,47.96,26.92,65.21l129.44,119.44c1.91,1.92,4.46,2.98,7.18,2.98h0.01c2.71,0,5.26-1.05,7.18-2.98
	l120.52-110.59l8.92-8.83c17.3-17.29,26.83-40.46,26.83-65.22S317.45,44.24,300.15,26.95z M41.38,125.22
	c-0.58,0.1-1.11,0.15-1.63,0.15c-4.19,0-7.8-2.99-8.57-7.1c-0.97-5.09-1.46-10.33-1.46-15.55c0-4.81,3.92-8.73,8.73-8.73
	s8.73,3.92,8.73,8.73c0,4.12,0.39,8.26,1.15,12.3C49.23,119.74,46.11,124.32,41.38,125.22z M105.51,34.97
	c-1.31,1.93-3.3,3.24-5.59,3.67c-12.81,2.46-24.46,8.63-33.67,17.83c-6.87,6.84-11.99,14.91-15.24,24.01
	c-1.24,3.47-4.54,5.8-8.22,5.8c-1,0-1.98-0.17-2.91-0.49c-4.57-1.64-6.93-6.65-5.31-11.17c4.12-11.57,10.64-21.84,19.35-30.51
	c11.68-11.67,26.45-19.5,42.72-22.62l0.1-0.02c0.49-0.08,1-0.13,1.5-0.13c4.22,0,7.85,2.98,8.63,7.08
	C107.3,30.71,106.82,33.04,105.51,34.97z"/>
</svg>
