<?xml version="1.0" encoding="utf-8"?>
<!-- Generator: Adobe Illustrator 23.0.1, SVG Export Plug-In . SVG Version: 6.00 Build 0)  -->
<svg version="1.1" id="Capa_1" xmlns="http://www.w3.org/2000/svg" xmlns:xlink="http://www.w3.org/1999/xlink" x="0px" y="0px"
	 viewBox="0 0 471.2 436.7" style="enable-background:new 0 0 471.2 436.7;" xml:space="preserve">
<g>
	<g>
		<path d="M457.7,212.9c-7.5,0-13.5,6-13.5,13.5v122.8c0,33.4-27.2,60.5-60.5,60.5H87.5c-33.4,0-60.5-27.2-60.5-60.5V224.4
			c0-7.5-6-13.5-13.5-13.5S0,216.9,0,224.4v124.8c0,48.3,39.3,87.5,87.5,87.5h296.2c48.3,0,87.5-39.3,87.5-87.5V226.4
			C471.2,219,465.2,212.9,457.7,212.9z"/>
		<path d="M226.1,329.5c2.6,2.6,6.1,4,9.5,4s6.9-1.3,9.5-4l85.8-85.8c5.3-5.3,5.3-13.8,0-19.1s-13.8-5.3-19.1,0l-62.7,62.8V13.5
			c0-7.5-6-13.5-13.5-13.5s-13.5,6-13.5,13.5v273.9l-62.8-62.8c-5.3-5.3-13.8-5.3-19.1,0s-5.3,13.8,0,19.1L226.1,329.5z"/>
	</g>
</g>
</svg>
