<?xml version="1.0" encoding="utf-8"?>
<!-- Generator: Adobe Illustrator 22.1.0, SVG Export Plug-In . SVG Version: 6.00 Build 0)  -->
<svg version="1.1" id="Layer_1" xmlns="http://www.w3.org/2000/svg" xmlns:xlink="http://www.w3.org/1999/xlink" x="0px" y="0px"
	 viewBox="0 0 36.9 51.4" style="enable-background:new 0 0 36.9 51.4;" xml:space="preserve">
<style type="text/css">
	.st0{fill:#373737;}
</style>
<path class="st0" d="M27.6,51.3c0.6,0,1-0.4,1-1v-2.8h2.8c3,0,5.5-2.4,5.5-5.5v-8.6c0-2-1.1-3.8-2.8-4.7V9.9c0-5-4.1-9.1-9.1-9.1
	H11.9c-5,0-9.1,4.1-9.1,9.1V29C1.1,29.9,0,31.7,0,33.8v8.6c0,3,2.4,5.5,5.5,5.5h2.8v2.5c0,0.6,0.4,1,1,1s1-0.4,1-1v-2.5l16.3-0.2
	v2.7C26.6,50.8,27.1,51.3,27.6,51.3z M11.9,2.8H25c3.6,0,6.6,2.8,7,6.3c-8.2-5.7-18.9-5.7-27.2,0C5.3,5.6,8.3,2.8,11.9,2.8z
	 M4.9,10.4c8.1-6,19.1-6,27.2,0v17.7c-0.2,0-0.5-0.1-0.7-0.1L5.5,28.3c-0.2,0-0.4,0-0.6,0V10.4z M5.5,45.8c-1.9,0-3.5-1.6-3.5-3.5
	v-8.6c0-1.9,1.6-3.5,3.5-3.5l0,0l25.9-0.3c1.9,0,3.5,1.6,3.5,3.5V42c0,1.9-1.6,3.5-3.5,3.5L5.5,45.8z"/>
</svg>
