<?xml version="1.0" encoding="utf-8"?>
<!-- Generator: Adobe Illustrator 22.1.0, SVG Export Plug-In . SVG Version: 6.00 Build 0)  -->
<svg version="1.1" id="Layer_1" xmlns="http://www.w3.org/2000/svg" xmlns:xlink="http://www.w3.org/1999/xlink" x="0px" y="0px"
	 viewBox="0 0 44 31" style="enable-background:new 0 0 44 31;" xml:space="preserve">
<style type="text/css">
	.st0{fill:#373737;}
</style>
<path class="st0" d="M41.6,31H2.4C1.1,31,0,29.9,0,28.6V2.4C0,1.1,1.1,0,2.4,0h39.3C42.9,0,44,1.1,44,2.4v26.3
	C44,29.9,42.9,31,41.6,31z M2.4,2C2.2,2,2,2.2,2,2.4v26.3C2,28.8,2.2,29,2.4,29h39.3c0.2,0,0.4-0.2,0.4-0.4V2.4
	C42,2.2,41.8,2,41.6,2H2.4z M19,20.5c0,0.5,0.5,0.7,1,0.4l6.8-5c0.4-0.3,0.4-0.9,0-1.2l-6.7-5c-0.4-0.3-1-0.1-1,0.4V20.5z"/>
</svg>
