<?xml version="1.0" encoding="utf-8"?>
<!-- Generator: Adobe Illustrator 23.0.1, SVG Export Plug-In . SVG Version: 6.00 Build 0)  -->
<svg version="1.1" id="Layer_1" xmlns="http://www.w3.org/2000/svg" xmlns:xlink="http://www.w3.org/1999/xlink" x="0px" y="0px"
	 viewBox="0 0 512 290.2" style="enable-background:new 0 0 512 290.2;" xml:space="preserve">
<g>
	<g>
		<path d="M503.7,121c-28.7-36.8-66-67.3-107.6-88.1C353.5,11.6,307.7,0.6,260,0c-1.3,0-6.6,0-7.9,0c-47.8,0.6-93.6,11.6-136.1,32.8
			C74.3,53.7,37,84.2,8.3,121c-11.1,14.2-11.1,34,0,48.2c28.7,36.8,66,67.3,107.6,88.1c42.5,21.2,88.3,32.3,136.1,32.8
			c1.3,0,6.6,0,7.9,0c47.8-0.6,93.6-11.6,136.1-32.8c41.7-20.8,78.9-51.3,107.6-88.1C514.8,155,514.8,135.2,503.7,121z M125.2,238.7
			c-38.9-19.4-73.7-47.9-100.5-82.3c-5.2-6.7-5.2-15.9,0-22.6c26.8-34.4,61.6-62.9,100.5-82.3c11.1-5.5,22.3-10.3,33.8-14.3
			c-29.6,26.6-48.2,65.1-48.2,107.9c0,42.8,18.6,81.3,48.2,107.9C147.6,249,136.3,244.2,125.2,238.7z M256,269.4
			c-68.5,0-124.3-55.8-124.3-124.3S187.5,20.8,256,20.8s124.3,55.8,124.3,124.3S324.5,269.4,256,269.4z M487.3,156.4
			c-26.8,34.4-61.6,62.9-100.5,82.3c-11,5.5-22.3,10.3-33.8,14.3c29.6-26.6,48.2-65.1,48.2-107.9c0-42.8-18.6-81.4-48.2-107.9
			c11.5,4,22.8,8.8,33.9,14.3c38.9,19.4,73.7,47.9,100.5,82.3C492.5,140.5,492.5,149.7,487.3,156.4z"/>
	</g>
</g>
<g>
	<g>
		<path d="M256,91.9c-29.3,0-53.2,23.9-53.2,53.2s23.9,53.2,53.2,53.2s53.2-23.9,53.2-53.2C309.2,115.8,285.3,91.9,256,91.9z
			 M256,177.5c-17.8,0-32.4-14.5-32.4-32.4c0-17.8,14.5-32.4,32.4-32.4c17.8,0,32.4,14.5,32.4,32.4C288.4,163,273.8,177.5,256,177.5
			z"/>
	</g>
</g>
</svg>
