<?xml version="1.0" encoding="utf-8"?>
<!-- Generator: Adobe Illustrator 23.0.3, SVG Export Plug-In . SVG Version: 6.00 Build 0)  -->
<svg version="1.1" id="Layer_1" xmlns="http://www.w3.org/2000/svg" xmlns:xlink="http://www.w3.org/1999/xlink" x="0px" y="0px"
	 viewBox="0 0 65.9 81.02" style="enable-background:new 0 0 65.9 81.02;" xml:space="preserve">
<style type="text/css">
	.st0{fill:none;stroke:#6E3996;stroke-width:3;stroke-miterlimit:10;}
</style>
<g>
	<path class="st0" d="M55.2,10.82c-6.3-6.3-14.6-9.6-23.4-9.3c-17,0.6-30.3,14.4-30.3,31.4c0,6.6,2,12.9,5.8,18.2l22,26.3
		c0.8,1.3,2.2,2.1,3.8,2.1c1.6,0,3-0.8,3.8-2.1l21.9-26.5c3.6-5.2,5.6-11.4,5.6-17.8C64.4,24.72,61.2,16.82,55.2,10.82z M32.9,45.32
		c-7.1,0-12.8-5.7-12.8-12.8s5.7-12.8,12.8-12.8c7.1,0,12.8,5.8,12.8,12.8C45.7,39.62,40,45.32,32.9,45.32z"/>
</g>
</svg>
