<?xml version="1.0" encoding="utf-8"?>
<!-- Generator: Adobe Illustrator 23.0.3, SVG Export Plug-In . SVG Version: 6.00 Build 0)  -->
<svg version="1.1" id="Layer_1" xmlns="http://www.w3.org/2000/svg" xmlns:xlink="http://www.w3.org/1999/xlink" x="0px" y="0px"
	 viewBox="0 0 401.03 401.03" style="enable-background:new 0 0 401.03 401.03;" xml:space="preserve">
<style type="text/css">
	.st0{fill:#FFFFFF;}
</style>
<path class="st0" d="M200.53,385.04L200.53,385.04C98.78,385.04,16.01,302.26,16,200.51C16,98.77,98.77,16,200.52,16
	s184.52,82.77,184.52,184.51C385.03,302.25,302.27,385.04,200.53,385.04z M200.52,0C89.95,0,0,89.95,0,200.51
	c0.01,110.57,89.96,200.52,200.53,200.52c110.56,0,200.5-89.96,200.5-200.52C401.03,89.95,311.08,0,200.52,0z M283.65,117.38
	c-3.12-3.13-8.19-3.13-11.31,0l-71.82,71.83l-71.82-71.83c-3.12-3.13-8.19-3.13-11.31,0c-3.12,3.12-3.12,8.19,0,11.31l71.82,71.83
	l-71.82,71.83c-3.12,3.12-3.12,8.19,0,11.31c1.56,1.56,3.61,2.34,5.66,2.34s4.09-0.78,5.66-2.34l71.82-71.82l71.82,71.82
	c1.56,1.56,3.61,2.34,5.66,2.34c2.05,0,4.09-0.78,5.66-2.34c3.12-3.12,3.12-8.19,0-11.31l-71.82-71.83l71.82-71.83
	C286.78,125.57,286.78,120.5,283.65,117.38z"/>
</svg>
