<?xml version="1.0" encoding="utf-8"?>
<!-- Generator: Adobe Illustrator 23.0.3, SVG Export Plug-In . SVG Version: 6.00 Build 0)  -->
<svg version="1.1" id="Layer_1" xmlns="http://www.w3.org/2000/svg" xmlns:xlink="http://www.w3.org/1999/xlink" x="0px" y="0px"
	 viewBox="0 0 109.17 50.03" style="enable-background:new 0 0 109.17 50.03;" xml:space="preserve">
<style type="text/css">
	.st0{fill:#303C42;}
</style>
<g>
	<path class="st0" d="M59.38,14.72c5.37,0,9.16,3.71,9.16,9.12S64.71,33,59.25,33h-6.41v9.47h-4.32V14.72H59.38z M52.84,29.38h5.41
		c3.71,0,5.89-2.01,5.89-5.5s-2.14-5.54-5.89-5.54h-5.41V29.38z"/>
	<path class="st0" d="M69.37,36.49c0-3.67,2.84-5.76,7.98-6.11l5.63-0.31v-1.61c0-2.4-1.61-3.71-4.36-3.71
		c-2.27,0-3.93,1.18-4.28,2.97h-3.88c0.13-3.71,3.62-6.41,8.29-6.41c5.1,0,8.38,2.71,8.38,6.81v14.31h-3.97v-3.49h-0.09
		c-1.13,2.27-3.75,3.71-6.59,3.71C72.25,42.68,69.37,40.2,69.37,36.49z M82.99,34.61V33l-5.06,0.35c-2.84,0.17-4.32,1.22-4.32,3.1
		c0,1.79,1.57,2.92,3.97,2.92C80.63,39.32,82.99,37.36,82.99,34.61z"/>
	<path class="st0" d="M91.67,49.93v-3.4c0.31,0.09,0.96,0.09,1.31,0.09c1.96,0,3.1-0.83,3.8-3.05l0.31-1.09l-7.59-20.94h4.49
		l5.37,17.06h0.09l5.37-17.06h4.36l-7.81,21.86c-1.79,5.02-3.75,6.63-8.03,6.63C93.02,50.06,92.02,49.97,91.67,49.93z"/>
</g>
<path class="st0" d="M33,25.78c-0.06-6.14,5.01-9.09,5.24-9.23c-2.85-4.18-7.29-4.75-8.87-4.81c-3.78-0.38-7.37,2.23-9.29,2.23
	c-1.91,0-4.87-2.17-8-2.11c-4.12,0.06-7.92,2.39-10.04,6.08c-4.28,7.43-1.09,18.42,3.08,24.45c2.04,2.94,4.47,6.26,7.66,6.14
	c3.08-0.12,4.24-1.98,7.95-1.98c3.71,0,4.76,1.98,8.01,1.92c3.3-0.06,5.4-3,7.42-5.96c2.34-3.42,3.3-6.73,3.36-6.9
	C39.44,35.57,33.06,33.12,33,25.78L33,25.78z"/>
<path class="st0" d="M26.89,7.75c1.7-2.05,2.83-4.91,2.52-7.75c-2.44,0.1-5.4,1.63-7.15,3.68c-1.57,1.82-2.95,4.72-2.57,7.5
	C22.41,11.39,25.19,9.8,26.89,7.75L26.89,7.75z"/>
</svg>
