<svg xmlns="http://www.w3.org/2000/svg" viewBox="-3291 -20180.564 39.917 20.771">
  <defs>
    <style>
      .cls-1 {
        fill: #383041;
      }
    </style>
  </defs>
  <g id="Group_35" data-name="Group 35" transform="translate(-3291 -20180.564)">
    <g id="Group_4" data-name="Group 4">
      <path id="Fill_2100" data-name="Fill 2100" class="cls-1" d="M6.505,7.375c0,.335,0,.556-.118.675a1.131,1.131,0,0,1-.743.156,1.181,1.181,0,0,1-.793-.177c-.143-.139-.143-.394-.142-.748V0H0V6.669c0,2.854,2.145,3,5.645,3,3.436,0,5.543-.145,5.543-3V0H6.5Z" transform="translate(23.772 5.763)"/>
      <path id="Fill_2098" data-name="Fill 2098" class="cls-1" d="M29.2,20.772a10.808,10.808,0,0,1-6.569-2.2,27.613,27.613,0,0,1-9.915,1.587C6.554,20.162,0,18.6,0,15.707V11.225c0-1.346,1.388-2.49,4.013-3.309l.527-.149V5.355c0-1.344,1.388-2.488,4.013-3.31l.816-.23a26.805,26.805,0,0,1,3.474-.649l.814-.086c1.06-.1,2.135-.16,3.2-.17h.814c1.1.008,2.223.07,3.332.184l.813.088c.562.069,1.181.17,1.893.309A10.948,10.948,0,0,1,29.206,0,10.563,10.563,0,0,1,39.917,10.384,10.565,10.565,0,0,1,29.2,20.772ZM29.206.9a9.649,9.649,0,0,0-9.784,9.485,9.651,9.651,0,0,0,9.784,9.489,9.878,9.878,0,0,0,6.915-2.781,9.28,9.28,0,0,0,2.867-6.708A9.648,9.648,0,0,0,29.206.9ZM1.058,13.09v2.617c0,1.619,4.988,3.43,11.663,3.43a27.346,27.346,0,0,0,9.011-1.331,10.454,10.454,0,0,1-2.115-2.82,33.579,33.579,0,0,1-6.9.691C8.5,15.677,3.252,14.877,1.058,13.09ZM4.54,8.856h0L4.088,9c-1.9.644-3.03,1.477-3.03,2.23,0,1.617,4.988,3.426,11.663,3.426a33.773,33.773,0,0,0,5.044-.364l-.049,0-.455,0c-6.167,0-12.721-1.561-12.721-4.455V8.856ZM5.6,7.22V9.838c0,1.619,4.988,3.43,11.664,3.43.509,0,1.031-.013,1.643-.04a10.038,10.038,0,0,1-.411-2.842c0-.218.016-.434.029-.607l-.09,0c-.342.011-.767.025-1.171.025C13.038,9.807,7.794,9.007,5.6,7.22ZM16.855,1.935c-1.069.007-2.136.063-3.171.167l-.811.095a24.689,24.689,0,0,0-3.435.678l-.81.251C6.73,3.771,5.6,4.6,5.6,5.355c0,1.618,4.988,3.427,11.664,3.427.43,0,.868-.009,1.379-.029a10.294,10.294,0,0,1,3.834-6.428l-.055-.009c-.188-.033-.407-.07-.637-.1l-.812-.1a33.008,33.008,0,0,0-3.3-.181Z"/>
    </g>
  </g>
</svg>
