<?xml version="1.0" encoding="utf-8"?>
<!-- Generator: Adobe Illustrator 23.0.3, SVG Export Plug-In . SVG Version: 6.00 Build 0)  -->
<svg version="1.1" id="Layer_1" xmlns="http://www.w3.org/2000/svg" xmlns:xlink="http://www.w3.org/1999/xlink" x="0px" y="0px"
	 viewBox="0 0 443.73 389.4" style="enable-background:new 0 0 443.73 389.4;" xml:space="preserve">
<style type="text/css">
	.st0{fill:none;stroke:#6E3996;stroke-width:30;stroke-miterlimit:10;}
	.st1{fill:#6E3996;}
</style>
<path class="st0" d="M17.07,176.87V49.13C17.07,30.27,32.34,15,51.2,15h341.33c18.86,0,34.13,15.27,34.13,34.13v127.73"/>
<path class="st0" d="M17.07,122.4c0-18.86,15.27-34.13,34.13-34.13h341.33c18.86,0,34.13,15.27,34.13,34.13"/>
<g>
	<path class="st1" d="M274.88,199.27l-3.6,7.2c-9.37,18.71-28.48,30.53-49.41,30.53s-40.04-11.83-49.39-30.53l-3.6-7.2
		c-9.37-18.71-28.48-30.53-49.41-30.53H0V338.2c0,28.28,22.92,51.2,51.2,51.2h341.33c28.28,0,51.2-22.92,51.2-51.2V168.73H324.27
		C303.34,168.73,284.23,180.56,274.88,199.27z"/>
</g>
</svg>
