<?xml version="1.0" encoding="utf-8"?>
<!-- Generator: Adobe Illustrator 23.0.3, SVG Export Plug-In . SVG Version: 6.00 Build 0)  -->
<svg version="1.1" id="Layer_1" xmlns="http://www.w3.org/2000/svg" xmlns:xlink="http://www.w3.org/1999/xlink" x="0px" y="0px"
	 viewBox="0 0 88.18 88.18" style="enable-background:new 0 0 88.18 88.18;" xml:space="preserve">
<style type="text/css">
	.st0{fill:#CACACA;}
	.st1{fill:#FFFFFF;}
	.st2{fill:none;stroke:#FFFFFF;stroke-width:3;stroke-miterlimit:10;}
</style>
<g>
	
		<ellipse transform="matrix(0.7071 -0.7071 0.7071 0.7071 -18.2622 44.0887)" class="st0" cx="44.09" cy="44.09" rx="44.09" ry="44.09"/>
	<g>
		<polygon class="st1" points="50.82,25.4 34.61,23.26 29.16,30.11 45.92,33.01 		"/>
		<polygon class="st1" points="28.53,32.5 28.53,69.99 46.12,74.04 46.12,35.54 		"/>
		<polygon class="st1" points="59.64,32.81 48.58,35.47 48.58,73.64 59.64,69.27 		"/>
		<polygon class="st1" points="58.49,30.57 53.67,25.51 48.94,32.86 		"/>
		<polygon class="st1" points="52.19,18.48 35.16,16.53 35.16,20.86 52.19,23.1 		"/>
	</g>
</g>
<g>
	<circle class="st2" cx="44.09" cy="44.09" r="37.68"/>
	<line class="st2" x1="58.49" y1="30.57" x2="71.55" y2="18.87"/>
	<line class="st2" x1="16.06" y1="70.38" x2="30.29" y2="57.3"/>
</g>
</svg>
