<?xml version="1.0" encoding="utf-8"?>
<!-- Generator: Adobe Illustrator 23.0.3, SVG Export Plug-In . SVG Version: 6.00 Build 0)  -->
<svg version="1.1" id="Layer_1" xmlns="http://www.w3.org/2000/svg" xmlns:xlink="http://www.w3.org/1999/xlink" x="0px" y="0px"
	 viewBox="0 0 62.9 78.02" style="enable-background:new 0 0 62.9 78.02;" xml:space="preserve">
<style type="text/css">
	.st0{fill:#6E3996;}
</style>
<g>
	<path class="st0" d="M53.7,9.32c-6.3-6.3-14.6-9.6-23.4-9.3C13.3,0.62,0,14.42,0,31.42c0,6.6,2,12.9,5.8,18.2l22,26.3
		c0.8,1.3,2.2,2.1,3.8,2.1c1.6,0,3-0.8,3.8-2.1l21.9-26.5c3.6-5.2,5.6-11.4,5.6-17.8C62.9,23.22,59.7,15.32,53.7,9.32z M31.4,43.82
		c-7.1,0-12.8-5.7-12.8-12.8s5.7-12.8,12.8-12.8c7.1,0,12.8,5.8,12.8,12.8C44.2,38.12,38.5,43.82,31.4,43.82z"/>
</g>
<text transform="matrix(1 0 0 1 683 384)" style="font-family:'MyriadPro-Regular'; font-size:12px;">icon-location.svg</text>
</svg>
