<?xml version="1.0" encoding="utf-8"?>
<!-- Generator: Adobe Illustrator 23.0.3, SVG Export Plug-In . SVG Version: 6.00 Build 0)  -->
<svg version="1.1" id="Layer_1" xmlns="http://www.w3.org/2000/svg" xmlns:xlink="http://www.w3.org/1999/xlink" x="0px" y="0px"
	 viewBox="0 0 42.56 27.79" style="enable-background:new 0 0 42.56 27.9;" xml:space="preserve" width="42.56" height="27.9">
<style type="text/css">
	.st0{fill:#3D3D3D;}
	.st1{fill:none;stroke:#000000;stroke-miterlimit:10;}
	.st2{fill:#F9F9F9;}
	.st3{fill:#383838;}
	.st4{fill:none;stroke:#303030;stroke-width:0.8;stroke-linecap:round;stroke-linejoin:round;stroke-miterlimit:10;}
	.st5{fill:#0052CC;}
	.st6{fill:#FFC601;}
</style>
<g>
	<path class="st0" d="M40.35,0H8.74C7.48,0.08,6.53,1.03,6.53,2.21v18.96c0,1.19,0.95,2.21,2.21,2.21h31.61
		c1.19,0,2.21-0.95,2.21-2.21V2.21C42.56,1.03,41.61,0,40.35,0z M41.3,21.26c0,0.55-0.47,1.03-1.03,1.03H8.66
		c-0.55,0-1.03-0.47-1.03-1.03V9.17h0.08H41.3V21.26z M41.38,5.61H7.72v-3.4c0-0.55,0.47-1.03,1.03-1.03h31.61
		c0.55,0,1.03,0.47,1.03,1.03V5.61z"/>
	<rect x="10.73" y="12.46" class="st0" width="19.09" height="3.56"/>
	<g>
		<path d="M34.45,15.27h-0.28V13.5c-0.07,0.06-0.15,0.13-0.26,0.19c-0.11,0.06-0.21,0.11-0.29,0.14v-0.27
			c0.16-0.07,0.29-0.16,0.41-0.27c0.12-0.1,0.2-0.2,0.25-0.3h0.18V15.27z"/>
		<path d="M36.62,15v0.27h-1.5c0-0.07,0.01-0.13,0.03-0.19c0.04-0.1,0.1-0.2,0.18-0.3c0.08-0.1,0.2-0.21,0.36-0.34
			c0.25-0.2,0.41-0.36,0.5-0.48c0.09-0.12,0.13-0.23,0.13-0.33c0-0.11-0.04-0.2-0.12-0.28s-0.18-0.11-0.31-0.11
			c-0.13,0-0.24,0.04-0.32,0.12s-0.12,0.19-0.12,0.33l-0.29-0.03c0.02-0.21,0.09-0.38,0.22-0.49c0.13-0.11,0.3-0.17,0.51-0.17
			c0.22,0,0.39,0.06,0.52,0.18s0.19,0.27,0.19,0.45c0,0.09-0.02,0.18-0.06,0.27c-0.04,0.09-0.1,0.18-0.18,0.28s-0.23,0.23-0.43,0.4
			c-0.17,0.14-0.27,0.23-0.32,0.28c-0.05,0.05-0.09,0.1-0.12,0.15H36.62z"/>
		<path d="M37.24,14.67l0.28-0.04c0.03,0.16,0.09,0.27,0.16,0.34c0.08,0.07,0.17,0.1,0.28,0.1c0.13,0,0.24-0.05,0.33-0.14
			c0.09-0.09,0.14-0.2,0.14-0.34c0-0.13-0.04-0.23-0.13-0.32c-0.08-0.08-0.19-0.12-0.32-0.12c-0.05,0-0.12,0.01-0.2,0.03l0.03-0.24
			c0.02,0,0.03,0,0.04,0c0.12,0,0.22-0.03,0.32-0.09s0.14-0.16,0.14-0.29c0-0.1-0.03-0.19-0.1-0.25s-0.16-0.1-0.27-0.1
			c-0.11,0-0.2,0.03-0.27,0.1s-0.12,0.17-0.14,0.31l-0.28-0.05c0.03-0.19,0.11-0.33,0.23-0.43S37.77,13,37.95,13
			c0.12,0,0.24,0.03,0.34,0.08c0.1,0.05,0.18,0.13,0.24,0.22c0.05,0.09,0.08,0.19,0.08,0.29c0,0.1-0.03,0.19-0.08,0.27
			S38.4,14,38.3,14.04c0.13,0.03,0.24,0.09,0.31,0.19c0.07,0.1,0.11,0.22,0.11,0.36c0,0.2-0.07,0.36-0.22,0.5
			c-0.14,0.14-0.33,0.21-0.55,0.21c-0.2,0-0.36-0.06-0.49-0.18C37.33,15.01,37.26,14.86,37.24,14.67z"/>
	</g>
	<circle class="st1" cx="36.17" cy="14.24" r="4.3"/>
</g>
<g id="Icons">
	<g>
		<g>
			<path class="st2" d="M31.86,27.39H2.61c-1.22,0-2.21-0.99-2.21-2.21V7.78c0-1.22,0.99-2.21,2.21-2.21h29.25
				c1.22,0,2.21,0.99,2.21,2.21v17.4C34.07,26.4,33.08,27.39,31.86,27.39z"/>
			<rect x="0.4" y="11.24" class="st3" width="33.67" height="3.44"/>
			<path class="st4" d="M31.86,27.39H2.61c-1.22,0-2.21-0.99-2.21-2.21V7.78c0-1.22,0.99-2.21,2.21-2.21h29.25
				c1.22,0,2.21,0.99,2.21,2.21v17.4C34.07,26.4,33.08,27.39,31.86,27.39z"/>
			<line class="st4" x1="0.4" y1="11.24" x2="33.84" y2="11.24"/>
			<line class="st4" x1="33.83" y1="14.67" x2="0.58" y2="14.67"/>
			<line class="st4" x1="3.49" y1="23.35" x2="11.82" y2="23.35"/>
			<line class="st4" x1="3.49" y1="20.66" x2="7.07" y2="20.66"/>
		</g>
		<path class="st5" d="M23.11,23.25c0,0.02,0.01,0.04,0.03,0.07c0.29-0.73,0.58-1.45,0.86-2.18c0.29,0,0.58,0,0.88,0
			c-0.02,0.04-0.03,0.08-0.04,0.11c-0.43,1.02-0.86,2.05-1.29,3.07c-0.02,0.04-0.04,0.05-0.08,0.05c-0.26,0-0.52,0-0.78,0
			c-0.04,0-0.06-0.01-0.07-0.05c-0.22-0.84-0.44-1.69-0.65-2.53"/>
		<path class="st6" d="M21.97,21.79c-0.04-0.15-0.11-0.26-0.26-0.32c-0.24-0.11-0.49-0.18-0.74-0.24c-0.01,0-0.02-0.01-0.03-0.01
			c0-0.01,0-0.02,0-0.02c0.01-0.06,0.05-0.07,0.1-0.07c0.44,0,0.88,0,1.32,0c0.22,0,0.37,0.12,0.41,0.34
			c0.11,0.59,0.22,1.19,0.34,1.78"/>
		<path class="st5" d="M27.88,21.07c0.09,0.02,0.19,0.03,0.28,0.05c0.09,0.02,0.18,0.05,0.27,0.07c0.02,0.01,0.04,0.02,0.07,0.03
			c-0.05,0.23-0.1,0.45-0.14,0.68c-0.11-0.03-0.22-0.07-0.32-0.1c-0.2-0.05-0.4-0.07-0.59-0.01c-0.07,0.02-0.14,0.06-0.2,0.11
			c-0.09,0.08-0.09,0.2,0,0.29c0.06,0.06,0.14,0.11,0.21,0.15c0.15,0.09,0.3,0.16,0.45,0.25c0.2,0.12,0.36,0.28,0.42,0.51
			c0.09,0.33-0.01,0.78-0.38,1.05c-0.21,0.15-0.46,0.24-0.71,0.27c-0.41,0.05-0.8,0.01-1.19-0.12c-0.02-0.01-0.04-0.02-0.07-0.03
			c0.05-0.24,0.1-0.47,0.15-0.71c0.03,0.01,0.06,0.03,0.09,0.04c0.24,0.11,0.49,0.17,0.76,0.17c0.12,0,0.24-0.02,0.35-0.08
			c0.2-0.11,0.23-0.31,0.05-0.45c-0.09-0.07-0.19-0.12-0.28-0.17c-0.16-0.09-0.33-0.17-0.47-0.29c-0.41-0.34-0.35-0.82-0.13-1.14
			c0.18-0.26,0.45-0.4,0.75-0.48c0.1-0.02,0.2-0.03,0.29-0.05c0.01,0,0.03-0.01,0.04-0.01C27.67,21.07,27.77,21.07,27.88,21.07z"/>
		<path class="st5" d="M31.31,24.37c-0.26,0-0.51,0-0.77,0c-0.02-0.12-0.05-0.23-0.07-0.35c-0.03-0.14-0.03-0.14-0.17-0.14
			c-0.29,0-0.59,0-0.88,0c-0.04,0-0.06,0.01-0.07,0.05c-0.04,0.13-0.09,0.26-0.14,0.39c-0.01,0.02-0.03,0.04-0.05,0.04
			c-0.28,0-0.56,0-0.84,0c0.01-0.02,0.01-0.04,0.02-0.05c0.41-0.98,0.82-1.96,1.23-2.93c0.07-0.17,0.2-0.25,0.38-0.25
			c0.23,0,0.46,0,0.7,0C30.86,22.21,31.09,23.28,31.31,24.37z M30.3,23.22c-0.08-0.4-0.17-0.8-0.25-1.2c0,0-0.01,0-0.01,0
			c-0.14,0.4-0.29,0.8-0.43,1.2C29.84,23.22,30.06,23.22,30.3,23.22z"/>
		<path class="st5" d="M24.55,24.37c0.23-1.08,0.46-2.16,0.69-3.24c0.28,0,0.55,0,0.84,0c-0.02,0.11-0.04,0.21-0.07,0.31
			c-0.2,0.95-0.41,1.9-0.61,2.85c-0.01,0.06-0.03,0.08-0.1,0.08c-0.23,0-0.46,0-0.69,0C24.6,24.37,24.58,24.37,24.55,24.37z"/>
	</g>
</g>
</svg>
