<?xml version="1.0" encoding="utf-8"?>
<!-- Generator: Adobe Illustrator 23.0.1, SVG Export Plug-In . SVG Version: 6.00 Build 0)  -->
<svg version="1.1" id="Layer_1" xmlns="http://www.w3.org/2000/svg" xmlns:xlink="http://www.w3.org/1999/xlink" x="0px" y="0px"
	 viewBox="0 0 512 512" style="enable-background:new 0 0 512 512;" xml:space="preserve">
<style type="text/css">
	.st0{fill:#6E3996;}
</style>
<path class="st0" d="M316,216c-5.52,0-10,4.48-10,10s4.48,10,10,10s10-4.48,10-10S321.52,216,316,216z"/>
<path class="st0" d="M316,276c-5.52,0-10,4.48-10,10s4.48,10,10,10s10-4.48,10-10S321.52,276,316,276z"/>
<path class="st0" d="M76,316c-5.52,0-10,4.48-10,10s4.48,10,10,10s10-4.48,10-10S81.52,316,76,316z"/>
<path class="st0" d="M506.63,137.13c-3.3-1.72-7.29-1.46-10.35,0.67L412.86,196H386v-10c0-16.54-13.46-30-30-30h-37.17
	C335.47,141.33,346,119.88,346,96c0-44.11-35.89-80-80-80c-30.09,0-56.34,16.71-70,41.32C182.34,32.71,156.09,16,126,16
	c-44.11,0-80,35.89-80,80c0,23.88,10.53,45.33,27.17,60H30c-16.54,0-30,13.46-30,30v180c0,16.54,13.46,30,30,30h56v30
	c0,5.52,4.48,10,10,10h30v50c0,5.52,4.48,10,10,10h120c5.52,0,10-4.48,10-10v-50h30c5.52,0,10-4.48,10-10v-30h50
	c16.54,0,30-13.46,30-30v-30h26.86l83.42,58.2c3.02,2.11,7.01,2.41,10.35,0.66c3.3-1.73,5.38-5.14,5.38-8.87V146
	C512,142.27,509.93,138.86,506.63,137.13z M266,36c33.09,0,60,26.92,60,60c0,33.09-26.91,60-60,60s-60-26.91-60-60
	C206,62.92,232.91,36,266,36z M213.17,156h-34.34c6.87-6.05,12.7-13.26,17.17-21.32C200.47,142.74,206.3,149.95,213.17,156z M66,96
	c0-33.08,26.91-60,60-60s60,26.92,60,60c0,33.09-26.91,60-60,60S66,129.09,66,96z M246,476H146v-40h100V476z M286,416H106v-20h180
	V416z M366,366c0,5.52-4.48,10-10,10H30c-5.52,0-10-4.48-10-10V186c0-5.51,4.48-10,10-10h326c5.52,0,10,4.49,10,10V366z M386,216h20
	v100h-20V216z M492,366.83l-66-46.05V211.22l66-46.05V366.83z"/>
<path class="st0" d="M126,66c-16.54,0-30,13.46-30,30s13.46,30,30,30s30-13.46,30-30S142.54,66,126,66z M126,106
	c-5.52,0-10-4.48-10-10c0-5.51,4.48-10,10-10s10,4.49,10,10C136,101.52,131.52,106,126,106z"/>
<path class="st0" d="M266,126c16.54,0,30-13.46,30-30s-13.46-30-30-30s-30,13.46-30,30S249.46,126,266,126z M266,86
	c5.52,0,10,4.49,10,10c0,5.52-4.48,10-10,10s-10-4.48-10-10C256,90.49,260.48,86,266,86z"/>
<path class="st0" d="M226,286v-60c0-5.52-4.48-10-10-10H76c-5.52,0-10,4.48-10,10v60c0,5.52,4.48,10,10,10h140
	C221.52,296,226,291.52,226,286z M206,276H86v-40h120V276z"/>
<path class="st0" d="M316,316H116c-5.52,0-10,4.48-10,10s4.48,10,10,10h200c5.52,0,10-4.48,10-10S321.52,316,316,316z"/>
</svg>
