<?xml version="1.0" encoding="utf-8"?>
<!-- Generator: Adobe Illustrator 23.0.3, SVG Export Plug-In . SVG Version: 6.00 Build 0)  -->
<svg version="1.1" id="Layer_1" xmlns="http://www.w3.org/2000/svg" xmlns:xlink="http://www.w3.org/1999/xlink" x="0px" y="0px"
	 viewBox="0 0 45.6 29.6" style="enable-background:new 0 0 45.6 29.6;" xml:space="preserve">
<style type="text/css">
	.st0{fill:#3D3D3D;}
	.st1{fill:#C61EAF;}
	.st2{font-family:'ArialMT';}
	.st3{font-size:6px;}
</style>
<path class="st0" d="M42.8,0h-40C1.2,0.1,0,1.3,0,2.8v24c0,1.5,1.2,2.8,2.8,2.8h40c1.5,0,2.8-1.2,2.8-2.8v-24
	C45.6,1.3,44.4,0,42.8,0z M44,26.9c0,0.7-0.6,1.3-1.3,1.3h-40c-0.7,0-1.3-0.6-1.3-1.3V11.6h0.1H44V26.9z M44.1,7.1H1.5V2.8
	c0-0.7,0.6-1.3,1.3-1.3h40c0.7,0,1.3,0.6,1.3,1.3V7.1z"/>
<rect x="5.31" y="17.01" class="st0" width="16.57" height="4.5"/>
<text transform="matrix(1 0 0 1 26.2843 20.8576)" class="st1 st2 st3">CVV</text>
</svg>
