<?xml version="1.0" encoding="utf-8"?>
<!-- Generator: Adobe Illustrator 23.0.3, SVG Export Plug-In . SVG Version: 6.00 Build 0)  -->
<svg version="1.1" id="Layer_1" xmlns="http://www.w3.org/2000/svg" xmlns:xlink="http://www.w3.org/1999/xlink" x="0px" y="0px"
	 viewBox="0 0 480 448.05" style="enable-background:new 0 0 480 448.05;" xml:space="preserve">
<style type="text/css">
	.st0{fill:#A92E62;}
</style>
<g>
	<circle class="st0" cx="240" cy="352.05" r="32"/>
</g>
<g>
	<path class="st0" d="M240,288.05c-8.84,0-16-7.16-16-16v-128c0.04-8.81,7.19-15.93,16-15.93s15.96,7.12,16,15.93v128
		C256,280.89,248.84,288.05,240,288.05z"/>
</g>
<g>
	<path class="st0" d="M240,32.05c-7.16-0.16-13.79,3.75-17.12,10.08L34.4,388.05c-3.45,5.7-3.45,12.86,0,18.56
		c3.33,5.71,9.39,9.29,16,9.44h378.08c6.61-0.15,12.67-3.73,16-9.44c3.45-5.7,3.45-12.86,0-18.56L257.12,42.13
		C253.79,35.8,247.16,31.89,240,32.05z M428.48,448.05H51.52c-18.19,0.13-35.08-9.45-44.32-25.12c-9.24-15.32-9.61-34.41-0.96-50.08
		L194.72,26.77C203.8,10.26,221.15,0,240,0s36.2,10.26,45.28,26.77l188.48,346.08c8.65,15.67,8.28,34.76-0.96,50.08
		C463.56,438.6,446.67,448.17,428.48,448.05z"/>
</g>
</svg>
