<?xml version="1.0" encoding="utf-8"?>
<!-- Generator: Adobe Illustrator 23.0.3, SVG Export Plug-In . SVG Version: 6.00 Build 0)  -->
<svg version="1.1" id="Layer_1" xmlns="http://www.w3.org/2000/svg" xmlns:xlink="http://www.w3.org/1999/xlink" x="0px" y="0px"
	 viewBox="0 0 217.45 248" style="enable-background:new 0 0 217.45 248;" xml:space="preserve">
<style type="text/css">
	.st0{fill:#9495A4;}
</style>
<g>
	<path class="st0" d="M106.03,248c-5.82-0.21-11.6-0.82-17.25-1.83c-5.57-0.99-11.19-2.5-16.72-4.49
		c-15.72-5.62-30.13-14.95-41.67-27c-8.31-8.62-15.03-18.35-19.97-28.94c-7.2-15.12-10.8-31.99-10.39-48.79
		c0.1-5.91,0.72-11.85,1.84-17.63c1.19-6.18,2.77-11.93,4.69-17.12c5.71-15.61,15.08-29.95,27.09-41.45
		c8.53-8.22,18.37-14.94,29.24-19.97c12.9-6.01,27.12-9.46,41.24-10.02V14h-11.7c-3.79,0-7-3.21-7-7c0-3.86,3.14-7,7-7h37.5
		c3.79,0,7,3.21,7,7c0,3.86-3.14,7-7,7h-11.7v17.15c3.5,0.31,6.93,0.76,10.44,1.38c5.93,1.17,11.58,2.71,16.83,4.59
		c6.06,2.14,11.94,4.88,17.51,8.14l8.12-10.77c1.27-1.75,3.38-2.81,5.6-2.81c1.54,0,3,0.5,4.21,1.43c1.45,1.05,2.46,2.74,2.72,4.59
		c0.27,1.88-0.22,3.73-1.36,5.21L174.73,53c4.46,3.41,8.61,7.11,12.34,11.02c8.21,8.51,14.96,18.32,20.06,29.13
		c7.04,15.1,10.6,31.8,10.29,48.29c-0.1,5.89-0.72,11.85-1.83,17.73c-1.19,6.18-2.77,11.94-4.69,17.12
		c-5.75,15.91-15.19,30.36-27.3,41.76c-8.48,8.08-18.25,14.73-29.03,19.76c-14.24,6.66-30.09,10.19-45.85,10.19H106.03z
		 M108.53,44.7c-13.6,0-27.35,3.05-39.76,8.81c-9.28,4.35-17.85,10.22-25.47,17.44C32.72,81.04,24.56,93.5,19.71,106.98
		c-1.68,4.86-3.04,9.91-4.02,15c-0.94,5.46-1.47,10.64-1.56,15.36c-0.39,14.56,2.72,29.25,9.01,42.51
		c4.42,9.33,10.25,17.79,17.33,25.17c10.09,10.48,22.62,18.61,36.23,23.5c4.43,1.57,9.35,2.89,14.61,3.92
		c5.36,0.94,10.43,1.47,15.05,1.56c0.85,0.02,1.68,0.03,2.51,0.03c13.73,0,27.5-3.06,39.8-8.84c9.39-4.45,17.89-10.25,25.28-17.24
		c10.58-10.09,18.82-22.66,23.8-36.33c1.71-4.93,3.06-9.95,4.01-14.89c1.02-5.87,1.45-10.77,1.36-15.38
		c0.39-14.47-2.69-29.06-8.91-42.29c-4.45-9.48-10.31-18.05-17.43-25.47c-10.02-10.41-22.51-18.5-36.13-23.4
		c-4.43-1.57-9.34-2.89-14.61-3.92c-5.35-0.94-10.43-1.47-15.05-1.56L108.53,44.7z"/>
	<path class="st0" d="M205.33,94c-5-10.6-11.6-20.2-19.7-28.6c-4.2-4.4-8.8-8.4-13.7-12l8.8-11.7c1.7-2.2,1.2-5.4-1-7
		c-2.2-1.7-5.4-1.2-7,1l-9.2,12.2c-5.9-3.6-12.2-6.6-18.7-8.9c-5.3-1.9-10.9-3.4-16.5-4.5c-4-0.7-8-1.2-12.1-1.5V12h13.7
		c2.8,0,5-2.3,5-5s-2.3-5-5-5h-37.5c-2.8,0-5,2.3-5,5s2.3,5,5,5h13.7v20.7c-14.5,0.3-29.1,3.7-42.4,9.9
		c-10.6,4.9-20.3,11.5-28.7,19.6c-11.8,11.3-21,25.4-26.6,40.7c-2,5.4-3.5,11.1-4.6,16.8c-1.1,5.7-1.7,11.5-1.8,17.3
		c-0.4,16.4,3.1,33,10.2,47.9c4.9,10.5,11.5,20,19.6,28.4c11.3,11.8,25.5,21,40.9,26.5c5.3,1.9,10.8,3.4,16.4,4.4s11.3,1.6,16.9,1.8
		c0.9,0,1.8,0,2.7,0c15.5,0,30.9-3.4,45-10c10.5-4.9,20.1-11.4,28.5-19.4c12-11.3,21.2-25.5,26.8-41c2-5.4,3.5-11.1,4.6-16.8
		c1.1-5.8,1.7-11.6,1.8-17.4C215.73,125.3,212.23,108.8,205.33,94z M203.73,157.1c-1,5.2-2.4,10.3-4.1,15.2
		c-5.1,14-13.5,26.8-24.3,37.1c-7.6,7.2-16.3,13.1-25.8,17.6c-13.4,6.3-28.4,9.4-43.2,9c-5.1-0.1-10.3-0.7-15.4-1.6
		c-5.1-1-10.1-2.3-14.9-4c-13.9-5-26.7-13.3-37-24c-7.3-7.6-13.2-16.2-17.7-25.7c-6.4-13.5-9.6-28.5-9.2-43.4
		c0.1-5.2,0.7-10.5,1.6-15.7c1-5.2,2.4-10.4,4.1-15.3c5-13.9,13.4-26.6,24.1-36.8c7.7-7.3,16.4-13.3,26-17.8c12.7-5.9,26.7-9,40.6-9
		c0.8,0,1.6,0,2.5,0c5.1,0.1,10.3,0.7,15.4,1.6c5.1,1,10.1,2.3,14.9,4c13.9,5,26.7,13.3,36.9,23.9c7.3,7.6,13.3,16.4,17.8,26
		c6.3,13.4,9.5,28.3,9.1,43.1C205.23,146.6,204.63,151.9,203.73,157.1z"/>
	<path class="st0" d="M108.14,162.7l-0.37-0.03c-1.03-0.09-2.2-0.2-3.3-0.4c-1.21-0.22-2.42-0.55-3.62-0.99
		c-3.42-1.21-6.44-3.17-8.96-5.8c-1.75-1.85-3.18-3.94-4.26-6.22c-1.55-3.31-2.3-6.95-2.19-10.52l0.01-0.1
		c0.1-1.22,0.21-2.49,0.43-3.69c0.22-1.21,0.55-2.42,0.99-3.63c1.22-3.34,3.23-6.4,5.8-8.86c1.86-1.75,3.95-3.18,6.22-4.26
		c3.08-1.44,6.66-2.19,10.36-2.19h0.09l0.35,0.03c1.04,0.09,2.22,0.2,3.32,0.4c1.21,0.22,2.42,0.55,3.62,0.99
		c1.25,0.44,2.54,1.06,3.9,1.88l26.27-23.78c1.36-1.16,3.04-1.79,4.78-1.79c2.02,0,3.91,0.81,5.31,2.29l0.07,0.08
		c2.54,2.96,2.28,7.3-0.58,9.88l-26.31,23.73c1.49,3.29,2.17,6.69,2.07,10.15l-0.01,0.11c-0.1,1.25-0.21,2.51-0.43,3.69
		c-0.22,1.21-0.55,2.43-0.99,3.63c-1.35,3.5-3.33,6.5-5.89,8.96c-1.86,1.75-3.95,3.18-6.22,4.26c-3.1,1.44-6.5,2.19-9.86,2.19
		H108.14z M100.33,143.12c0.52,0.93,1.12,1.79,1.8,2.55c0.87,0.95,2.06,1.71,3.51,2.25c0.52,0.21,0.96,0.34,1.33,0.4
		c0.53,0.09,1.03,0.17,1.47,0.17l0.12,0c0.13,0.01,0.27,0.01,0.4,0.01c1.16,0,2.39-0.28,3.68-0.85c0.79-0.36,1.62-0.91,2.43-1.62
		c1.01-1.02,1.82-2.28,2.3-3.55c0.16-0.47,0.33-0.98,0.4-1.43l0.02-0.11c0.08-0.51,0.17-1.02,0.25-1.6
		c-0.02-1.32-0.33-2.67-0.91-4.02c-0.34-0.67-0.74-1.29-1.18-1.86c-0.24-0.15-0.45-0.34-0.62-0.57l-0.01-0.01
		c-0.96-1.03-2.14-1.8-3.59-2.34c-0.52-0.21-0.96-0.34-1.33-0.4c-0.53-0.09-1.03-0.17-1.47-0.17h-0.3c-1.38,0-2.66,0.26-3.8,0.79
		c-0.94,0.52-1.8,1.12-2.57,1.81c-0.95,0.87-1.71,2.06-2.26,3.51c-0.16,0.48-0.33,0.98-0.4,1.43c-0.09,0.53-0.17,1.03-0.17,1.47
		C99.43,140.35,99.73,141.73,100.33,143.12z"/>
	<path class="st0" d="M148.13,97l-27.4,24.8c-1.5-1-3.1-1.9-4.8-2.5c-1.1-0.4-2.2-0.7-3.3-0.9c-1.1-0.2-2.3-0.3-3.4-0.4
		c-3.2,0-6.5,0.6-9.5,2c-2.1,1-4,2.3-5.7,3.9c-2.4,2.3-4.2,5.1-5.3,8.1c-0.4,1.1-0.7,2.2-0.9,3.3c-0.2,1.1-0.3,2.3-0.4,3.5
		c-0.1,3.3,0.6,6.6,2,9.6c1,2.1,2.3,4,3.9,5.7c2.3,2.4,5.1,4.2,8.2,5.3c1.1,0.4,2.2,0.7,3.3,0.9c1.1,0.2,2.3,0.3,3.4,0.4
		c0.2,0,0.4,0,0.5,0c3.1,0,6.2-0.7,9-2c2.1-1,4-2.3,5.7-3.9c2.4-2.3,4.2-5.1,5.4-8.2c0.4-1.1,0.7-2.2,0.9-3.3s0.3-2.3,0.4-3.5
		c0.1-3.3-0.6-6.5-2-9.5c-0.2-0.4-0.4-0.7-0.6-1l27.5-24.8c2.1-1.9,2.2-5,0.4-7.1C153.43,95.3,150.23,95.2,148.13,97z M119.73,141.4
		L119.73,141.4c-0.1,0.6-0.3,1.2-0.5,1.8c-0.6,1.6-1.6,3.1-2.8,4.3c-0.9,0.8-1.9,1.5-3,2c-1.6,0.7-3.3,1.1-5,1
		c-0.6,0-1.2-0.1-1.8-0.2c-0.6-0.1-1.2-0.3-1.7-0.5c-1.6-0.6-3.1-1.5-4.3-2.8c-0.8-0.9-1.5-1.9-2.1-3c-0.7-1.6-1.1-3.3-1.1-5
		c0-0.6,0.1-1.2,0.2-1.8s0.3-1.2,0.5-1.8c0.6-1.6,1.5-3.1,2.8-4.3c0.9-0.8,1.9-1.5,3-2.1c1.5-0.7,3.1-1,4.7-1c0.1,0,0.2,0,0.3,0
		c0.6,0,1.2,0.1,1.8,0.2c0.6,0.1,1.2,0.3,1.7,0.5c1.6,0.6,3.1,1.5,4.3,2.8c0.1,0.1,0.1,0.1,0.2,0.2c0,0,0,0.1,0.1,0.1c0,0,0,0,0.1,0
		c0.7,0.8,1.3,1.7,1.8,2.7c0.7,1.6,1.1,3.3,1.1,5C119.93,140.2,119.83,140.8,119.73,141.4z"/>
</g>
</svg>
