<?xml version="1.0" encoding="utf-8"?>
<!-- Generator: Adobe Illustrator 23.0.3, SVG Export Plug-In . SVG Version: 6.00 Build 0)  -->
<svg version="1.1" id="Layer_1" xmlns="http://www.w3.org/2000/svg" xmlns:xlink="http://www.w3.org/1999/xlink" x="0px" y="0px"
	 viewBox="0 0 34.28 76.5" style="enable-background:new 0 0 34.28 76.5;" xml:space="preserve">
<style type="text/css">
	.st0{fill:#FFFFFF;}
</style>
<ellipse transform="matrix(0.7071 -0.7071 0.7071 0.7071 -0.6549 13.5678)" class="st0" cx="16.05" cy="7.57" rx="7.57" ry="7.57"/>
<path class="st0" d="M29.58,76.5H4.96c-2.7,0-5.07-2.21-4.96-4.91c0.1-2.54,2.13-4.5,4.7-4.5h7.74c0.02,0,0.04-0.02,0.04-0.04V32.41
	c0-0.02-0.02-0.04-0.04-0.04H4.96c-2.7,0-5.07-2.21-4.96-4.91c0.1-2.54,2.13-4.5,4.7-4.5h12.33c2.62,0,4.75,2.13,4.75,4.75v39.34
	c0,0.02,0.02,0.04,0.04,0.04h7.48c2.7,0,5.07,2.21,4.96,4.91C34.18,74.54,32.15,76.5,29.58,76.5z"/>
</svg>
