<?xml version="1.0" encoding="utf-8"?>
<!-- Generator: Adobe Illustrator 23.0.3, SVG Export Plug-In . SVG Version: 6.00 Build 0)  -->
<svg version="1.1" id="Layer_1" xmlns="http://www.w3.org/2000/svg" xmlns:xlink="http://www.w3.org/1999/xlink" x="0px" y="0px"
	 viewBox="0 0 240.5 314.59" style="enable-background:new 0 0 240.5 314.59;" xml:space="preserve">
<style type="text/css">
	.st0{fill:#383041;}
</style>
<g>
	<path class="st0" d="M205.38,35.12C182.73,12.47,152.5,0,120.25,0C53.94,0,0,53.94,0,120.25c0,64.95,113.24,186.84,118.06,192
		l2.19,2.34l2.19-2.34c4.82-5.14,118.06-126.55,118.06-192.01C240.5,88,228.02,57.77,205.38,35.12z M224.26,120.25
		c0,23.4-19.79,62.95-55.72,111.35c-20.74,27.66-40.23,49.84-48.29,58.77c-8.16-9.06-27.9-31.58-48.28-59.27
		c-36.46-49.12-55.73-87.63-55.73-111.36c0-57.35,46.66-104.01,104.01-104.01S224.26,62.62,224.26,120.25z"/>
	<path class="st0" d="M120.25,172.91c15.66,0,30.32-6.04,41.29-17.01s17.01-25.63,17.01-41.29c0-32.14-26.15-58.3-58.3-58.3
		c-15.66,0-30.32,6.04-41.29,17.01c-10.97,10.97-17.01,25.63-17.01,41.29s6.04,30.32,17.01,41.29S104.59,172.91,120.25,172.91z
		 M120.25,157.18c-11.08,0-21.6-4.42-29.62-12.43c-8.02-8.02-12.43-18.54-12.43-29.62c0-11.08,4.42-21.6,12.43-29.62
		c8.02-8.02,18.54-12.43,29.62-12.43c11.08,0,21.6,4.42,29.62,12.43c8.02,8.02,12.43,18.54,12.43,29.62
		c0,11.08-4.42,21.6-12.43,29.62C141.85,152.77,131.33,157.18,120.25,157.18z"/>
</g>
</svg>
