<?xml version="1.0" encoding="utf-8"?>
<!-- Generator: Adobe Illustrator 23.0.3, SVG Export Plug-In . SVG Version: 6.00 Build 0)  -->
<svg version="1.1" id="Layer_1" xmlns="http://www.w3.org/2000/svg" xmlns:xlink="http://www.w3.org/1999/xlink" x="0px" y="0px"
	 viewBox="0 0 200.8 200.8" style="enable-background:new 0 0 200.8 200.8;" xml:space="preserve">
<style type="text/css">
	.st0{fill:#343434;}
</style>
<path class="st0" d="M100.4,200.8C45.04,200.8,0,155.76,0,100.4C0,45.04,45.04,0,100.4,0c55.36,0,100.4,45.04,100.4,100.4
	C200.8,155.76,155.76,200.8,100.4,200.8z M100.4,14C52.76,14,14,52.76,14,100.4c0,47.64,38.76,86.4,86.4,86.4
	c47.64,0,86.4-38.76,86.4-86.4C186.8,52.76,148.04,14,100.4,14z"/>
<path class="st0" d="M100.4,121.55c-1.67,0-3.33-0.59-4.67-1.78L63.56,90.98c-2.88-2.58-3.13-7-0.55-9.88
	c2.58-2.88,7-3.13,9.88-0.55l27.24,24.38l45.51-45.39c2.74-2.73,7.17-2.73,9.9,0.01c2.73,2.74,2.72,7.17-0.01,9.9l-50.2,50.06
	C103.98,120.87,102.19,121.55,100.4,121.55z"/>
</svg>
