<?xml version="1.0" encoding="utf-8"?>
<!-- Generator: Adobe Illustrator 23.0.3, SVG Export Plug-In . SVG Version: 6.00 Build 0)  -->
<svg version="1.1" id="Layer_1" xmlns="http://www.w3.org/2000/svg" xmlns:xlink="http://www.w3.org/1999/xlink" x="0px" y="0px"
	 viewBox="0 0 44 31" style="enable-background:new 0 0 44 31;" xml:space="preserve">
<style type="text/css">
	.st0{fill:#383041;}
</style>
<path class="st0" d="M41.64,31H2.36C1.06,31,0,29.94,0,28.64V2.36C0,1.06,1.06,0,2.36,0h39.28C42.94,0,44,1.06,44,2.36v26.28
	C44,29.94,42.94,31,41.64,31z M2.36,2C2.16,2,2,2.16,2,2.36v26.28C2,28.84,2.16,29,2.36,29h39.28c0.2,0,0.36-0.16,0.36-0.36V2.36
	C42,2.16,41.84,2,41.64,2H2.36z M19,20.46c0,0.55,0.54,0.73,0.98,0.39l6.78-5.02c0.44-0.33,0.38-0.88-0.05-1.21l-6.7-5.03
	C19.57,9.26,19,9.44,19,9.99V20.46z"/>
</svg>
