<?xml version="1.0" encoding="utf-8"?>
<!-- Generator: Adobe Illustrator 23.0.3, SVG Export Plug-In . SVG Version: 6.00 Build 0)  -->
<svg version="1.1" id="Layer_1" xmlns="http://www.w3.org/2000/svg" xmlns:xlink="http://www.w3.org/1999/xlink" x="0px" y="0px"
	 viewBox="0 0 512 380" style="enable-background:new 0 0 512 380;" xml:space="preserve">
<path d="M402,360h-11.5v-22c0-12.13,9.87-22,22-22H470c12.13,0,22,9.87,22,22v22h-21.04H402z M470.96,380H502c5.52,0,10-4.48,10-10
	v-32c0-23.16-18.84-42-42-42h-21.75v-12H502c5.52,0,10-4.48,10-10V10c0-5.52-4.48-10-10-10H110H41.04H10C4.48,0,0,4.48,0,10v264
	c0,5.52,4.48,10,10,10h53.75v12H48c-23.16,0-42,18.84-42,42v32c0,5.52,4.48,10,10,10h386H470.96z M110,20h382v244h-44.96
	c-4.5-18.34-21.07-32-40.79-32h-57.5c-12.81,0-24.29,5.77-32,14.84c-7.71-9.07-19.19-14.84-32-14.84h-57.5
	c-12.81,0-24.29,5.77-32,14.84c-7.71-9.07-19.19-14.84-32-14.84h-57.5c-19.71,0-36.29,13.65-40.79,32H20V20h21.04H110z M227.25,252
	h57.5c12.13,0,22,9.87,22,22v22H291c-12.81,0-24.29,5.77-32,14.84c-7.71-9.07-19.19-14.84-32-14.84h-21.75v-22
	C205.25,261.87,215.12,252,227.25,252z M83.75,274c0-12.13,9.87-22,22-22h57.5c12.13,0,22,9.87,22,22v22H169.5
	c-12.81,0-24.29,5.77-32,14.84c-7.71-9.07-19.19-14.84-32-14.84H83.75V274z M26,360v-22c0-12.13,9.87-22,22-22h57.5
	c12.13,0,22,9.87,22,22v22H26z M147.5,360v-22c0-12.13,9.87-22,22-22H227c12.13,0,22,9.87,22,22v22H147.5z M269,360v-22
	c0-12.13,9.87-22,22-22h57.5c12.13,0,22,9.87,22,22v22H269z M412.5,296c-12.81,0-24.29,5.77-32,14.84
	c-7.71-9.07-19.19-14.84-32-14.84h-21.75v-22c0-12.13,9.87-22,22-22h57.5c12.13,0,22,9.87,22,22v22H412.5z"/>
<path d="M217.7,76.35c0.18,0.13,0.38,0.25,0.57,0.36c14.91,8.72,29.82,17.45,44.73,26.17c14.88,8.71,29.76,17.41,44.69,26.15
	l-89.96,52.61l-0.04-105.29C217.69,76.35,217.7,76.35,217.7,76.35z"/>
</svg>
