<?xml version="1.0" encoding="utf-8"?>
<!-- Generator: Adobe Illustrator 23.0.3, SVG Export Plug-In . SVG Version: 6.00 Build 0)  -->
<svg version="1.1" id="Layer_1" xmlns="http://www.w3.org/2000/svg" xmlns:xlink="http://www.w3.org/1999/xlink" x="0px" y="0px"
	 viewBox="0 0 27.97 24" style="enable-background:new 0 0 27.97 24;" xml:space="preserve">
<style type="text/css">
	.st0{fill-rule:evenodd;clip-rule:evenodd;fill:#BCBDCA;}
</style>
<g>
	<g>
		<path class="st0" d="M4.15,9.39c0-1.15-0.93-2.09-2.07-2.09S0,8.24,0,9.39v8.55h4.15V9.39z"/>
		<path class="st0" d="M5.17,9.4v8.55l17.64,0V9.39c0-1.73,1.4-3.13,3.11-3.13V3.13C25.92,1.4,24.52,0,22.8,0L5.17,0
			c-1.72,0-3.11,1.4-3.11,3.13v3.13C3.77,6.27,5.17,7.67,5.17,9.4z"/>
		<path class="st0" d="M25.9,7.3c-1.15,0-2.07,0.93-2.07,2.09v8.55h4.15V9.39C27.97,8.24,27.05,7.3,25.9,7.3z"/>
		<path class="st0" d="M3.09,21.91c0,1.15,0.93,2.09,2.07,2.09h17.63c1.15,0,2.07-0.93,2.07-2.09v-2.95H3.09V21.91z"/>
	</g>
</g>
</svg>
