<?xml version="1.0" encoding="utf-8"?>
<!-- Generator: Adobe Illustrator 23.0.3, SVG Export Plug-In . SVG Version: 6.00 Build 0)  -->
<svg version="1.1" id="Layer_1" xmlns="http://www.w3.org/2000/svg" xmlns:xlink="http://www.w3.org/1999/xlink" x="0px" y="0px"
	 viewBox="0 0 27.97 24" style="enable-background:new 0 0 27.97 24;" xml:space="preserve">
<style type="text/css">
	.st0{fill-rule:evenodd;clip-rule:evenodd;fill:url(#SVGID_1_);}
	.st1{fill-rule:evenodd;clip-rule:evenodd;fill:url(#SVGID_2_);}
	.st2{fill-rule:evenodd;clip-rule:evenodd;fill:url(#SVGID_3_);}
	.st3{fill-rule:evenodd;clip-rule:evenodd;fill:url(#SVGID_4_);}
</style>
<g>
	<g>
		<linearGradient id="SVGID_1_" gradientUnits="userSpaceOnUse" x1="-3.6989" y1="7.0562" x2="17.2923" y2="29.5792">
			<stop  offset="0" style="stop-color:#9D36D5"/>
			<stop  offset="1" style="stop-color:#673190"/>
		</linearGradient>
		<path class="st0" d="M4.15,9.39c0-1.15-0.93-2.09-2.07-2.09S0,8.24,0,9.39v8.55h4.15V9.39z"/>
		<linearGradient id="SVGID_2_" gradientUnits="userSpaceOnUse" x1="5.1697" y1="-1.2093" x2="26.161" y2="21.3137">
			<stop  offset="0" style="stop-color:#9D36D5"/>
			<stop  offset="1" style="stop-color:#673190"/>
		</linearGradient>
		<path class="st1" d="M5.17,9.4v8.55l17.64,0V9.39c0-1.73,1.4-3.13,3.11-3.13V3.13C25.92,1.4,24.52,0,22.8,0L5.17,0
			c-1.72,0-3.11,1.4-3.11,3.13v3.13C3.77,6.27,5.17,7.67,5.17,9.4z"/>
		<linearGradient id="SVGID_3_" gradientUnits="userSpaceOnUse" x1="9.052" y1="-4.8276" x2="30.0432" y2="17.6954">
			<stop  offset="0" style="stop-color:#9D36D5"/>
			<stop  offset="1" style="stop-color:#673190"/>
		</linearGradient>
		<path class="st2" d="M25.9,7.3c-1.15,0-2.07,0.93-2.07,2.09v8.55h4.15V9.39C27.97,8.24,27.05,7.3,25.9,7.3z"/>
		<linearGradient id="SVGID_4_" gradientUnits="userSpaceOnUse" x1="-1.1194" y1="4.652" x2="19.8719" y2="27.175">
			<stop  offset="0" style="stop-color:#9D36D5"/>
			<stop  offset="1" style="stop-color:#673190"/>
		</linearGradient>
		<path class="st3" d="M3.09,21.91c0,1.15,0.93,2.09,2.07,2.09h17.63c1.15,0,2.07-0.93,2.07-2.09v-2.95H3.09V21.91z"/>
	</g>
</g>
</svg>
