<?xml version="1.0" encoding="utf-8"?>
<!-- Generator: Adobe Illustrator 23.0.3, SVG Export Plug-In . SVG Version: 6.00 Build 0)  -->
<svg version="1.1" id="Layer_1" xmlns="http://www.w3.org/2000/svg" xmlns:xlink="http://www.w3.org/1999/xlink" x="0px" y="0px"
	 width="152.57" height="47.98" viewBox="0 0 152.57 47.98" style="enable-background:new 0 0 152.57 47.98;" xml:space="preserve">
<style type="text/css">
	.st0{fill:#7C7C7C;}
	.st1{fill:#6E3B96;}
	.st2{fill:url(#SVGID_1_);}
	.st3{fill:url(#SVGID_2_);}
	.st4{fill:url(#SVGID_3_);}
	.st5{fill:url(#SVGID_4_);}
	.st6{fill:url(#SVGID_5_);}
	.st7{fill:url(#SVGID_6_);}
	.st8{fill:url(#SVGID_7_);}
</style>
<path class="st0" d="M4.94,47.98v-1.57h3.33v-5.43H6.32c-2.3,0-4.16-1.87-4.16-4.16v-3.44c0-0.99,0.36-1.94,1-2.69
	c0.64-0.74,1.52-1.24,2.48-1.4l0.51-0.08v-3.93h-3.1C1.37,25.28,0,23.91,0,22.22v-1.82c0-1.68,1.37-3.05,3.05-3.05h3.1V8.77
	C6.15,3.93,10.08,0,14.92,0h15.04c4.83,0,8.77,3.93,8.77,8.77v8.59h3.09c1.69,0,3.06,1.37,3.06,3.05v1.82
	c0,1.68-1.37,3.05-3.06,3.05h-3.39v3.94l0.54,0.06c1.02,0.1,1.96,0.58,2.66,1.33c0.7,0.76,1.08,1.75,1.08,2.78v3.44
	c0,1.1-0.43,2.14-1.21,2.92c-0.78,0.78-1.81,1.22-2.91,1.23l-0.6,0.01v5.43h1.95v1.57H4.94z M33.39,46.41h3.03v-5.43h-3.03V46.41z
	 M14.44,46.41h17.38v-5.43H14.44V46.41z M9.83,46.41h3.03v-5.43H9.83V46.41z M6.32,30.79c-1.43,0-2.59,1.16-2.59,2.59v3.44
	c0,1.43,1.16,2.59,2.59,2.59h32.23c1.43,0,2.59-1.16,2.59-2.59v-3.44c0-1.43-1.16-2.59-2.59-2.59H6.32z M14.92,1.57
	c-3.97,0-7.19,3.23-7.19,7.2v8.62l0.48,0.1c0.69,0.14,1.31,0.51,1.75,1.03c0.46,0.53,0.7,1.19,0.7,1.89v1.82
	c0,0.7-0.24,1.36-0.7,1.89C9.51,24.63,8.89,25,8.21,25.14l-0.48,0.1v3.98h29.13v-4l-0.43-0.13c-1.31-0.39-2.2-1.55-2.2-2.87v-1.82
	c0-0.7,0.24-1.36,0.7-1.89c0.44-0.52,1.06-0.88,1.75-1.03l0.48-0.1V8.77c0-3.97-3.23-7.2-7.19-7.2H14.92z M37.28,18.92
	c-0.8,0-1.48,0.68-1.48,1.49v1.82c0,0.82,0.67,1.49,1.48,1.49h4.54c0.82,0,1.48-0.67,1.48-1.49v-1.82c0-0.81-0.68-1.49-1.48-1.49
	H37.28z M3.05,18.92c-0.8,0-1.48,0.68-1.48,1.49v1.82c0,0.82,0.67,1.49,1.48,1.49h4.54c0.82,0,1.48-0.67,1.48-1.49v-1.82
	c0-0.81-0.68-1.49-1.48-1.49H3.05z"/>
<path class="st1" d="M60.36,47.98v-1.57h3.33v-5.43h-1.94c-2.3,0-4.16-1.87-4.16-4.16v-3.44c0-0.99,0.36-1.94,1-2.69
	c0.64-0.74,1.52-1.24,2.48-1.4l0.51-0.08v-3.93h-3.1c-1.68,0-3.05-1.37-3.05-3.05v-1.82c0-1.68,1.37-3.05,3.05-3.05h3.1V8.77
	c0-4.83,3.93-8.77,8.77-8.77h15.04c4.83,0,8.77,3.93,8.77,8.77v8.59h3.09c1.69,0,3.06,1.37,3.06,3.05v1.82
	c0,1.68-1.37,3.05-3.06,3.05h-3.39v3.94l0.54,0.06c1.02,0.1,1.96,0.58,2.66,1.33c0.7,0.76,1.08,1.75,1.08,2.78v3.44
	c0,1.1-0.43,2.14-1.21,2.92c-0.78,0.78-1.81,1.22-2.91,1.23l-0.6,0.01v5.43h1.95v1.57H60.36z M88.81,46.41h3.03v-5.43h-3.03V46.41z
	 M69.86,46.41h17.38v-5.43H69.86V46.41z M65.25,46.41h3.03v-5.43h-3.03V46.41z M61.75,30.79c-1.43,0-2.59,1.16-2.59,2.59v3.44
	c0,1.43,1.16,2.59,2.59,2.59h32.23c1.43,0,2.59-1.16,2.59-2.59v-3.44c0-1.43-1.16-2.59-2.59-2.59H61.75z M70.34,1.57
	c-3.97,0-7.19,3.23-7.19,7.2v8.62l0.48,0.1c0.69,0.14,1.31,0.51,1.75,1.03c0.46,0.53,0.7,1.19,0.7,1.89v1.82
	c0,0.7-0.24,1.36-0.7,1.89c-0.44,0.52-1.06,0.88-1.75,1.03l-0.48,0.1v3.98h29.13v-4l-0.43-0.13c-1.31-0.39-2.2-1.55-2.2-2.87v-1.82
	c0-0.7,0.24-1.36,0.7-1.89c0.44-0.52,1.06-0.88,1.75-1.03l0.48-0.1V8.77c0-3.97-3.23-7.2-7.19-7.2H70.34z M92.7,18.92
	c-0.8,0-1.48,0.68-1.48,1.49v1.82c0,0.82,0.67,1.49,1.48,1.49h4.54c0.82,0,1.48-0.67,1.48-1.49v-1.82c0-0.81-0.68-1.49-1.48-1.49
	H92.7z M58.48,18.92c-0.8,0-1.48,0.68-1.48,1.49v1.82c0,0.82,0.67,1.49,1.48,1.49h4.54c0.82,0,1.48-0.67,1.48-1.49v-1.82
	c0-0.81-0.68-1.49-1.48-1.49H58.48z"/>
<g>
	<linearGradient id="SVGID_1_" gradientUnits="userSpaceOnUse" x1="116.2401" y1="1.1674" x2="147.9572" y2="47.6857">
		<stop  offset="0" style="stop-color:#8550A0"/>
		<stop  offset="1" style="stop-color:#673390"/>
	</linearGradient>
	<rect x="142.66" y="39.43" class="st2" width="3.03" height="5.43"/>
	<linearGradient id="SVGID_2_" gradientUnits="userSpaceOnUse" x1="105.6001" y1="8.422" x2="137.3171" y2="54.9403">
		<stop  offset="0" style="stop-color:#8550A0"/>
		<stop  offset="1" style="stop-color:#673390"/>
	</linearGradient>
	<rect x="115.81" y="46.12" class="st3" width="32.25" height="1.85"/>
	<linearGradient id="SVGID_3_" gradientUnits="userSpaceOnUse" x1="100.1585" y1="12.1321" x2="131.8755" y2="58.6505">
		<stop  offset="0" style="stop-color:#8550A0"/>
		<stop  offset="1" style="stop-color:#673390"/>
	</linearGradient>
	<rect x="119.1" y="39.43" class="st4" width="3.03" height="5.43"/>
	<linearGradient id="SVGID_4_" gradientUnits="userSpaceOnUse" x1="111.7289" y1="4.2433" x2="143.4459" y2="50.7616">
		<stop  offset="0" style="stop-color:#8550A0"/>
		<stop  offset="1" style="stop-color:#673390"/>
	</linearGradient>
	<path class="st5" d="M147.82,29.24h-32.23c-1.43,0-2.59,1.16-2.59,2.59v3.44c0,1.43,1.16,2.59,2.59,2.59h32.23
		c1.43,0,2.59-1.16,2.59-2.59v-3.44C150.41,30.4,149.25,29.24,147.82,29.24z"/>
	<linearGradient id="SVGID_5_" gradientUnits="userSpaceOnUse" x1="119.7424" y1="-1.2205" x2="151.4594" y2="45.2978">
		<stop  offset="0" style="stop-color:#8550A0"/>
		<stop  offset="1" style="stop-color:#673390"/>
	</linearGradient>
	<path class="st6" d="M119.22,16.96c0.46,0.53,0.7,1.19,0.7,1.89v1.82c0,0.7-0.24,1.36-0.7,1.89c-0.44,0.52-1.06,0.88-1.75,1.03
		l-0.48,0.1v3.98h29.13v-4l-0.43-0.13c-1.31-0.39-2.2-1.55-2.2-2.87v-1.82c0-0.7,0.24-1.36,0.7-1.89c0.44-0.52,1.06-0.88,1.75-1.03
		l0.48-0.1V7.21c0-3.97-3.23-7.2-7.19-7.2h-15.04c-3.97,0-7.19,3.23-7.19,7.2v8.62l0.48,0.1C118.16,16.08,118.78,16.44,119.22,16.96
		z"/>
	<linearGradient id="SVGID_6_" gradientUnits="userSpaceOnUse" x1="129.8255" y1="-8.0954" x2="161.5426" y2="38.4229">
		<stop  offset="0" style="stop-color:#8550A0"/>
		<stop  offset="1" style="stop-color:#673390"/>
	</linearGradient>
	<path class="st7" d="M151.09,17.36h-4.54c-0.8,0-1.48,0.68-1.48,1.49v1.82c0,0.82,0.67,1.49,1.48,1.49h4.54
		c0.82,0,1.48-0.67,1.48-1.49v-1.82C152.57,18.05,151.89,17.36,151.09,17.36z"/>
	<linearGradient id="SVGID_7_" gradientUnits="userSpaceOnUse" x1="106.4616" y1="7.8345" x2="138.1787" y2="54.3529">
		<stop  offset="0" style="stop-color:#8550A0"/>
		<stop  offset="1" style="stop-color:#673390"/>
	</linearGradient>
	<path class="st8" d="M118.35,20.67v-1.82c0-0.81-0.68-1.49-1.48-1.49h-4.54c-0.8,0-1.48,0.68-1.48,1.49v1.82
		c0,0.82,0.67,1.49,1.48,1.49h4.54C117.68,22.15,118.35,21.49,118.35,20.67z"/>
</g>
</svg>
