<?xml version="1.0" encoding="utf-8"?>
<!-- Generator: Adobe Illustrator 23.0.3, SVG Export Plug-In . SVG Version: 6.00 Build 0)  -->
<svg version="1.1" id="Layer_1" xmlns="http://www.w3.org/2000/svg" xmlns:xlink="http://www.w3.org/1999/xlink" x="0px" y="0px"
	 viewBox="0 0 36.9 41.6" style="enable-background:new 0 0 36.9 41.6;" xml:space="preserve">
<path d="M28.1,41.5c0.6,0,1.5-0.4,1.5-1v-2.8h1.8c3,0,5.5-2.4,5.5-5.5v-8.6c0-2-1.1-3.8-2.8-4.7V9.1C34.1,4.1,30,0,25,0H11.9
	c-5,0-9.1,4.1-9.1,9.1v10.1C1.1,20.1,0,21.9,0,24v8.6c0,3,2.4,5.5,5.5,5.5h1.8v2.5c0,0.6,0.89,1,1.49,1s1.51-0.4,1.51-1v-2.5
	l16.3-0.2v2.7C26.6,41,27.6,41.5,28.1,41.5z M11.9,2H25c5.67,0,6.6,4.8,7,8.3c-8.2-5.7-18.9-5.7-27.2,0C5.3,6.8,6.67,2,11.9,2z
	 M4.9,11.6c8.1-6,19.1-6,27.2,0v6.7c-0.2,0-0.5-0.1-0.7-0.1L5.5,18.5c-0.2,0-0.4,0-0.6,0L4.9,11.6z M5.5,36C3.6,36,2,34.4,2,32.5
	v-8.6c0-1.9,1.6-3.5,3.5-3.5l0,0l25.9-0.3c1.9,0,3.5,1.6,3.5,3.5v8.6c0,1.9-1.6,3.5-3.5,3.5L5.5,36z"/>
</svg>
