<?xml version="1.0" encoding="utf-8"?>
<!-- Generator: Adobe Illustrator 23.0.3, SVG Export Plug-In . SVG Version: 6.00 Build 0)  -->
<svg version="1.1" id="Layer_1" xmlns="http://www.w3.org/2000/svg" xmlns:xlink="http://www.w3.org/1999/xlink" x="0px" y="0px"
	 viewBox="0 0 470.99 471" style="enable-background:new 0 0 470.99 471;" xml:space="preserve">
<style type="text/css">
	.st0{fill:#BDBECB;}
</style>
<path class="st0" d="M468.88,366.37c-2.07-2.79-5.28-4.38-8.79-4.38c-2.33,0-4.54,0.71-6.4,2.05l-8.17,6.15
	c-2.18,1.64-5.08,2.27-7.72,1.7c-2.7-0.58-5.01-2.31-6.33-4.74l-41-75.2c-1.9-3.49-5.56-5.65-9.56-5.65H215.2
	c-5.24,0-9.5-4.26-9.5-9.5V154.6c0-5.24,4.26-9.5,9.5-9.5h99.7c6.01,0,10.9-4.89,10.9-10.9c0-6.01-4.89-10.9-10.9-10.9h-99.7
	c-5.24,0-9.5-4.26-9.5-9.5v-10.5c0-3.94,2.48-7.52,6.17-8.9c19.1-7.14,31.93-25.51,31.93-45.7c0-26.85-21.98-48.7-49-48.7
	s-49,21.85-49,48.7c0,20.2,12.83,38.56,31.93,45.7c3.69,1.38,6.17,4.96,6.17,8.9v10.5c0,5.22-4.24,9.48-9.46,9.5
	C78.25,123.68,0,201.65,0,297.1C0,392.99,78.55,471,175.1,471c43.28,0,84.87-15.88,117.1-44.72
	c31.98-28.61,52.21-67.59,56.96-109.75c0.54-4.81,4.6-8.44,9.44-8.44h10.1c3.48,0,6.67,1.9,8.34,4.95l46.52,85.25
	c1.42,2.64,3.97,4.59,7,5.36l0.39,0.09c0.58,0.11,1.31,0.23,2.28,0.23c2.39,0,4.51-0.72,6.49-2.2l26.86-20l0.15-0.11
	C471.42,378,472.39,371.15,468.88,366.37z M326.8,318.96c-10.78,74.25-75.99,130.24-151.7,130.24c-84.53,0-153.3-68.19-153.3-152
	c0-83.39,68.43-151.57,152.6-152c2.53,0,4.91,0.98,6.7,2.77c1.78,1.77,2.8,4.22,2.8,6.73v142.5c0,6.01,4.89,10.9,10.9,10.9h122.6
	c2.76,0,5.38,1.2,7.18,3.28C326.39,313.47,327.2,316.23,326.8,318.96L326.8,318.96z M194.8,21.8c15,0,27.2,12.07,27.2,26.9
	c0,14.83-12.2,26.9-27.2,26.9s-27.2-12.07-27.2-26.9C167.6,33.87,179.8,21.8,194.8,21.8z"/>
</svg>
