<?xml version="1.0" encoding="utf-8"?>
<!-- Generator: Adobe Illustrator 23.0.3, SVG Export Plug-In . SVG Version: 6.00 Build 0)  -->
<svg version="1.1" id="Layer_1" xmlns="http://www.w3.org/2000/svg" xmlns:xlink="http://www.w3.org/1999/xlink" x="0px" y="0px"
	 viewBox="0 0 512 512" style="enable-background:new 0 0 512 512;" xml:space="preserve">
<g>
	<g>
		<g>
			<path d="M498.41,175.71L336.28,13.58c-8.75-8.75-20.42-13.57-32.86-13.57c-12.44,0-24.11,4.82-32.86,13.57L13.57,270.56
				C4.82,279.32,0,290.98,0,303.43c0,12.44,4.82,24.11,13.57,32.86l19.99,19.99c0,0,0,0,0.01,0.01c0,0,0,0,0.01,0.01l134.36,134.36
				h-18.6c-5.89,0-10.67,4.77-10.67,10.67c0,5.89,4.78,10.67,10.67,10.67h59.19c0.01,0,0.03,0,0.04,0s0.03,0,0.04,0l154.05,0
				c5.89,0,10.67-4.78,10.67-10.67c0-5.89-4.78-10.67-10.67-10.67l-113.46,0l249.22-249.22
				C516.53,223.31,516.53,193.83,498.41,175.71z M483.33,226.35L226.34,483.33c-4.71,4.71-11.01,7.31-17.74,7.32h-0.08
				c-6.73-0.01-13.02-2.61-17.74-7.32L56.19,348.75l246.79-246.8c4.17-4.17,4.17-10.92,0-15.08c-4.17-4.17-10.92-4.17-15.08,0
				L41.11,333.66l-12.46-12.46c-4.72-4.72-7.32-11.04-7.32-17.78s2.6-13.06,7.32-17.78L285.64,28.67
				c4.72-4.72,11.04-7.32,17.78-7.32c6.74,0,13.06,2.6,17.78,7.32l57.7,57.7l-246.8,246.8c-4.17,4.16-4.17,10.92,0,15.08
				c2.08,2.08,4.81,3.12,7.54,3.12c2.73,0,5.46-1.04,7.54-3.12l246.8-246.8l89.34,89.34C493.13,200.59,493.13,216.55,483.33,226.35z
				"/>
			<path d="M262.8,308.06c-4.17-4.17-10.92-4.16-15.09,0L163.78,392c-4.16,4.17-4.16,10.92,0,15.08c2.08,2.08,4.81,3.12,7.54,3.12
				c2.73,0,5.46-1.04,7.54-3.12l83.93-83.93C266.97,318.98,266.97,312.23,262.8,308.06z"/>
			<path d="M228.38,387.74l-34.43,34.42c-4.16,4.17-4.16,10.92,0,15.08c2.08,2.08,4.81,3.12,7.54,3.12c2.73,0,5.46-1.04,7.54-3.12
				l34.43-34.42c4.16-4.17,4.16-10.92,0-15.08S232.54,383.58,228.38,387.74z"/>
			<path d="M260.05,356.07l-4.52,4.52c-4.17,4.17-4.17,10.92,0,15.08c2.08,2.08,4.81,3.12,7.54,3.12s5.46-1.04,7.54-3.12l4.52-4.52
				c4.17-4.17,4.17-10.92,0-15.08C270.97,351.9,264.22,351.9,260.05,356.07z"/>
			<path d="M407.07,163.79c-2-2-4.71-3.12-7.54-3.12c-2.83,0-5.54,1.12-7.54,3.12l-45.26,45.25c-2,2-3.12,4.71-3.12,7.54
				s1.12,5.54,3.12,7.54l30.17,30.17c2.08,2.08,4.81,3.12,7.54,3.12c2.73,0,5.46-1.04,7.54-3.12l45.25-45.25
				c4.17-4.16,4.17-10.92,0-15.08L407.07,163.79z M384.45,231.67l-15.08-15.08l30.17-30.17l15.08,15.09L384.45,231.67z"/>
			<path d="M320.34,80.19c2.73,0,5.46-1.04,7.54-3.13l4.52-4.53c4.16-4.17,4.16-10.92,0-15.08c-4.17-4.16-10.92-4.16-15.08,0
				l-4.52,4.53c-4.16,4.17-4.16,10.92,0,15.08C314.88,79.15,317.61,80.19,320.34,80.19z"/>
			<path d="M107.21,358.06l-4.53,4.52c-4.17,4.16-4.17,10.92,0,15.08c2.08,2.08,4.81,3.12,7.54,3.12s5.46-1.04,7.54-3.12l4.53-4.52
				c4.17-4.17,4.17-10.92,0-15.08C118.13,353.89,111.38,353.89,107.21,358.06z"/>
		</g>
	</g>
</g>
</svg>
