<?xml version="1.0" encoding="utf-8"?>
<!-- Generator: Adobe Illustrator 23.0.3, SVG Export Plug-In . SVG Version: 6.00 Build 0)  -->
<svg version="1.1" id="Capa_1" xmlns="http://www.w3.org/2000/svg" xmlns:xlink="http://www.w3.org/1999/xlink" x="0px" y="0px"
	 viewBox="0 0 470 364.15" style="enable-background:new 0 0 470 364.15;" xml:space="preserve">
<g>
	<path d="M432.5,163.12c-4.14,0-7.5-3.36-7.5-7.5c0-48.47-18.32-85.04-54.45-108.69C338.18,25.74,292.57,15,235,15
		S131.83,25.74,99.46,46.93C63.32,70.59,45,107.16,45,155.62c0,4.14-3.36,7.5-7.5,7.5s-7.5-3.36-7.5-7.5C30,55.27,102.81,0,235,0
		s205,55.27,205,155.62C440,159.77,436.65,163.12,432.5,163.12z"/>
	<path d="M108,81.77c-4.14,0-7.5,3.37-7.5,7.5s3.36,7.5,7.5,7.5s7.5-3.37,7.5-7.5S112.14,81.77,108,81.77z"/>
	<path d="M354.5,89.27c0,4.13,3.36,7.5,7.5,7.5s7.5-3.37,7.5-7.5s-3.36-7.5-7.5-7.5S354.5,85.14,354.5,89.27z"/>
	<path d="M332,303.77c4.14,0,7.5,3.36,7.5,7.5s-3.36,7.5-7.5,7.5s-7.5-3.36-7.5-7.5S327.87,303.77,332,303.77z"/>
	<path d="M138,102.77c-4.13,0-7.5,3.37-7.5,7.5s3.37,7.5,7.5,7.5s7.5-3.37,7.5-7.5S142.14,102.77,138,102.77z"/>
	<path d="M372.5,364.15h-275c-37.22,0-67.5-30.28-67.5-67.5c0-4.14,3.36-7.5,7.5-7.5s7.5,3.36,7.5,7.5c0,28.95,23.55,52.5,52.5,52.5
		h275c28.95,0,52.5-23.55,52.5-52.5c0-4.14,3.36-7.5,7.5-7.5s7.5,3.36,7.5,7.5C440,333.87,409.72,364.15,372.5,364.15z"/>
	<path d="M432.5,238.13h-395c-20.68,0-37.5-16.82-37.5-37.5v-15c0-20.68,16.82-37.5,37.5-37.5h395c20.68,0,37.5,16.82,37.5,37.5v15
		C470,221.3,453.18,238.13,432.5,238.13z M37.5,163.12c-12.41,0-22.5,10.09-22.5,22.5v15c0,12.41,10.09,22.5,22.5,22.5h395
		c12.41,0,22.5-10.09,22.5-22.5v-15c0-12.41-10.09-22.5-22.5-22.5L37.5,163.12L37.5,163.12z"/>
	<path d="M386.67,288.12c-20.82,0-31.76-5.77-41.42-10.87c-9.29-4.9-17.32-9.13-34.42-9.13c-17.1,0-25.13,4.23-34.42,9.13
		c-9.66,5.09-20.6,10.87-41.42,10.87c-20.81,0-31.76-5.77-41.41-10.87c-9.29-4.9-17.32-9.13-34.42-9.13s-25.12,4.23-34.42,9.13
		c-9.66,5.09-20.6,10.87-41.42,10.87c-20.81,0-31.76-5.77-41.42-10.87c-9.29-4.9-17.32-9.13-34.42-9.13c-4.14,0-7.5-3.36-7.5-7.5
		s3.36-7.5,7.5-7.5c20.81,0,31.76,5.77,41.42,10.87c9.29,4.9,17.32,9.13,34.42,9.13s25.12-4.23,34.42-9.13
		c9.66-5.09,20.6-10.87,41.42-10.87c20.81,0,31.76,5.77,41.42,10.87c9.29,4.9,17.32,9.13,34.42,9.13s25.12-4.23,34.42-9.13
		c9.66-5.09,20.6-10.87,41.42-10.87s31.76,5.77,41.42,10.87c9.29,4.9,17.32,9.13,34.42,9.13s25.13-4.23,34.42-9.13
		c9.66-5.09,20.6-10.87,41.42-10.87c4.14,0,7.5,3.36,7.5,7.5s-3.36,7.5-7.5,7.5c-17.1,0-25.13,4.23-34.42,9.13
		C418.43,282.35,407.48,288.12,386.67,288.12z"/>
</g>
</svg>
