<?xml version="1.0" encoding="utf-8"?>
<!-- Generator: Adobe Illustrator 23.0.3, SVG Export Plug-In . SVG Version: 6.00 Build 0)  -->
<svg version="1.1" id="Capa_1" xmlns="http://www.w3.org/2000/svg" xmlns:xlink="http://www.w3.org/1999/xlink" x="0px" y="0px"
	 viewBox="0 0 203.3 193.77" style="enable-background:new 0 0 203.3 193.77;" xml:space="preserve">
<path d="M71.63,193.77c-1.67,0-3.2-0.92-3.98-2.39l-14.63-27.57l-30.74-5.39c-2.4-0.42-4.02-2.65-3.68-5.06l4.37-30.91l-21.7-22.43
	c-1.7-1.75-1.7-4.5,0-6.26l21.7-22.43L18.6,40.42c-0.34-2.42,1.27-4.64,3.68-5.06l30.74-5.39L67.65,2.39C68.44,0.92,69.96,0,71.63,0
	c0.69,0,1.35,0.15,1.97,0.46l28.04,13.71l28.04-13.71c0.62-0.3,1.29-0.46,1.97-0.46c1.67,0,3.2,0.92,3.98,2.39l14.63,27.57
	l30.74,5.39c2.4,0.42,4.02,2.65,3.68,5.06l-4.37,30.91l21.7,22.43c1.7,1.75,1.7,4.5,0,6.26l-21.7,22.43l4.37,30.91
	c0.34,2.42-1.27,4.64-3.68,5.06l-30.74,5.39l-14.63,27.57c-0.78,1.48-2.31,2.39-3.98,2.39c-0.69,0-1.35-0.15-1.97-0.46l-28.05-13.71
	L73.6,193.31C72.98,193.62,72.32,193.77,71.63,193.77z M59.94,36.13c-0.66,1.23-1.82,2.08-3.2,2.32l-28.62,5.02l4.07,28.77
	c0.19,1.36-0.26,2.77-1.22,3.76l-20.2,20.88l20.2,20.89c0.96,0.99,1.42,2.39,1.22,3.76l-4.07,28.78l28.62,5.02
	c1.38,0.24,2.54,1.09,3.2,2.32l13.62,25.67l26.11-12.76c0.61-0.3,1.29-0.46,1.98-0.46s1.36,0.16,1.98,0.46l26.11,12.76l13.62-25.67
	c0.65-1.23,1.82-2.08,3.2-2.32l28.62-5.02l-4.07-28.78c-0.19-1.37,0.26-2.77,1.22-3.76l20.2-20.89L172.32,76
	c-0.97-1-1.42-2.38-1.22-3.76l4.07-28.77l-28.62-5.02c-1.36-0.24-2.55-1.11-3.2-2.32l-13.62-25.67l-26.11,12.76
	c-0.61,0.3-1.3,0.46-1.98,0.46c-0.68,0-1.36-0.16-1.97-0.46L73.56,10.46L59.94,36.13z"/>
<g>
	<path d="M77.83,89.23c8.91,0,16.16-7.25,16.16-16.16c0-8.91-7.25-16.16-16.16-16.16c-8.91,0-16.16,7.25-16.16,16.16
		C61.66,81.98,68.91,89.23,77.83,89.23z M77.83,64.9c4.5,0,8.16,3.66,8.16,8.16c0,4.5-3.66,8.16-8.16,8.16
		c-4.5,0-8.16-3.66-8.16-8.16C69.66,68.57,73.33,64.9,77.83,64.9z"/>
	<path d="M137.63,64.9c0-1.07-0.42-2.07-1.17-2.83c-0.75-0.76-1.76-1.17-2.83-1.17c-1.07,0-2.07,0.42-2.83,1.17l-63.97,63.97
		c-0.76,0.75-1.17,1.76-1.17,2.83c0,1.07,0.42,2.07,1.17,2.83c0.75,0.75,1.76,1.17,2.83,1.17c1.07,0,2.07-0.42,2.83-1.17
		l63.97-63.97C137.22,66.98,137.63,65.97,137.63,64.9z"/>
	<path d="M125.47,104.55c-8.91,0-16.16,7.25-16.16,16.16c0,8.91,7.25,16.16,16.16,16.16c8.91,0,16.16-7.25,16.16-16.16
		C141.63,111.8,134.38,104.55,125.47,104.55z M125.47,128.87c-4.5,0-8.16-3.66-8.16-8.16c0-4.5,3.66-8.16,8.16-8.16
		c4.5,0,8.16,3.66,8.16,8.16C133.63,125.21,129.97,128.87,125.47,128.87z"/>
</g>
</svg>
