<?xml version="1.0" encoding="utf-8"?>
<!-- Generator: Adobe Illustrator 23.0.3, SVG Export Plug-In . SVG Version: 6.00 Build 0)  -->
<svg version="1.1" id="Layer_1" xmlns="http://www.w3.org/2000/svg" xmlns:xlink="http://www.w3.org/1999/xlink" x="0px" y="0px"
	 viewBox="0 0 45.28 48.38" style="enable-background:new 0 0 45.28 48.38;" xml:space="preserve">
<style type="text/css">
	.st0{fill:#6E6F71;}
</style>
<path class="st0" d="M42.02,17.35h-2.89V8.97C39.12,4.02,35.1,0,30.16,0H15.12c-4.94,0-8.97,4.02-8.97,8.97v8.39h-2.9
	C1.46,17.35,0,18.81,0,20.61v1.82c0,1.79,1.46,3.25,3.25,3.25h2.9v3.56L5.81,29.3c-1.01,0.17-1.93,0.69-2.6,1.46
	c-0.68,0.79-1.05,1.79-1.05,2.82v3.44c0,2.4,1.96,4.36,4.36,4.36h1.74v5.03H4.94v1.97h35.41v-1.97h-1.95v-5.03l0.4,0
	c1.15-0.01,2.24-0.47,3.05-1.29c0.82-0.82,1.26-1.91,1.26-3.06v-3.44c0-1.08-0.4-2.12-1.14-2.92c-0.73-0.79-1.72-1.29-2.79-1.4
	l-0.36-0.04v-3.56h3.19c1.8,0,3.26-1.46,3.26-3.25v-1.82C45.28,18.81,43.81,17.35,42.02,17.35z M41.14,37.02
	c0,1.32-1.07,2.39-2.39,2.39H6.52c-1.32,0-2.39-1.07-2.39-2.39v-3.44c0-1.32,1.07-2.39,2.39-2.39h32.23c1.32,0,2.39,1.07,2.39,2.39
	V37.02z M36.42,41.38v5.03h-2.63v-5.03H36.42z M31.82,41.38v5.03H14.84v-5.03H31.82z M12.86,41.38v5.03h-2.63v-5.03H12.86z
	 M1.97,20.61c0-0.7,0.59-1.29,1.28-1.29h4.54c0.7,0,1.28,0.59,1.28,1.29v1.82c0,0.71-0.58,1.29-1.28,1.29H3.25
	c-0.71,0-1.28-0.58-1.28-1.29V20.61z M15.12,1.97h15.04c3.86,0,6.99,3.14,6.99,7v8.46l-0.32,0.07c-0.73,0.15-1.39,0.54-1.86,1.09
	c-0.49,0.57-0.75,1.27-0.75,2.02v1.82c0,1.41,0.94,2.64,2.34,3.06l0.29,0.09v3.65H8.12V25.6l0.32-0.07
	c0.73-0.15,1.39-0.54,1.86-1.09c0.49-0.57,0.74-1.27,0.74-2.02v-1.82c0-0.75-0.26-1.45-0.74-2.02c-0.47-0.55-1.13-0.94-1.86-1.09
	l-0.32-0.07V8.97C8.12,5.11,11.26,1.97,15.12,1.97z M36.2,22.42v-1.82c0-0.7,0.59-1.29,1.28-1.29h4.54c0.7,0,1.28,0.59,1.28,1.29
	v1.82c0,0.71-0.58,1.29-1.28,1.29h-4.54C36.77,23.71,36.2,23.13,36.2,22.42z"/>
<text transform="matrix(1 0 0 1 683 384)" style="font-family:'MyriadPro-Regular'; font-size:12px;">main-logo</text>
</svg>
