<?xml version="1.0" encoding="utf-8"?>
<!-- Generator: Adobe Illustrator 23.0.3, SVG Export Plug-In . SVG Version: 6.00 Build 0)  -->
<svg version="1.1" id="Layer_1" xmlns="http://www.w3.org/2000/svg" xmlns:xlink="http://www.w3.org/1999/xlink" x="0px" y="0px"
	 viewBox="0 0 497.85 497.85" style="enable-background:new 0 0 497.85 497.85;" xml:space="preserve">
<rect x="328.01" y="142.88" transform="matrix(0.707 -0.7072 0.7072 0.707 -10.4168 285.5918)" width="22.92" height="24.98"/>
<rect x="297.25" y="113.4" transform="matrix(0.7071 -0.7071 0.7071 0.7071 1.3998 255.1592)" width="22.92" height="24.98"/>
<rect x="358.2" y="175.52" transform="matrix(0.7071 -0.7071 0.7071 0.7071 -24.6739 316.4589)" width="22.92" height="24.98"/>
<path d="M176.26,483.53c2.05-3.33,3.14-7.17,3.14-11.18c0-5.72-2.23-11.09-6.27-15.13c-4.03-4.03-9.4-6.25-15.12-6.25
	c-4.01,0-7.85,1.09-11.18,3.14l-14.75-14.75c5.04-8.24,4-19.18-3.12-26.3c-4.04-4.04-9.41-6.26-15.13-6.26
	c-4.01,0-7.85,1.09-11.18,3.14l-14.75-14.75c5.04-8.24,4-19.17-3.12-26.3c-4.04-4.04-9.41-6.26-15.13-6.26
	c-4.01,0-7.85,1.09-11.18,3.14l-14.75-14.75c5.04-8.24,4-19.18-3.12-26.3c-4.05-4.04-9.42-6.27-15.13-6.27
	c-4.01,0-7.84,1.09-11.18,3.14L0,307.26L307.26,0l14.33,14.33c-2.05,3.33-3.14,7.17-3.14,11.18c0,5.71,2.22,11.08,6.26,15.13
	c4.04,4.04,9.41,6.26,15.13,6.26c4.01,0,7.85-1.09,11.18-3.14l14.75,14.75c-5.04,8.24-4,19.18,3.12,26.3
	c4.04,4.04,9.41,6.26,15.12,6.26c4.01,0,7.85-1.09,11.18-3.14l14.75,14.75c-5.04,8.24-4,19.18,3.12,26.3
	c4.04,4.04,9.41,6.26,15.12,6.26c4.01,0,7.85-1.09,11.18-3.14l14.75,14.75c-5.04,8.24-4,19.17,3.12,26.3
	c4.05,4.04,9.42,6.27,15.13,6.27c4.01,0,7.84-1.1,11.18-3.14l14.33,14.33L190.59,497.85L176.26,483.53z M35.71,299.38l6.61,2.97
	c4.56,2.05,8.67,4.89,12.23,8.44c7.31,7.31,11.56,17.04,11.97,27.4l0.18,4.61l4.61,0.18c10.37,0.41,20.1,4.66,27.4,11.97
	c7.31,7.31,11.56,17.04,11.97,27.4l0.18,4.62l4.62,0.18c10.36,0.41,20.09,4.66,27.4,11.97c7.31,7.31,11.56,17.04,11.97,27.4
	l0.18,4.62l4.61,0.18c10.37,0.41,20.1,4.66,27.41,11.97c3.56,3.56,6.4,7.67,8.44,12.23l2.97,6.61l263.67-263.67l-6.61-2.97
	c-4.55-2.05-8.67-4.89-12.23-8.44c-7.3-7.3-11.55-17.04-11.97-27.4l-0.18-4.61l-4.62-0.18c-10.36-0.41-20.09-4.66-27.4-11.97
	c-7.31-7.31-11.56-17.04-11.97-27.4l-0.18-4.62l-4.62-0.18c-10.36-0.41-20.09-4.66-27.4-11.97c-7.31-7.31-11.56-17.04-11.97-27.4
	l-0.18-4.61l-4.61-0.18c-10.37-0.41-20.1-4.66-27.41-11.97c-3.56-3.56-6.4-7.67-8.44-12.23l-2.97-6.61L35.71,299.38z"/>
<path d="M110.2,296.39l139.44-139.44l91.26,91.26L201.46,387.65L110.2,296.39z M134.03,296.39l67.44,67.44l115.62-115.62
	l-67.44-67.44L134.03,296.39z"/>
<g>
	<path d="M257.2,51.75L228.93,79.9l4.77-58.26c0.15-1.87-0.45-3.73-1.67-5.17c-1.22-1.43-2.96-2.32-4.84-2.47l-21.36-1.67
		c-3.58-0.28-6.8,2.17-7.49,5.69c-1.76,8.96-9.96,15.18-19.06,14.47c-9.08-0.71-16.14-8.09-16.42-17.18
		c-0.11-3.61-2.92-6.56-6.52-6.84l-17.28-1.35c-3.58-0.28-6.8,2.17-7.49,5.69c-1.76,8.96-9.96,15.18-19.06,14.47
		c-9.08-0.71-16.14-8.09-16.42-17.18c-0.11-3.61-2.92-6.56-6.52-6.84L68.21,1.61c-3.88-0.3-7.28,2.59-7.6,6.48L46.07,184.02
		c-0.32,3.89,2.58,7.31,6.47,7.63c3.89,0.32,7.31-2.58,7.63-6.47L74.14,16.27l8.65,0.67C85.92,30.22,97.3,40.3,111.41,41.4
		c14.09,1.1,26.97-7.1,32.2-19.72l5.96,0.46c3.13,13.28,14.52,23.36,28.62,24.46c14.09,1.1,26.97-7.1,32.2-19.72l8.63,0.67
		l-5.55,67.73L54.72,253.37l6.3-76.91c0.32-3.89-2.58-7.31-6.47-7.63c-3.89-0.32-7.31,2.58-7.63,6.47l-7.65,93.46l-28.74,28.62"/>
</g>
</svg>
