<?xml version="1.0" encoding="utf-8"?>
<!-- Generator: Adobe Illustrator 23.0.3, SVG Export Plug-In . SVG Version: 6.00 Build 0)  -->
<svg version="1.1" id="Layer_1" xmlns="http://www.w3.org/2000/svg" xmlns:xlink="http://www.w3.org/1999/xlink" x="0px" y="0px"
	 viewBox="0 0 238.65 317.77" style="enable-background:new 0 0 238.65 317.77;" xml:space="preserve">
<style type="text/css">
	.st0{fill:#1DA1F2;}
	.st1{fill:#FFFFFF;}
</style>
<g>
	<path class="st0" d="M97.67,317.27c-28.48-2.97-52.78-16.64-70.22-39.52C10.44,255.42,1.12,226.08,0.5,192.88V39.56
		C0.5,18.02,18.02,0.5,39.56,0.5h3.71c21.54,0,39.07,17.52,39.07,39.06v38.83h116.73c21.55,0,39.08,17.53,39.08,39.07v3.7
		c0,21.55-17.53,39.07-39.08,39.07H82.34v32.65c0,18.47,10.07,38.78,32.56,42.53l84.17,0.01c21.55,0,39.08,17.53,39.08,39.07v3.71
		c0,21.91-17.17,39.07-39.08,39.07H97.67z"/>
	<path class="st1" d="M43.27,1C53.17,1,63,5.06,70.24,12.15c7.48,7.32,11.6,17.05,11.6,27.41l0,38.33l0,1h1h116.23
		c10.36,0,20.1,4.12,27.42,11.6c7.09,7.24,11.16,17.07,11.16,26.97v3.7c0,9.9-4.07,19.73-11.16,26.97
		c-7.33,7.48-17.06,11.6-27.42,11.6H82.84h-1v1v29.67v2.47c0,10.01,2.81,19.65,7.9,27.15c5.87,8.63,14.54,14.12,25.07,15.88
		l0.08,0.01h0.08h84.09c10.36,0,20.1,4.12,27.42,11.6c7.09,7.24,11.16,17.07,11.16,26.97v3.71c0,21.63-16.95,38.57-38.58,38.57
		h-86.56h-6.19h-2.46h-6.14c-28.37-2.97-52.53-16.57-69.88-39.33C10.9,255.2,1.62,225.96,1,192.89v-2.47V39.56
		c0-10.36,4.12-20.09,11.6-27.41C19.84,5.06,29.67,1,39.56,1H43.27 M43.27,0h-3.71C18.55,0,0,17.31,0,39.56v150.85
		c0,1.23,0,2.47,0,2.47c1.24,66.76,38.34,118.7,97.67,124.88c2.48,0,3.72,0,6.19,0h2.46c2.48,0,3.72,0,6.19,0h86.56
		c22.26,0,39.58-17.31,39.58-39.57v-3.71c0-21.02-17.32-39.57-39.58-39.57h-84.09c-22.24-3.71-32.14-23.49-32.14-42.04
		c0-1.24,0-2.47,0-2.47v-29.67h116.23c22.26,0,39.58-18.55,39.58-39.57v-3.7c0-21.02-17.32-39.57-39.58-39.57H82.84h0h0l0-38.33
		C82.84,17.31,64.3,0,43.27,0L43.27,0z"/>
</g>
</svg>
