<?xml version="1.0" encoding="utf-8"?>
<!-- Generator: Adobe Illustrator 23.0.3, SVG Export Plug-In . SVG Version: 6.00 Build 0)  -->
<svg version="1.1" id="Layer_1" xmlns="http://www.w3.org/2000/svg" xmlns:xlink="http://www.w3.org/1999/xlink" x="0px" y="0px"
	 viewBox="0 0 255.31 322.19" style="enable-background:new 0 0 255.31 322.19;" xml:space="preserve">
<path d="M36.31,219.82C13.57,195.16,0,161.05,0,128.57c0-34.18,13.27-66.36,37.36-90.6C61.44,13.73,93.52,0.25,127.69,0
	c34.1,0.25,66.17,13.73,90.25,37.97c24.09,24.25,37.36,56.42,37.37,90.6c0,32.7-13.68,66.93-36.61,91.58l-91.02,102.04L36.31,219.82
	z M127.63,21.26C68.97,21.81,21.26,69.95,21.26,128.57c0,27.09,11.35,55.68,30.35,76.47l0.12,0.13l75.96,86.96l75.71-86.73
	l0.05-0.06c19.17-20.77,30.61-49.47,30.61-76.77C234.05,69.95,186.34,21.81,127.7,21.26h-0.04H127.63z"/>
<path d="M127.67,174.86c-26.03,0-47.2-21.17-47.2-47.2c0-26.03,21.17-47.2,47.2-47.2c26.03,0,47.2,21.17,47.2,47.2
	C174.86,153.68,153.69,174.86,127.67,174.86z M127.67,101.71c-14.31,0-25.94,11.64-25.94,25.94s11.64,25.94,25.94,25.94
	c14.3,0,25.94-11.64,25.94-25.94S141.97,101.71,127.67,101.71z"/>
</svg>
