<?xml version="1.0" encoding="utf-8"?>
<!-- Generator: Adobe Illustrator 23.0.3, SVG Export Plug-In . SVG Version: 6.00 Build 0)  -->
<svg version="1.1" id="object" xmlns="http://www.w3.org/2000/svg" xmlns:xlink="http://www.w3.org/1999/xlink" x="0px" y="0px"
	 viewBox="0 0 250.34 252.78" style="enable-background:new 0 0 250.34 252.78;" xml:space="preserve">
<g>
	<rect width="10.01" height="10.11"/>
	<rect x="10.01" width="10.01" height="10.11"/>
	<rect x="20.03" width="10.01" height="10.11"/>
	<rect x="30.04" width="10.01" height="10.11"/>
	<rect x="40.05" width="10.01" height="10.11"/>
	<rect x="50.07" width="10.01" height="10.11"/>
	<rect x="60.08" width="10.01" height="10.11"/>
	<rect x="80.11" width="10.01" height="10.11"/>
	<rect x="90.12" width="10.01" height="10.11"/>
	<rect x="100.13" width="10.01" height="10.11"/>
	<rect x="110.15" width="10.01" height="10.11"/>
	<rect x="180.24" width="10.01" height="10.11"/>
	<rect x="190.26" width="10.01" height="10.11"/>
	<rect x="200.27" width="10.01" height="10.11"/>
	<rect x="210.28" width="10.01" height="10.11"/>
	<rect x="220.3" width="10.01" height="10.11"/>
	<rect x="230.31" width="10.01" height="10.11"/>
	<rect x="240.32" width="10.01" height="10.11"/>
	<rect y="10.11" width="10.01" height="10.11"/>
	<rect x="60.08" y="10.11" width="10.01" height="10.11"/>
	<rect x="110.15" y="10.11" width="10.01" height="10.11"/>
	<rect x="120.16" y="10.11" width="10.01" height="10.11"/>
	<rect x="130.17" y="10.11" width="10.01" height="10.11"/>
	<rect x="140.19" y="10.11" width="10.01" height="10.11"/>
	<rect x="160.21" y="10.11" width="10.01" height="10.11"/>
	<rect x="180.24" y="10.11" width="10.01" height="10.11"/>
	<rect x="240.32" y="10.11" width="10.01" height="10.11"/>
	<rect y="20.22" width="10.01" height="10.11"/>
	<rect x="20.03" y="20.22" width="10.01" height="10.11"/>
	<rect x="30.04" y="20.22" width="10.01" height="10.11"/>
	<rect x="40.05" y="20.22" width="10.01" height="10.11"/>
	<rect x="60.08" y="20.22" width="10.01" height="10.11"/>
	<rect x="90.12" y="20.22" width="10.01" height="10.11"/>
	<rect x="110.15" y="20.22" width="10.01" height="10.11"/>
	<rect x="130.17" y="20.22" width="10.01" height="10.11"/>
	<rect x="150.2" y="20.22" width="10.01" height="10.11"/>
	<rect x="160.21" y="20.22" width="10.01" height="10.11"/>
	<rect x="180.24" y="20.22" width="10.01" height="10.11"/>
	<rect x="200.27" y="20.22" width="10.01" height="10.11"/>
	<rect x="210.28" y="20.22" width="10.01" height="10.11"/>
	<rect x="220.3" y="20.22" width="10.01" height="10.11"/>
	<rect x="240.32" y="20.22" width="10.01" height="10.11"/>
	<rect y="30.33" width="10.01" height="10.11"/>
	<rect x="20.03" y="30.33" width="10.01" height="10.11"/>
	<rect x="30.04" y="30.33" width="10.01" height="10.11"/>
	<rect x="40.05" y="30.33" width="10.01" height="10.11"/>
	<rect x="60.08" y="30.33" width="10.01" height="10.11"/>
	<rect x="100.13" y="30.33" width="10.01" height="10.11"/>
	<rect x="110.15" y="30.33" width="10.01" height="10.11"/>
	<rect x="130.17" y="30.33" width="10.01" height="10.11"/>
	<rect x="150.2" y="30.33" width="10.01" height="10.11"/>
	<rect x="160.21" y="30.33" width="10.01" height="10.11"/>
	<rect x="180.24" y="30.33" width="10.01" height="10.11"/>
	<rect x="200.27" y="30.33" width="10.01" height="10.11"/>
	<rect x="210.28" y="30.33" width="10.01" height="10.11"/>
	<rect x="220.3" y="30.33" width="10.01" height="10.11"/>
	<rect x="240.32" y="30.33" width="10.01" height="10.11"/>
	<rect y="40.44" width="10.01" height="10.11"/>
	<rect x="20.03" y="40.44" width="10.01" height="10.11"/>
	<rect x="30.04" y="40.44" width="10.01" height="10.11"/>
	<rect x="40.05" y="40.44" width="10.01" height="10.11"/>
	<rect x="60.08" y="40.44" width="10.01" height="10.11"/>
	<rect x="100.13" y="40.44" width="10.01" height="10.11"/>
	<rect x="110.15" y="40.44" width="10.01" height="10.11"/>
	<rect x="120.16" y="40.44" width="10.01" height="10.11"/>
	<rect x="140.19" y="40.44" width="10.01" height="10.11"/>
	<rect x="160.21" y="40.44" width="10.01" height="10.11"/>
	<rect x="180.24" y="40.44" width="10.01" height="10.11"/>
	<rect x="200.27" y="40.44" width="10.01" height="10.11"/>
	<rect x="210.28" y="40.44" width="10.01" height="10.11"/>
	<rect x="220.3" y="40.44" width="10.01" height="10.11"/>
	<rect x="240.32" y="40.44" width="10.01" height="10.11"/>
	<rect x="0" y="50.56" width="10.01" height="10.11"/>
	<rect x="60.08" y="50.56" width="10.01" height="10.11"/>
	<rect x="90.12" y="50.56" width="10.01" height="10.11"/>
	<rect x="110.15" y="50.56" width="10.01" height="10.11"/>
	<rect x="140.19" y="50.56" width="10.01" height="10.11"/>
	<rect x="160.21" y="50.56" width="10.01" height="10.11"/>
	<rect x="180.24" y="50.56" width="10.01" height="10.11"/>
	<rect x="240.32" y="50.56" width="10.01" height="10.11"/>
	<rect y="60.67" width="10.01" height="10.11"/>
	<rect x="10.01" y="60.67" width="10.01" height="10.11"/>
	<rect x="20.03" y="60.67" width="10.01" height="10.11"/>
	<rect x="30.04" y="60.67" width="10.01" height="10.11"/>
	<rect x="40.05" y="60.67" width="10.01" height="10.11"/>
	<rect x="50.07" y="60.67" width="10.01" height="10.11"/>
	<rect x="60.08" y="60.67" width="10.01" height="10.11"/>
	<rect x="80.11" y="60.67" width="10.01" height="10.11"/>
	<rect x="100.13" y="60.67" width="10.01" height="10.11"/>
	<rect x="120.16" y="60.67" width="10.01" height="10.11"/>
	<rect x="140.19" y="60.67" width="10.01" height="10.11"/>
	<rect x="160.21" y="60.67" width="10.01" height="10.11"/>
	<rect x="180.24" y="60.67" width="10.01" height="10.11"/>
	<rect x="190.26" y="60.67" width="10.01" height="10.11"/>
	<rect x="200.27" y="60.67" width="10.01" height="10.11"/>
	<rect x="210.28" y="60.67" width="10.01" height="10.11"/>
	<rect x="220.3" y="60.67" width="10.01" height="10.11"/>
	<rect x="230.31" y="60.67" width="10.01" height="10.11"/>
	<rect x="240.32" y="60.67" width="10.01" height="10.11"/>
	<rect x="80.11" y="70.78" width="10.01" height="10.11"/>
	<rect x="90.12" y="70.78" width="10.01" height="10.11"/>
	<rect x="120.16" y="70.78" width="10.01" height="10.11"/>
	<rect x="130.17" y="70.78" width="10.01" height="10.11"/>
	<rect y="80.89" width="10.01" height="10.11"/>
	<rect x="10.01" y="80.89" width="10.01" height="10.11"/>
	<rect x="30.04" y="80.89" width="10.01" height="10.11"/>
	<rect x="40.05" y="80.89" width="10.01" height="10.11"/>
	<rect x="60.08" y="80.89" width="10.01" height="10.11"/>
	<rect x="90.12" y="80.89" width="10.01" height="10.11"/>
	<rect x="120.16" y="80.89" width="10.01" height="10.11"/>
	<rect x="140.19" y="80.89" width="10.01" height="10.11"/>
	<rect x="150.2" y="80.89" width="10.01" height="10.11"/>
	<rect x="180.24" y="80.89" width="10.01" height="10.11"/>
	<rect x="240.32" y="80.89" width="10.01" height="10.11"/>
	<rect y="91" width="10.01" height="10.11"/>
	<rect x="10.01" y="91" width="10.01" height="10.11"/>
	<rect x="20.03" y="91" width="10.01" height="10.11"/>
	<rect x="40.05" y="91" width="10.01" height="10.11"/>
	<rect x="50.07" y="91" width="10.01" height="10.11"/>
	<rect x="70.09" y="91" width="10.01" height="10.11"/>
	<rect x="100.13" y="91" width="10.01" height="10.11"/>
	<rect x="130.17" y="91" width="10.01" height="10.11"/>
	<rect x="140.19" y="91" width="10.01" height="10.11"/>
	<rect x="150.2" y="91" width="10.01" height="10.11"/>
	<rect x="170.23" y="91" width="10.01" height="10.11"/>
	<rect x="190.26" y="91" width="10.01" height="10.11"/>
	<rect x="200.27" y="91" width="10.01" height="10.11"/>
	<rect x="210.28" y="91" width="10.01" height="10.11"/>
	<rect x="220.3" y="91" width="10.01" height="10.11"/>
	<rect x="230.31" y="91" width="10.01" height="10.11"/>
	<rect y="101.11" width="10.01" height="10.11"/>
	<rect x="20.03" y="101.11" width="10.01" height="10.11"/>
	<rect x="40.05" y="101.11" width="10.01" height="10.11"/>
	<rect x="60.08" y="101.11" width="10.01" height="10.11"/>
	<rect x="70.09" y="101.11" width="10.01" height="10.11"/>
	<rect x="80.11" y="101.11" width="10.01" height="10.11"/>
	<rect x="90.12" y="101.11" width="10.01" height="10.11"/>
	<rect x="120.16" y="101.11" width="10.01" height="10.11"/>
	<rect x="150.2" y="101.11" width="10.01" height="10.11"/>
	<rect x="160.21" y="101.11" width="10.01" height="10.11"/>
	<rect x="180.24" y="101.11" width="10.01" height="10.11"/>
	<rect x="190.26" y="101.11" width="10.01" height="10.11"/>
	<rect x="210.28" y="101.11" width="10.01" height="10.11"/>
	<rect x="240.32" y="101.11" width="10.01" height="10.11"/>
	<rect y="111.22" width="10.01" height="10.11"/>
	<rect x="10.01" y="111.22" width="10.01" height="10.11"/>
	<rect x="70.09" y="111.22" width="10.01" height="10.11"/>
	<rect x="80.11" y="111.22" width="10.01" height="10.11"/>
	<rect x="150.2" y="111.22" width="10.01" height="10.11"/>
	<rect x="190.26" y="111.22" width="10.01" height="10.11"/>
	<rect x="210.28" y="111.22" width="10.01" height="10.11"/>
	<rect x="220.3" y="111.22" width="10.01" height="10.11"/>
	<rect x="230.31" y="111.22" width="10.01" height="10.11"/>
	<rect x="240.32" y="111.22" width="10.01" height="10.11"/>
	<rect x="20.03" y="121.33" width="10.01" height="10.11"/>
	<rect x="30.04" y="121.33" width="10.01" height="10.11"/>
	<rect x="60.08" y="121.33" width="10.01" height="10.11"/>
	<rect x="80.11" y="121.33" width="10.01" height="10.11"/>
	<rect x="90.12" y="121.33" width="10.01" height="10.11"/>
	<rect x="100.13" y="121.33" width="10.01" height="10.11"/>
	<rect x="140.19" y="121.33" width="10.01" height="10.11"/>
	<rect x="150.2" y="121.33" width="10.01" height="10.11"/>
	<rect x="180.24" y="121.33" width="10.01" height="10.11"/>
	<rect x="240.32" y="121.33" width="10.01" height="10.11"/>
	<rect y="131.45" width="10.01" height="10.11"/>
	<rect x="20.03" y="131.45" width="10.01" height="10.11"/>
	<rect x="30.04" y="131.45" width="10.01" height="10.11"/>
	<rect x="50.07" y="131.45" width="10.01" height="10.11"/>
	<rect x="70.09" y="131.45" width="10.01" height="10.11"/>
	<rect x="100.13" y="131.45" width="10.01" height="10.11"/>
	<rect x="120.16" y="131.45" width="10.01" height="10.11"/>
	<rect x="140.19" y="131.45" width="10.01" height="10.11"/>
	<rect x="150.2" y="131.45" width="10.01" height="10.11"/>
	<rect x="160.21" y="131.45" width="10.01" height="10.11"/>
	<rect x="170.23" y="131.45" width="10.01" height="10.11"/>
	<rect x="200.27" y="131.45" width="10.01" height="10.11"/>
	<rect x="230.31" y="131.45" width="10.01" height="10.11"/>
	<rect y="141.56" width="10.01" height="10.11"/>
	<rect x="10.01" y="141.56" width="10.01" height="10.11"/>
	<rect x="30.04" y="141.56" width="10.01" height="10.11"/>
	<rect x="40.05" y="141.56" width="10.01" height="10.11"/>
	<rect x="50.07" y="141.56" width="10.01" height="10.11"/>
	<rect x="60.08" y="141.56" width="10.01" height="10.11"/>
	<rect x="70.09" y="141.56" width="10.01" height="10.11"/>
	<rect x="90.12" y="141.56" width="10.01" height="10.11"/>
	<rect x="140.19" y="141.56" width="10.01" height="10.11"/>
	<rect x="150.2" y="141.56" width="10.01" height="10.11"/>
	<rect x="170.23" y="141.56" width="10.01" height="10.11"/>
	<rect x="180.24" y="141.56" width="10.01" height="10.11"/>
	<rect x="200.27" y="141.56" width="10.01" height="10.11"/>
	<rect x="210.28" y="141.56" width="10.01" height="10.11"/>
	<rect x="220.3" y="141.56" width="10.01" height="10.11"/>
	<rect x="230.31" y="141.56" width="10.01" height="10.11"/>
	<rect x="240.32" y="141.56" width="10.01" height="10.11"/>
	<rect y="151.67" width="10.01" height="10.11"/>
	<rect x="50.07" y="151.67" width="10.01" height="10.11"/>
	<rect x="70.09" y="151.67" width="10.01" height="10.11"/>
	<rect x="90.12" y="151.67" width="10.01" height="10.11"/>
	<rect x="120.16" y="151.67" width="10.01" height="10.11"/>
	<rect x="140.19" y="151.67" width="10.01" height="10.11"/>
	<rect x="160.21" y="151.67" width="10.01" height="10.11"/>
	<rect x="170.23" y="151.67" width="10.01" height="10.11"/>
	<rect x="190.26" y="151.67" width="10.01" height="10.11"/>
	<rect x="210.28" y="151.67" width="10.01" height="10.11"/>
	<rect x="220.3" y="151.67" width="10.01" height="10.11"/>
	<rect x="240.32" y="151.67" width="10.01" height="10.11"/>
	<rect y="161.78" width="10.01" height="10.11"/>
	<rect x="20.03" y="161.78" width="10.01" height="10.11"/>
	<rect x="30.04" y="161.78" width="10.01" height="10.11"/>
	<rect x="40.05" y="161.78" width="10.01" height="10.11"/>
	<rect x="60.08" y="161.78" width="10.01" height="10.11"/>
	<rect x="70.09" y="161.78" width="10.01" height="10.11"/>
	<rect x="100.13" y="161.78" width="10.01" height="10.11"/>
	<rect x="110.15" y="161.78" width="10.01" height="10.11"/>
	<rect x="120.16" y="161.78" width="10.01" height="10.11"/>
	<rect x="130.17" y="161.78" width="10.01" height="10.11"/>
	<rect x="150.2" y="161.78" width="10.01" height="10.11"/>
	<rect x="160.21" y="161.78" width="10.01" height="10.11"/>
	<rect x="170.23" y="161.78" width="10.01" height="10.11"/>
	<rect x="180.24" y="161.78" width="10.01" height="10.11"/>
	<rect x="190.26" y="161.78" width="10.01" height="10.11"/>
	<rect x="200.27" y="161.78" width="10.01" height="10.11"/>
	<rect x="220.3" y="161.78" width="10.01" height="10.11"/>
	<rect x="230.31" y="161.78" width="10.01" height="10.11"/>
	<rect x="80.11" y="171.89" width="10.01" height="10.11"/>
	<rect x="90.12" y="171.89" width="10.01" height="10.11"/>
	<rect x="110.15" y="171.89" width="10.01" height="10.11"/>
	<rect x="160.21" y="171.89" width="10.01" height="10.11"/>
	<rect x="200.27" y="171.89" width="10.01" height="10.11"/>
	<rect x="220.3" y="171.89" width="10.01" height="10.11"/>
	<rect x="230.31" y="171.89" width="10.01" height="10.11"/>
	<rect y="182" width="10.01" height="10.11"/>
	<rect x="10.01" y="182" width="10.01" height="10.11"/>
	<rect x="20.03" y="182" width="10.01" height="10.11"/>
	<rect x="30.04" y="182" width="10.01" height="10.11"/>
	<rect x="40.05" y="182" width="10.01" height="10.11"/>
	<rect x="50.07" y="182" width="10.01" height="10.11"/>
	<rect x="60.08" y="182" width="10.01" height="10.11"/>
	<rect x="100.13" y="182" width="10.01" height="10.11"/>
	<rect x="120.16" y="182" width="10.01" height="10.11"/>
	<rect x="140.19" y="182" width="10.01" height="10.11"/>
	<rect x="160.21" y="182" width="10.01" height="10.11"/>
	<rect x="180.24" y="182" width="10.01" height="10.11"/>
	<rect x="200.27" y="182" width="10.01" height="10.11"/>
	<rect x="240.32" y="182" width="10.01" height="10.11"/>
	<rect y="192.11" width="10.01" height="10.11"/>
	<rect x="60.08" y="192.11" width="10.01" height="10.11"/>
	<rect x="110.15" y="192.11" width="10.01" height="10.11"/>
	<rect x="130.17" y="192.11" width="10.01" height="10.11"/>
	<rect x="150.2" y="192.11" width="10.01" height="10.11"/>
	<rect x="160.21" y="192.11" width="10.01" height="10.11"/>
	<rect x="200.27" y="192.11" width="10.01" height="10.11"/>
	<rect x="240.32" y="192.11" width="10.01" height="10.11"/>
	<rect y="202.22" width="10.01" height="10.11"/>
	<rect x="20.03" y="202.22" width="10.01" height="10.11"/>
	<rect x="30.04" y="202.22" width="10.01" height="10.11"/>
	<rect x="40.05" y="202.22" width="10.01" height="10.11"/>
	<rect x="60.08" y="202.22" width="10.01" height="10.11"/>
	<rect x="80.11" y="202.22" width="10.01" height="10.11"/>
	<rect x="100.13" y="202.22" width="10.01" height="10.11"/>
	<rect x="110.15" y="202.22" width="10.01" height="10.11"/>
	<rect x="120.16" y="202.22" width="10.01" height="10.11"/>
	<rect x="140.19" y="202.22" width="10.01" height="10.11"/>
	<rect x="150.2" y="202.22" width="10.01" height="10.11"/>
	<rect x="160.21" y="202.22" width="10.01" height="10.11"/>
	<rect x="170.23" y="202.22" width="10.01" height="10.11"/>
	<rect x="180.24" y="202.22" width="10.01" height="10.11"/>
	<rect x="190.26" y="202.22" width="10.01" height="10.11"/>
	<rect x="200.27" y="202.22" width="10.01" height="10.11"/>
	<rect y="212.33" width="10.01" height="10.11"/>
	<rect x="20.03" y="212.33" width="10.01" height="10.11"/>
	<rect x="30.04" y="212.33" width="10.01" height="10.11"/>
	<rect x="40.05" y="212.33" width="10.01" height="10.11"/>
	<rect x="60.08" y="212.33" width="10.01" height="10.11"/>
	<rect x="80.11" y="212.33" width="10.01" height="10.11"/>
	<rect x="90.12" y="212.33" width="10.01" height="10.11"/>
	<rect x="120.16" y="212.33" width="10.01" height="10.11"/>
	<rect x="130.17" y="212.33" width="10.01" height="10.11"/>
	<rect x="140.19" y="212.33" width="10.01" height="10.11"/>
	<rect x="180.24" y="212.33" width="10.01" height="10.11"/>
	<rect x="230.31" y="212.33" width="10.01" height="10.11"/>
	<rect x="240.32" y="212.33" width="10.01" height="10.11"/>
	<rect y="222.45" width="10.01" height="10.11"/>
	<rect x="20.03" y="222.45" width="10.01" height="10.11"/>
	<rect x="30.04" y="222.45" width="10.01" height="10.11"/>
	<rect x="40.05" y="222.45" width="10.01" height="10.11"/>
	<rect x="60.08" y="222.45" width="10.01" height="10.11"/>
	<rect x="90.12" y="222.45" width="10.01" height="10.11"/>
	<rect x="110.15" y="222.45" width="10.01" height="10.11"/>
	<rect x="130.17" y="222.45" width="10.01" height="10.11"/>
	<rect x="150.2" y="222.45" width="10.01" height="10.11"/>
	<rect x="170.23" y="222.45" width="10.01" height="10.11"/>
	<rect x="200.27" y="222.45" width="10.01" height="10.11"/>
	<rect x="210.28" y="222.45" width="10.01" height="10.11"/>
	<rect x="220.3" y="222.45" width="10.01" height="10.11"/>
	<rect x="230.31" y="222.45" width="10.01" height="10.11"/>
	<rect x="240.32" y="222.45" width="10.01" height="10.11"/>
	<rect y="232.56" width="10.01" height="10.11"/>
	<rect x="60.08" y="232.56" width="10.01" height="10.11"/>
	<rect x="80.11" y="232.56" width="10.01" height="10.11"/>
	<rect x="100.13" y="232.56" width="10.01" height="10.11"/>
	<rect x="110.15" y="232.56" width="10.01" height="10.11"/>
	<rect x="140.19" y="232.56" width="10.01" height="10.11"/>
	<rect x="150.2" y="232.56" width="10.01" height="10.11"/>
	<rect x="190.26" y="232.56" width="10.01" height="10.11"/>
	<rect x="200.27" y="232.56" width="10.01" height="10.11"/>
	<rect x="220.3" y="232.56" width="10.01" height="10.11"/>
	<rect x="230.31" y="232.56" width="10.01" height="10.11"/>
	<rect x="240.32" y="232.56" width="10.01" height="10.11"/>
	<rect y="242.67" width="10.01" height="10.11"/>
	<rect x="10.01" y="242.67" width="10.01" height="10.11"/>
	<rect x="20.03" y="242.67" width="10.01" height="10.11"/>
	<rect x="30.04" y="242.67" width="10.01" height="10.11"/>
	<rect x="40.05" y="242.67" width="10.01" height="10.11"/>
	<rect x="50.07" y="242.67" width="10.01" height="10.11"/>
	<rect x="60.08" y="242.67" width="10.01" height="10.11"/>
	<rect x="80.11" y="242.67" width="10.01" height="10.11"/>
	<rect x="90.12" y="242.67" width="10.01" height="10.11"/>
	<rect x="100.13" y="242.67" width="10.01" height="10.11"/>
	<rect x="120.16" y="242.67" width="10.01" height="10.11"/>
	<rect x="160.21" y="242.67" width="10.01" height="10.11"/>
	<rect x="170.23" y="242.67" width="10.01" height="10.11"/>
	<rect x="210.28" y="242.67" width="10.01" height="10.11"/>
	<rect x="240.32" y="242.67" width="10.01" height="10.11"/>
</g>
<g>
	<rect width="10.01" height="10.11"/>
	<rect x="10.01" width="10.01" height="10.11"/>
	<rect x="20.03" width="10.01" height="10.11"/>
	<rect x="30.04" width="10.01" height="10.11"/>
	<rect x="40.05" width="10.01" height="10.11"/>
	<rect x="50.07" width="10.01" height="10.11"/>
	<rect x="60.08" width="10.01" height="10.11"/>
	<rect x="80.11" width="10.01" height="10.11"/>
	<rect x="90.12" width="10.01" height="10.11"/>
	<rect x="100.13" width="10.01" height="10.11"/>
	<rect x="110.15" width="10.01" height="10.11"/>
	<rect x="180.24" width="10.01" height="10.11"/>
	<rect x="190.26" width="10.01" height="10.11"/>
	<rect x="200.27" width="10.01" height="10.11"/>
	<rect x="210.28" width="10.01" height="10.11"/>
	<rect x="220.3" width="10.01" height="10.11"/>
	<rect x="230.31" width="10.01" height="10.11"/>
	<rect x="240.32" width="10.01" height="10.11"/>
	<rect y="10.11" width="10.01" height="10.11"/>
	<rect x="60.08" y="10.11" width="10.01" height="10.11"/>
	<rect x="110.15" y="10.11" width="10.01" height="10.11"/>
	<rect x="120.16" y="10.11" width="10.01" height="10.11"/>
	<rect x="130.17" y="10.11" width="10.01" height="10.11"/>
	<rect x="140.19" y="10.11" width="10.01" height="10.11"/>
	<rect x="160.21" y="10.11" width="10.01" height="10.11"/>
	<rect x="180.24" y="10.11" width="10.01" height="10.11"/>
	<rect x="240.32" y="10.11" width="10.01" height="10.11"/>
	<rect y="20.22" width="10.01" height="10.11"/>
	<rect x="20.03" y="20.22" width="10.01" height="10.11"/>
	<rect x="30.04" y="20.22" width="10.01" height="10.11"/>
	<rect x="40.05" y="20.22" width="10.01" height="10.11"/>
	<rect x="60.08" y="20.22" width="10.01" height="10.11"/>
	<rect x="90.12" y="20.22" width="10.01" height="10.11"/>
	<rect x="110.15" y="20.22" width="10.01" height="10.11"/>
	<rect x="130.17" y="20.22" width="10.01" height="10.11"/>
	<rect x="150.2" y="20.22" width="10.01" height="10.11"/>
	<rect x="160.21" y="20.22" width="10.01" height="10.11"/>
	<rect x="180.24" y="20.22" width="10.01" height="10.11"/>
	<rect x="200.27" y="20.22" width="10.01" height="10.11"/>
	<rect x="210.28" y="20.22" width="10.01" height="10.11"/>
	<rect x="220.3" y="20.22" width="10.01" height="10.11"/>
	<rect x="240.32" y="20.22" width="10.01" height="10.11"/>
	<rect y="30.33" width="10.01" height="10.11"/>
	<rect x="20.03" y="30.33" width="10.01" height="10.11"/>
	<rect x="30.04" y="30.33" width="10.01" height="10.11"/>
	<rect x="40.05" y="30.33" width="10.01" height="10.11"/>
	<rect x="60.08" y="30.33" width="10.01" height="10.11"/>
	<rect x="100.13" y="30.33" width="10.01" height="10.11"/>
	<rect x="110.15" y="30.33" width="10.01" height="10.11"/>
	<rect x="130.17" y="30.33" width="10.01" height="10.11"/>
	<rect x="150.2" y="30.33" width="10.01" height="10.11"/>
	<rect x="160.21" y="30.33" width="10.01" height="10.11"/>
	<rect x="180.24" y="30.33" width="10.01" height="10.11"/>
	<rect x="200.27" y="30.33" width="10.01" height="10.11"/>
	<rect x="210.28" y="30.33" width="10.01" height="10.11"/>
	<rect x="220.3" y="30.33" width="10.01" height="10.11"/>
	<rect x="240.32" y="30.33" width="10.01" height="10.11"/>
	<rect y="40.44" width="10.01" height="10.11"/>
	<rect x="20.03" y="40.44" width="10.01" height="10.11"/>
	<rect x="30.04" y="40.44" width="10.01" height="10.11"/>
	<rect x="40.05" y="40.44" width="10.01" height="10.11"/>
	<rect x="60.08" y="40.44" width="10.01" height="10.11"/>
	<rect x="100.13" y="40.44" width="10.01" height="10.11"/>
	<rect x="110.15" y="40.44" width="10.01" height="10.11"/>
	<rect x="120.16" y="40.44" width="10.01" height="10.11"/>
	<rect x="140.19" y="40.44" width="10.01" height="10.11"/>
	<rect x="160.21" y="40.44" width="10.01" height="10.11"/>
	<rect x="180.24" y="40.44" width="10.01" height="10.11"/>
	<rect x="200.27" y="40.44" width="10.01" height="10.11"/>
	<rect x="210.28" y="40.44" width="10.01" height="10.11"/>
	<rect x="220.3" y="40.44" width="10.01" height="10.11"/>
	<rect x="240.32" y="40.44" width="10.01" height="10.11"/>
	<rect x="0" y="50.56" width="10.01" height="10.11"/>
	<rect x="60.08" y="50.56" width="10.01" height="10.11"/>
	<rect x="90.12" y="50.56" width="10.01" height="10.11"/>
	<rect x="110.15" y="50.56" width="10.01" height="10.11"/>
	<rect x="140.19" y="50.56" width="10.01" height="10.11"/>
	<rect x="160.21" y="50.56" width="10.01" height="10.11"/>
	<rect x="180.24" y="50.56" width="10.01" height="10.11"/>
	<rect x="240.32" y="50.56" width="10.01" height="10.11"/>
	<rect y="60.67" width="10.01" height="10.11"/>
	<rect x="10.01" y="60.67" width="10.01" height="10.11"/>
	<rect x="20.03" y="60.67" width="10.01" height="10.11"/>
	<rect x="30.04" y="60.67" width="10.01" height="10.11"/>
	<rect x="40.05" y="60.67" width="10.01" height="10.11"/>
	<rect x="50.07" y="60.67" width="10.01" height="10.11"/>
	<rect x="60.08" y="60.67" width="10.01" height="10.11"/>
	<rect x="80.11" y="60.67" width="10.01" height="10.11"/>
	<rect x="100.13" y="60.67" width="10.01" height="10.11"/>
	<rect x="120.16" y="60.67" width="10.01" height="10.11"/>
	<rect x="140.19" y="60.67" width="10.01" height="10.11"/>
	<rect x="160.21" y="60.67" width="10.01" height="10.11"/>
	<rect x="180.24" y="60.67" width="10.01" height="10.11"/>
	<rect x="190.26" y="60.67" width="10.01" height="10.11"/>
	<rect x="200.27" y="60.67" width="10.01" height="10.11"/>
	<rect x="210.28" y="60.67" width="10.01" height="10.11"/>
	<rect x="220.3" y="60.67" width="10.01" height="10.11"/>
	<rect x="230.31" y="60.67" width="10.01" height="10.11"/>
	<rect x="240.32" y="60.67" width="10.01" height="10.11"/>
	<rect x="80.11" y="70.78" width="10.01" height="10.11"/>
	<rect x="90.12" y="70.78" width="10.01" height="10.11"/>
	<rect x="120.16" y="70.78" width="10.01" height="10.11"/>
	<rect x="130.17" y="70.78" width="10.01" height="10.11"/>
	<rect y="80.89" width="10.01" height="10.11"/>
	<rect x="10.01" y="80.89" width="10.01" height="10.11"/>
	<rect x="30.04" y="80.89" width="10.01" height="10.11"/>
	<rect x="40.05" y="80.89" width="10.01" height="10.11"/>
	<rect x="60.08" y="80.89" width="10.01" height="10.11"/>
	<rect x="90.12" y="80.89" width="10.01" height="10.11"/>
	<rect x="120.16" y="80.89" width="10.01" height="10.11"/>
	<rect x="140.19" y="80.89" width="10.01" height="10.11"/>
	<rect x="150.2" y="80.89" width="10.01" height="10.11"/>
	<rect x="180.24" y="80.89" width="10.01" height="10.11"/>
	<rect x="240.32" y="80.89" width="10.01" height="10.11"/>
	<rect y="91" width="10.01" height="10.11"/>
	<rect x="10.01" y="91" width="10.01" height="10.11"/>
	<rect x="20.03" y="91" width="10.01" height="10.11"/>
	<rect x="40.05" y="91" width="10.01" height="10.11"/>
	<rect x="50.07" y="91" width="10.01" height="10.11"/>
	<rect x="70.09" y="91" width="10.01" height="10.11"/>
	<rect x="100.13" y="91" width="10.01" height="10.11"/>
	<rect x="130.17" y="91" width="10.01" height="10.11"/>
	<rect x="140.19" y="91" width="10.01" height="10.11"/>
	<rect x="150.2" y="91" width="10.01" height="10.11"/>
	<rect x="170.23" y="91" width="10.01" height="10.11"/>
	<rect x="190.26" y="91" width="10.01" height="10.11"/>
	<rect x="200.27" y="91" width="10.01" height="10.11"/>
	<rect x="210.28" y="91" width="10.01" height="10.11"/>
	<rect x="220.3" y="91" width="10.01" height="10.11"/>
	<rect x="230.31" y="91" width="10.01" height="10.11"/>
	<rect y="101.11" width="10.01" height="10.11"/>
	<rect x="20.03" y="101.11" width="10.01" height="10.11"/>
	<rect x="40.05" y="101.11" width="10.01" height="10.11"/>
	<rect x="60.08" y="101.11" width="10.01" height="10.11"/>
	<rect x="70.09" y="101.11" width="10.01" height="10.11"/>
	<rect x="80.11" y="101.11" width="10.01" height="10.11"/>
	<rect x="90.12" y="101.11" width="10.01" height="10.11"/>
	<rect x="120.16" y="101.11" width="10.01" height="10.11"/>
	<rect x="150.2" y="101.11" width="10.01" height="10.11"/>
	<rect x="160.21" y="101.11" width="10.01" height="10.11"/>
	<rect x="180.24" y="101.11" width="10.01" height="10.11"/>
	<rect x="190.26" y="101.11" width="10.01" height="10.11"/>
	<rect x="210.28" y="101.11" width="10.01" height="10.11"/>
	<rect x="240.32" y="101.11" width="10.01" height="10.11"/>
	<rect y="111.22" width="10.01" height="10.11"/>
	<rect x="10.01" y="111.22" width="10.01" height="10.11"/>
	<rect x="70.09" y="111.22" width="10.01" height="10.11"/>
	<rect x="80.11" y="111.22" width="10.01" height="10.11"/>
	<rect x="150.2" y="111.22" width="10.01" height="10.11"/>
	<rect x="190.26" y="111.22" width="10.01" height="10.11"/>
	<rect x="210.28" y="111.22" width="10.01" height="10.11"/>
	<rect x="220.3" y="111.22" width="10.01" height="10.11"/>
	<rect x="230.31" y="111.22" width="10.01" height="10.11"/>
	<rect x="240.32" y="111.22" width="10.01" height="10.11"/>
	<rect x="20.03" y="121.33" width="10.01" height="10.11"/>
	<rect x="30.04" y="121.33" width="10.01" height="10.11"/>
	<rect x="60.08" y="121.33" width="10.01" height="10.11"/>
	<rect x="80.11" y="121.33" width="10.01" height="10.11"/>
	<rect x="90.12" y="121.33" width="10.01" height="10.11"/>
	<rect x="100.13" y="121.33" width="10.01" height="10.11"/>
	<rect x="140.19" y="121.33" width="10.01" height="10.11"/>
	<rect x="150.2" y="121.33" width="10.01" height="10.11"/>
	<rect x="180.24" y="121.33" width="10.01" height="10.11"/>
	<rect x="240.32" y="121.33" width="10.01" height="10.11"/>
	<rect y="131.45" width="10.01" height="10.11"/>
	<rect x="20.03" y="131.45" width="10.01" height="10.11"/>
	<rect x="30.04" y="131.45" width="10.01" height="10.11"/>
	<rect x="50.07" y="131.45" width="10.01" height="10.11"/>
	<rect x="70.09" y="131.45" width="10.01" height="10.11"/>
	<rect x="100.13" y="131.45" width="10.01" height="10.11"/>
	<rect x="120.16" y="131.45" width="10.01" height="10.11"/>
	<rect x="140.19" y="131.45" width="10.01" height="10.11"/>
	<rect x="150.2" y="131.45" width="10.01" height="10.11"/>
	<rect x="160.21" y="131.45" width="10.01" height="10.11"/>
	<rect x="170.23" y="131.45" width="10.01" height="10.11"/>
	<rect x="200.27" y="131.45" width="10.01" height="10.11"/>
	<rect x="230.31" y="131.45" width="10.01" height="10.11"/>
	<rect y="141.56" width="10.01" height="10.11"/>
	<rect x="10.01" y="141.56" width="10.01" height="10.11"/>
	<rect x="30.04" y="141.56" width="10.01" height="10.11"/>
	<rect x="40.05" y="141.56" width="10.01" height="10.11"/>
	<rect x="50.07" y="141.56" width="10.01" height="10.11"/>
	<rect x="60.08" y="141.56" width="10.01" height="10.11"/>
	<rect x="70.09" y="141.56" width="10.01" height="10.11"/>
	<rect x="90.12" y="141.56" width="10.01" height="10.11"/>
	<rect x="140.19" y="141.56" width="10.01" height="10.11"/>
	<rect x="150.2" y="141.56" width="10.01" height="10.11"/>
	<rect x="170.23" y="141.56" width="10.01" height="10.11"/>
	<rect x="180.24" y="141.56" width="10.01" height="10.11"/>
	<rect x="200.27" y="141.56" width="10.01" height="10.11"/>
	<rect x="210.28" y="141.56" width="10.01" height="10.11"/>
	<rect x="220.3" y="141.56" width="10.01" height="10.11"/>
	<rect x="230.31" y="141.56" width="10.01" height="10.11"/>
	<rect x="240.32" y="141.56" width="10.01" height="10.11"/>
	<rect y="151.67" width="10.01" height="10.11"/>
	<rect x="50.07" y="151.67" width="10.01" height="10.11"/>
	<rect x="70.09" y="151.67" width="10.01" height="10.11"/>
	<rect x="90.12" y="151.67" width="10.01" height="10.11"/>
	<rect x="120.16" y="151.67" width="10.01" height="10.11"/>
	<rect x="140.19" y="151.67" width="10.01" height="10.11"/>
	<rect x="160.21" y="151.67" width="10.01" height="10.11"/>
	<rect x="170.23" y="151.67" width="10.01" height="10.11"/>
	<rect x="190.26" y="151.67" width="10.01" height="10.11"/>
	<rect x="210.28" y="151.67" width="10.01" height="10.11"/>
	<rect x="220.3" y="151.67" width="10.01" height="10.11"/>
	<rect x="240.32" y="151.67" width="10.01" height="10.11"/>
	<rect y="161.78" width="10.01" height="10.11"/>
	<rect x="20.03" y="161.78" width="10.01" height="10.11"/>
	<rect x="30.04" y="161.78" width="10.01" height="10.11"/>
	<rect x="40.05" y="161.78" width="10.01" height="10.11"/>
	<rect x="60.08" y="161.78" width="10.01" height="10.11"/>
	<rect x="70.09" y="161.78" width="10.01" height="10.11"/>
	<rect x="100.13" y="161.78" width="10.01" height="10.11"/>
	<rect x="110.15" y="161.78" width="10.01" height="10.11"/>
	<rect x="120.16" y="161.78" width="10.01" height="10.11"/>
	<rect x="130.17" y="161.78" width="10.01" height="10.11"/>
	<rect x="150.2" y="161.78" width="10.01" height="10.11"/>
	<rect x="160.21" y="161.78" width="10.01" height="10.11"/>
	<rect x="170.23" y="161.78" width="10.01" height="10.11"/>
	<rect x="180.24" y="161.78" width="10.01" height="10.11"/>
	<rect x="190.26" y="161.78" width="10.01" height="10.11"/>
	<rect x="200.27" y="161.78" width="10.01" height="10.11"/>
	<rect x="220.3" y="161.78" width="10.01" height="10.11"/>
	<rect x="230.31" y="161.78" width="10.01" height="10.11"/>
	<rect x="80.11" y="171.89" width="10.01" height="10.11"/>
	<rect x="90.12" y="171.89" width="10.01" height="10.11"/>
	<rect x="110.15" y="171.89" width="10.01" height="10.11"/>
	<rect x="160.21" y="171.89" width="10.01" height="10.11"/>
	<rect x="200.27" y="171.89" width="10.01" height="10.11"/>
	<rect x="220.3" y="171.89" width="10.01" height="10.11"/>
	<rect x="230.31" y="171.89" width="10.01" height="10.11"/>
	<rect y="182" width="10.01" height="10.11"/>
	<rect x="10.01" y="182" width="10.01" height="10.11"/>
	<rect x="20.03" y="182" width="10.01" height="10.11"/>
	<rect x="30.04" y="182" width="10.01" height="10.11"/>
	<rect x="40.05" y="182" width="10.01" height="10.11"/>
	<rect x="50.07" y="182" width="10.01" height="10.11"/>
	<rect x="60.08" y="182" width="10.01" height="10.11"/>
	<rect x="100.13" y="182" width="10.01" height="10.11"/>
	<rect x="120.16" y="182" width="10.01" height="10.11"/>
	<rect x="140.19" y="182" width="10.01" height="10.11"/>
	<rect x="160.21" y="182" width="10.01" height="10.11"/>
	<rect x="180.24" y="182" width="10.01" height="10.11"/>
	<rect x="200.27" y="182" width="10.01" height="10.11"/>
	<rect x="240.32" y="182" width="10.01" height="10.11"/>
	<rect y="192.11" width="10.01" height="10.11"/>
	<rect x="60.08" y="192.11" width="10.01" height="10.11"/>
	<rect x="110.15" y="192.11" width="10.01" height="10.11"/>
	<rect x="130.17" y="192.11" width="10.01" height="10.11"/>
	<rect x="150.2" y="192.11" width="10.01" height="10.11"/>
	<rect x="160.21" y="192.11" width="10.01" height="10.11"/>
	<rect x="200.27" y="192.11" width="10.01" height="10.11"/>
	<rect x="240.32" y="192.11" width="10.01" height="10.11"/>
	<rect y="202.22" width="10.01" height="10.11"/>
	<rect x="20.03" y="202.22" width="10.01" height="10.11"/>
	<rect x="30.04" y="202.22" width="10.01" height="10.11"/>
	<rect x="40.05" y="202.22" width="10.01" height="10.11"/>
	<rect x="60.08" y="202.22" width="10.01" height="10.11"/>
	<rect x="80.11" y="202.22" width="10.01" height="10.11"/>
	<rect x="100.13" y="202.22" width="10.01" height="10.11"/>
	<rect x="110.15" y="202.22" width="10.01" height="10.11"/>
	<rect x="120.16" y="202.22" width="10.01" height="10.11"/>
	<rect x="140.19" y="202.22" width="10.01" height="10.11"/>
	<rect x="150.2" y="202.22" width="10.01" height="10.11"/>
	<rect x="160.21" y="202.22" width="10.01" height="10.11"/>
	<rect x="170.23" y="202.22" width="10.01" height="10.11"/>
	<rect x="180.24" y="202.22" width="10.01" height="10.11"/>
	<rect x="190.26" y="202.22" width="10.01" height="10.11"/>
	<rect x="200.27" y="202.22" width="10.01" height="10.11"/>
	<rect y="212.33" width="10.01" height="10.11"/>
	<rect x="20.03" y="212.33" width="10.01" height="10.11"/>
	<rect x="30.04" y="212.33" width="10.01" height="10.11"/>
	<rect x="40.05" y="212.33" width="10.01" height="10.11"/>
	<rect x="60.08" y="212.33" width="10.01" height="10.11"/>
	<rect x="80.11" y="212.33" width="10.01" height="10.11"/>
	<rect x="90.12" y="212.33" width="10.01" height="10.11"/>
	<rect x="120.16" y="212.33" width="10.01" height="10.11"/>
	<rect x="130.17" y="212.33" width="10.01" height="10.11"/>
	<rect x="140.19" y="212.33" width="10.01" height="10.11"/>
	<rect x="180.24" y="212.33" width="10.01" height="10.11"/>
	<rect x="230.31" y="212.33" width="10.01" height="10.11"/>
	<rect x="240.32" y="212.33" width="10.01" height="10.11"/>
	<rect y="222.45" width="10.01" height="10.11"/>
	<rect x="20.03" y="222.45" width="10.01" height="10.11"/>
	<rect x="30.04" y="222.45" width="10.01" height="10.11"/>
	<rect x="40.05" y="222.45" width="10.01" height="10.11"/>
	<rect x="60.08" y="222.45" width="10.01" height="10.11"/>
	<rect x="90.12" y="222.45" width="10.01" height="10.11"/>
	<rect x="110.15" y="222.45" width="10.01" height="10.11"/>
	<rect x="130.17" y="222.45" width="10.01" height="10.11"/>
	<rect x="150.2" y="222.45" width="10.01" height="10.11"/>
	<rect x="170.23" y="222.45" width="10.01" height="10.11"/>
	<rect x="200.27" y="222.45" width="10.01" height="10.11"/>
	<rect x="210.28" y="222.45" width="10.01" height="10.11"/>
	<rect x="220.3" y="222.45" width="10.01" height="10.11"/>
	<rect x="230.31" y="222.45" width="10.01" height="10.11"/>
	<rect x="240.32" y="222.45" width="10.01" height="10.11"/>
	<rect y="232.56" width="10.01" height="10.11"/>
	<rect x="60.08" y="232.56" width="10.01" height="10.11"/>
	<rect x="80.11" y="232.56" width="10.01" height="10.11"/>
	<rect x="100.13" y="232.56" width="10.01" height="10.11"/>
	<rect x="110.15" y="232.56" width="10.01" height="10.11"/>
	<rect x="140.19" y="232.56" width="10.01" height="10.11"/>
	<rect x="150.2" y="232.56" width="10.01" height="10.11"/>
	<rect x="190.26" y="232.56" width="10.01" height="10.11"/>
	<rect x="200.27" y="232.56" width="10.01" height="10.11"/>
	<rect x="220.3" y="232.56" width="10.01" height="10.11"/>
	<rect x="230.31" y="232.56" width="10.01" height="10.11"/>
	<rect x="240.32" y="232.56" width="10.01" height="10.11"/>
	<rect y="242.67" width="10.01" height="10.11"/>
	<rect x="10.01" y="242.67" width="10.01" height="10.11"/>
	<rect x="20.03" y="242.67" width="10.01" height="10.11"/>
	<rect x="30.04" y="242.67" width="10.01" height="10.11"/>
	<rect x="40.05" y="242.67" width="10.01" height="10.11"/>
	<rect x="50.07" y="242.67" width="10.01" height="10.11"/>
	<rect x="60.08" y="242.67" width="10.01" height="10.11"/>
	<rect x="80.11" y="242.67" width="10.01" height="10.11"/>
	<rect x="90.12" y="242.67" width="10.01" height="10.11"/>
	<rect x="100.13" y="242.67" width="10.01" height="10.11"/>
	<rect x="120.16" y="242.67" width="10.01" height="10.11"/>
	<rect x="160.21" y="242.67" width="10.01" height="10.11"/>
	<rect x="170.23" y="242.67" width="10.01" height="10.11"/>
	<rect x="210.28" y="242.67" width="10.01" height="10.11"/>
	<rect x="240.32" y="242.67" width="10.01" height="10.11"/>
</g>
</svg>
