<?xml version="1.0" encoding="utf-8"?>
<!-- Generator: Adobe Illustrator 22.1.0, SVG Export Plug-In . SVG Version: 6.00 Build 0)  -->
<svg version="1.1" id="Layer_1" xmlns="http://www.w3.org/2000/svg" xmlns:xlink="http://www.w3.org/1999/xlink" x="0px" y="0px"
	 viewBox="0 0 32 32" style="enable-background:new 0 0 32 32;" xml:space="preserve">
<path d="M19.3,6.8h-7c-3.1,0-5.6,2.5-5.6,5.6v7c0,3.1,2.5,5.6,5.6,5.6h7c3.1,0,5.6-2.5,5.6-5.6v-7C24.9,9.4,22.4,6.8,19.3,6.8z
	 M23.1,18.8c0,2.5-2,4.5-4.5,4.5h-5.7c-2.5,0-4.5-2-4.5-4.5v-5.7c0-2.5,2-4.5,4.5-4.5h5.7c2.5,0,4.5,2,4.5,4.5V18.8z M16,11.2
	c-2.7,0-4.8,2.2-4.8,4.8c0,2.7,2.2,4.8,4.8,4.8c2.7,0,4.8-2.2,4.8-4.8C20.8,13.3,18.7,11.2,16,11.2z M16,18.9
	c-1.6,0-2.9-1.3-2.9-2.9c0-1.6,1.3-2.9,2.9-2.9c1.6,0,2.9,1.3,2.9,2.9C18.9,17.6,17.6,18.9,16,18.9z M21.7,11.1
	c0,0.7-0.5,1.2-1.2,1.2c-0.7,0-1.2-0.5-1.2-1.2c0-0.7,0.5-1.2,1.2-1.2C21.2,9.9,21.7,10.4,21.7,11.1z"/>
</svg>
