<?xml version="1.0" encoding="utf-8"?>
<!-- Generator: Adobe Illustrator 23.0.1, SVG Export Plug-In . SVG Version: 6.00 Build 0)  -->
<svg version="1.1" id="Layer_1" xmlns="http://www.w3.org/2000/svg" xmlns:xlink="http://www.w3.org/1999/xlink" x="0px" y="0px"
	 viewBox="0 0 381.6 133.1" style="enable-background:new 0 0 381.6 133.1;" xml:space="preserve">
<style type="text/css">
	.st0{clip-path:url(#SVGID_2_);}
	.st1{fill:#231F20;}
	.st2{fill:#9676B5;}
	.st3{clip-path:url(#SVGID_4_);}
	.st4{fill:url(#SVGID_5_);}
</style>
<title>Asset 1</title>
<g>
	<g id="Layer_1-2">
		<g>
			<defs>
				<rect id="SVGID_1_" y="0" width="381.6" height="134.4"/>
			</defs>
			<clipPath id="SVGID_2_">
				<use xlink:href="#SVGID_1_"  style="overflow:visible;"/>
			</clipPath>
			<g class="st0">
				<path class="st1" d="M204.5,54.6h-13v19.5H205c6.9,0,11.4-3,11.4-9.7S211.8,54.6,204.5,54.6 M183.3,47.4h21.5
					c12.5,0,20,6,20,16.7c0,7.8-4,12.9-10.3,15.4V80l12.3,15.8v1.1h-9.1l-12.1-15.7h-14.1v15.7h-8.2L183.3,47.4z"/>
				<polygon class="st1" points="273.9,75.8 248.9,75.8 248.9,89.6 278.3,89.6 278.3,96.8 240.8,96.8 240.8,47.3 278.3,47.3 
					278.3,54.6 248.9,54.6 248.9,68.9 273.9,68.9 				"/>
				<polygon class="st1" points="325.9,75.8 300.9,75.8 300.9,89.6 330.3,89.6 330.3,96.8 292.8,96.8 292.8,47.3 330.3,47.3 
					330.3,54.6 300.9,54.6 300.9,68.9 325.9,68.9 				"/>
				<polygon class="st1" points="344.8,96.8 344.8,47.3 352.9,47.3 352.9,89.6 380.4,89.6 380.4,96.8 				"/>
				<path class="st2" d="M203.4,130.5c0,0-2.8,3.1-8.6,3.1c-7.1,0-12.9-5.8-12.9-12.9c0-7.1,5.8-12.9,12.9-12.9c0,0,0,0,0,0
					c5.9,0,8.6,3.1,8.6,3.1l-1.9,2.6c-1.8-1.6-4.2-2.5-6.6-2.6c-5.4,0-9.7,4.4-9.7,9.7c0,5.4,4.3,9.7,9.7,9.7c2.5,0,4.8-0.9,6.6-2.6
					L203.4,130.5z"/>
				<rect x="214.2" y="108.4" class="st2" width="3.4" height="24.7"/>
				<polygon class="st2" points="252.7,133.1 251.8,133.1 234.2,115.3 234.2,133.1 230.8,133.1 230.8,108.4 231.8,108.4 
					249.3,125.9 249.3,108.4 252.7,108.4 				"/>
				<polygon class="st2" points="282.3,122.4 269.3,122.4 269.3,130 284.3,130 284.3,133.1 265.9,133.1 265.9,108.4 284.3,108.4 
					284.3,111.4 269.3,111.4 269.3,119.4 282.3,119.4 				"/>
				<polygon class="st2" points="316.7,115.7 308.3,124.7 307.4,124.7 299,115.8 299,133.1 295.7,133.1 295.7,108.4 296.6,108.4 
					307.9,120.2 319.1,108.4 320.1,108.4 320.1,133.1 316.7,133.1 				"/>
				<path class="st2" d="M342.6,115h-0.4l-4.8,10.6l-0.2,0.4h10.6l-0.3-0.4L342.6,115z M342.1,108.4h0.7l12.3,24.8h-3.9l-2-4h-13.6
					l-2,4h-3.8L342.1,108.4z"/>
				<path class="st2" d="M364.6,128.1c2.1,1.6,4.7,2.5,7.4,2.4c4.2,0,5.9-1.6,5.9-3.9c0-2.1-1.4-3.2-6.5-4.6
					c-5.9-1.7-8.6-3.5-8.6-7.3c0-4.2,3.5-6.8,9.3-6.8c6.2,0,8.9,2.4,8.9,2.4l-1.9,2.8c-2.1-1.4-4.5-2.1-7-2c-3.3,0-5.7,1.3-5.7,3.6
					c0,1.9,1.5,2.8,6.5,4.2c6.5,1.8,8.6,4,8.6,7.7c0,4.1-2.9,7.2-9.5,7.2c-6.4,0-9.3-3-9.3-3L364.6,128.1z"/>
			</g>
		</g>
		<g>
			<defs>
				<path id="SVGID_3_" d="M114,0.1H9c-5,0-9,4-9,9v116.3c0,5,4,9,9,9h35.8v-0.1h7.3c3.9,0,7.5-2,9.5-5.4l12.1-20.1L85.8,129
					c2,3.3,5.6,5.4,9.5,5.4h8.1v0.1h48.7c4.3,0,7.8-3.3,7.9-7.6c0-2-0.8-4-2.2-5.5l0,0l-28.1-35.9c23-7.4,35.6-32.1,28.2-55.1
					C152.1,12.2,135.2,0,116.2,0C115.5,0,114.7,0,114,0.1"/>
			</defs>
			<clipPath id="SVGID_4_">
				<use xlink:href="#SVGID_3_"  style="overflow:visible;"/>
			</clipPath>
			<g class="st3">
				
					<linearGradient id="SVGID_5_" gradientUnits="userSpaceOnUse" x1="-267.2567" y1="-41.0899" x2="-266.2567" y2="-41.0899" gradientTransform="matrix(164.4981 139.3072 -139.3072 164.4981 38238.918 43989.2969)">
					<stop  offset="0" style="stop-color:#CBB3D6"/>
					<stop  offset="2.000000e-02" style="stop-color:#CBB3D6"/>
					<stop  offset="0.27" style="stop-color:#6E2B8B"/>
					<stop  offset="0.3" style="stop-color:#5D247B"/>
					<stop  offset="0.38" style="stop-color:#351457"/>
					<stop  offset="0.44" style="stop-color:#1D0B40"/>
					<stop  offset="0.47" style="stop-color:#140738"/>
					<stop  offset="1" style="stop-color:#140738"/>
				</linearGradient>
				<polygon class="st4" points="-66.3,78.3 66.8,-78.9 226.3,56.1 93.2,213.3 				"/>
			</g>
		</g>
	</g>
</g>
</svg>
